<?xml version="1.0" encoding="UTF-8"?>
<svg id="Layer_1" data-name="Layer 1" xmlns="http://www.w3.org/2000/svg" viewBox="0 0 200.96 182.65">
  <defs>
    <style>
      .cls-1, .cls-2 {
        fill: #fff;
      }

      .cls-2 {
        fill-rule: evenodd;
      }
    </style>
  </defs>
  <g>
    <path class="cls-2" d="M136.44,91.8c-.71.95-1.43,1.89-2.17,2.83-7.48-16.23-19.56-31.77-33.79-45.24-13.09,12.39-24.37,26.55-31.92,41.37-.65,1.28-1.28,2.57-1.87,3.86-.74-.93-1.46-1.88-2.17-2.83.65-1.27,1.32-2.54,2-3.79.21-.39.42-.77.64-1.16.35-.63.7-1.26,1.06-1.89.26-.45.52-.91.79-1.36.32-.55.64-1.1.97-1.64.29-.49.59-.97.89-1.46.26-.43.53-.86.79-1.28.08-.14.17-.27.25-.41.24-.38.49-.77.73-1.15.03-.05.07-.11.1-.16.3-.46.6-.93.91-1.39.27-.41.54-.81.81-1.22.08-.13.17-.25.25-.38.26-.39.53-.78.8-1.17.36-.53.73-1.06,1.1-1.59.32-.46.65-.92.97-1.37.34-.47.68-.94,1.02-1.41.32-.43.63-.86.95-1.29.11-.14.21-.28.32-.42.23-.31.47-.62.7-.93.35-.46.7-.91,1.05-1.36.2-.26.4-.51.6-.77.2-.25.39-.5.6-.75.72-.91,1.45-1.81,2.19-2.7.37-.44.74-.89,1.11-1.32,0,0,0,0,0,0,.29-.34.57-.67.86-1.01.11-.13.23-.26.34-.4.27-.32.55-.64.82-.95.11-.13.22-.25.33-.38.28-.32.55-.63.84-.94.13-.14.25-.29.39-.43.21-.23.41-.46.62-.69.21-.24.43-.48.65-.71.26-.29.53-.58.79-.86.08-.09.16-.17.24-.26.27-.29.54-.58.82-.87.24-.26.48-.51.73-.77.14-.15.29-.3.43-.45.26-.28.53-.56.81-.83.17-.18.34-.36.52-.53.18-.18.36-.36.54-.54.29-.29.58-.58.87-.87l.05-.05c.4-.39.79-.79,1.2-1.18.83-.81,1.67-1.61,2.51-2.41,9.1,8.57,17.34,18.06,24.44,28.3.36.51.71,1.03,1.06,1.54,1.05,1.55,2.07,3.11,3.07,4.69.33.53.66,1.06.99,1.59.32.53.65,1.06.97,1.6.64,1.07,1.27,2.14,1.89,3.23,1.23,2.16,2.41,4.36,3.55,6.58Z"/>
    <path class="cls-2" d="M100.48,44.27v5.13c-13.09,12.39-24.37,26.55-31.92,41.37-.7-.91-1.38-1.83-2.04-2.76.21-.39.42-.77.64-1.16.35-.63.7-1.26,1.06-1.89.26-.45.52-.91.79-1.36.32-.55.64-1.1.97-1.64.29-.49.59-.97.89-1.46.26-.43.53-.86.79-1.28.08-.14.17-.27.25-.41.24-.38.49-.77.73-1.15.03-.05.07-.11.1-.16.3-.46.6-.93.91-1.39.27-.41.54-.81.81-1.22.08-.13.17-.25.25-.38.26-.39.53-.78.8-1.17.36-.53.73-1.06,1.1-1.59.32-.46.65-.92.97-1.37.34-.47.68-.94,1.02-1.41.32-.43.63-.86.95-1.29.11-.14.21-.28.32-.42.23-.31.47-.62.7-.93.35-.46.7-.91,1.05-1.36.2-.26.4-.51.6-.77.2-.25.39-.5.6-.75.72-.91,1.45-1.81,2.19-2.7.37-.44.74-.89,1.11-1.32,0,0,0,0,0,0,.29-.34.57-.67.86-1.01.11-.13.23-.26.34-.4.27-.32.55-.64.82-.95.11-.13.22-.25.33-.38.28-.32.55-.63.84-.94.13-.14.25-.29.39-.43.21-.23.41-.46.62-.69.21-.24.43-.48.65-.71.26-.29.53-.58.79-.86.08-.09.16-.17.24-.26.27-.29.54-.58.82-.87.24-.26.48-.51.73-.77.14-.15.29-.3.43-.45.26-.28.53-.56.81-.83.17-.18.34-.36.52-.53.18-.18.36-.36.54-.54.29-.29.58-.58.87-.87l.05-.05c.4-.39.79-.79,1.2-1.18.83-.81,1.67-1.61,2.51-2.41Z"/>
    <path class="cls-2" d="M83.98,107.32c-1.18.76-2.31,1.47-3.4,2.13-.31-.28-.61-.56-.92-.84-.13-.12-.25-.23-.38-.35-.01-.01-.03-.02-.04-.04-.94-.87-1.86-1.75-2.76-2.65-.16-.15-.31-.31-.46-.46-.14-.13-.27-.27-.4-.4-.19-.18-.37-.37-.55-.56-.41-.42-.82-.84-1.22-1.27-.2-.21-.4-.42-.6-.63-.11-.11-.21-.22-.31-.33-.3-.32-.59-.64-.88-.96-.32-.35-.63-.69-.94-1.04-.06-.06-.11-.12-.16-.19-.29-.33-.58-.66-.87-.99,0,0-.01-.01-.02-.02-.31-.36-.62-.72-.93-1.09-.02-.02-.03-.03-.04-.05-.63-.75-1.26-1.51-1.87-2.28-.09-.11-.18-.23-.27-.34-.09-.11-.18-.23-.27-.34.6-1.29,1.22-2.58,1.87-3.86l.09-.18c.14.18.3.36.45.54.01.02.02.03.04.05.31.36.61.73.93,1.09,0,0,0,.01.02.02.29.33.57.66.87.99.05.06.11.13.16.19.31.35.62.7.94,1.04.29.32.58.64.88.96.1.11.21.22.31.33.2.21.4.42.6.63.4.43.81.85,1.22,1.27.18.19.36.37.55.56.13.14.27.27.4.4.15.16.31.31.46.46.9.9,1.82,1.78,2.76,2.65.01.01.03.02.04.04.13.12.25.23.38.35.3.28.61.56.92.84l2.05,1.8c.75.64,1.51,1.28,2.28,1.91-.32.21-.63.41-.94.61Z"/>
    <path class="cls-2" d="M118.33,111.26c-5.42,4.66-11.36,8.94-17.85,12.8-6.49-3.86-12.43-8.15-17.85-12.8,1-.82,1.98-1.68,2.93-2.56.28-.26.56-.52.84-.79,4.37,3.47,9.06,6.71,14.08,9.69,5.01-2.99,9.7-6.22,14.08-9.69,1.21,1.16,2.47,2.28,3.77,3.35Z"/>
    <path class="cls-2" d="M134.27,94.63c-.13.16-.25.33-.38.49-.62.78-1.25,1.54-1.89,2.3-.14.18-.29.35-.44.53-.24.28-.48.57-.73.85-.27.32-.54.63-.82.94-.05.06-.11.13-.16.19-.29.33-.59.67-.89,1-.05.06-.11.13-.17.19-.24.27-.48.53-.73.79-.78.85-1.58,1.68-2.39,2.5-.29.29-.57.58-.86.87-.02.02-.03.04-.05.05-.34.34-.69.68-1.04,1.02,0,0,0,0,0,0-.36.35-.72.7-1.09,1.04l-.04.04c-.18.17-.37.35-.56.52-.1.09-.2.19-.3.28-.05.05-.11.1-.16.15-.06.05-.11.1-.17.16-.33.31-.67.61-1.01.92-1.37-.83-2.81-1.75-4.33-2.75.77-.63,1.53-1.27,2.28-1.91l2.05-1.8c.34-.31.68-.61,1.01-.92.06-.05.11-.11.17-.16.05-.05.11-.1.16-.15.29-.26.57-.53.86-.8l.04-.04c.36-.35.73-.69,1.09-1.04,0,0,0,0,0,0,.35-.34.7-.68,1.04-1.02.02-.02.04-.03.05-.05.29-.29.58-.58.86-.87.81-.82,1.61-1.66,2.39-2.5.25-.26.49-.53.73-.79.06-.06.12-.13.17-.19.3-.33.6-.66.89-1,.06-.06.11-.12.16-.19.28-.31.55-.62.82-.94.25-.28.49-.57.73-.85.15-.18.3-.35.44-.53.1-.12.21-.25.3-.37.17.33.34.67.51,1.01.19.39.38.78.57,1.17.18.37.36.74.53,1.11.12.25.24.5.36.76Z"/>
    <path class="cls-2" d="M132.31,90.59c-.1.12-.2.25-.3.37-.14.18-.29.35-.44.53-.24.28-.48.57-.73.85-.27.32-.54.63-.82.94-.05.06-.11.13-.16.19-.29.33-.59.67-.89,1-.05.06-.11.13-.17.19-.24.27-.48.53-.73.79-.78.85-1.58,1.68-2.39,2.5-.29.29-.57.58-.86.87-.02.02-.03.04-.05.05-.34.34-.69.68-1.04,1.02,0,0,0,0,0,0-.36.35-.72.7-1.09,1.04l-.04.04c-.28.27-.57.54-.86.8-.05.05-.11.1-.16.15-.06.05-.11.1-.17.16-.33.31-.67.61-1.01.92l-2.05,1.8c-.28.24-.56.48-.84.72l-.03.02-1.41,1.18c-2.21-1.46-4.58-3.1-7.11-4.93,1.74,2.17,3.62,4.21,5.62,6.13-4.37,3.47-9.06,6.7-14.08,9.69-5.01-2.99-9.7-6.22-14.08-9.69l.02-.02c.29-.27.57-.55.85-.83.28-.28.56-.56.83-.84.27-.28.55-.57.81-.86.24-.25.47-.5.7-.76.08-.09.16-.18.25-.27.22-.24.43-.49.64-.73.25-.29.5-.58.74-.87.02-.02.03-.04.05-.06.25-.29.49-.59.73-.89-.9.65-1.79,1.28-2.65,1.89-.35.24-.69.48-1.03.72-.56.39-1.12.77-1.66,1.14-.44.29-.87.58-1.29.87-.16.11-.32.21-.48.32-.77-.63-1.53-1.27-2.28-1.91l-2.05-1.8c-.31-.28-.61-.56-.92-.84-.13-.12-.25-.23-.38-.35-.01-.01-.03-.02-.04-.04-.94-.87-1.86-1.75-2.76-2.65-.16-.15-.31-.31-.46-.46-.14-.13-.27-.27-.4-.4-.19-.18-.37-.37-.55-.56-.41-.42-.82-.84-1.22-1.27-.2-.21-.4-.42-.6-.63-.11-.11-.21-.22-.31-.33-.3-.32-.59-.64-.88-.96-.32-.35-.63-.69-.94-1.04-.06-.06-.11-.12-.16-.19-.29-.33-.58-.66-.87-.99,0,0-.01-.01-.02-.02-.31-.36-.62-.72-.93-1.09-.02-.02-.03-.03-.04-.05-.15-.18-.3-.36-.45-.54.12-.23.24-.46.36-.69.12-.23.24-.46.36-.69.24-.46.49-.92.74-1.38.12-.23.25-.46.38-.69.25-.46.51-.92.77-1.37.26-.46.53-.91.79-1.37.27-.45.54-.91.81-1.36.14-.23.27-.45.41-.68.14-.23.28-.45.42-.68.86-1.38,1.75-2.76,2.67-4.13.13-.19.26-.39.39-.58.45-.67.91-1.33,1.38-2,.16-.22.31-.44.47-.66.16-.22.31-.44.47-.66.29-.41.59-.81.89-1.22.35-.47.7-.94,1.05-1.41.16-.22.33-.43.49-.65.33-.43.67-.87,1-1.3.67-.86,1.36-1.72,2.05-2.58.35-.43.7-.85,1.05-1.28,1.39-1.68,2.83-3.35,4.3-4.99.37-.42.75-.83,1.12-1.24.38-.41.75-.82,1.14-1.23.38-.41.76-.82,1.15-1.22,2.32-2.44,4.71-4.83,7.16-7.15.41.39.81.77,1.22,1.16.2.19.39.38.59.57.16.15.32.31.48.47.45.44.89.87,1.33,1.32.4.4.79.79,1.18,1.19.18.18.36.36.53.54,1.39,1.42,2.75,2.86,4.08,4.32.27.3.55.6.82.9.53.58,1.04,1.17,1.56,1.75.12.14.24.27.36.41.33.38.66.75.98,1.13.19.22.39.45.58.68.75.89,1.49,1.78,2.22,2.67.25.31.5.62.75.93.2.25.4.5.6.75.18.22.35.44.52.66.68.87,1.36,1.75,2.01,2.63.18.23.35.46.52.7.17.23.34.47.51.7.33.45.66.91.98,1.36.18.25.36.5.53.75.16.22.31.44.47.66.16.22.31.44.46.67.15.22.31.44.46.67.61.89,1.2,1.79,1.78,2.68.29.45.58.9.86,1.35.14.23.29.45.42.68.42.68.83,1.36,1.24,2.04.14.23.27.45.4.68.13.23.27.45.4.68.53.91,1.04,1.82,1.54,2.74.23.42.45.84.68,1.25.06.11.11.22.17.32.12.23.24.45.35.68.09.17.17.34.26.5Z"/>
    <path class="cls-2" d="M134.27,88.17c-.13.16-.25.33-.38.49-.52.65-1.04,1.29-1.58,1.93-.25-.49-.5-.97-.76-1.46-.23-.43-.47-.87-.7-1.3h0c-.25-.46-.5-.92-.76-1.37-.26-.46-.52-.91-.78-1.37-.13-.23-.26-.46-.4-.68-.13-.23-.27-.46-.4-.68-.29-.49-.59-.98-.89-1.47-.12-.19-.23-.38-.35-.56-.14-.22-.28-.45-.42-.68-.28-.45-.57-.9-.86-1.35-.58-.9-1.17-1.79-1.78-2.68-.15-.22-.3-.44-.46-.67s-.3-.44-.46-.67c-.15-.22-.31-.44-.47-.66-1.32-1.88-2.7-3.75-4.13-5.59-.14-.18-.29-.36-.43-.55-.18-.24-.37-.47-.56-.71-.15-.19-.3-.38-.46-.57-.03-.04-.07-.09-.1-.13-.25-.31-.5-.62-.75-.93-.32-.39-.63-.78-.95-1.16-.81-.98-1.63-1.95-2.47-2.91-.23-.27-.47-.55-.72-.82-.34-.39-.68-.77-1.03-1.16-.14-.16-.28-.32-.42-.47-.04-.04-.07-.08-.11-.12-.27-.3-.54-.6-.82-.9-.34-.37-.68-.75-1.03-1.12-.03-.04-.07-.07-.1-.11-.38-.41-.76-.82-1.15-1.22-.38-.4-.77-.81-1.16-1.21-.04-.04-.07-.07-.11-.11-.36-.37-.71-.73-1.07-1.09-.39-.4-.79-.8-1.18-1.19-.32-.32-.65-.64-.98-.97-.12-.12-.24-.23-.36-.35-.32-.31-.64-.62-.96-.93-.04-.04-.07-.07-.11-.11-.4-.39-.81-.78-1.22-1.16-2.45,2.32-4.84,4.71-7.16,7.15-.39.41-.77.82-1.15,1.22-.38.41-.76.82-1.14,1.23-.38.41-.75.83-1.12,1.24-1.47,1.64-2.91,3.3-4.3,4.99-.35.43-.7.85-1.05,1.28-.69.86-1.38,1.71-2.05,2.58-.34.43-.67.86-1,1.3-.16.22-.33.43-.49.65-.35.47-.7.94-1.05,1.41-.3.41-.59.81-.89,1.22-.16.22-.32.44-.47.66-.16.22-.31.44-.47.66-.47.66-.93,1.33-1.38,2-.13.19-.26.39-.39.58-.92,1.37-1.81,2.74-2.67,4.13-.14.23-.28.45-.42.68-.14.23-.28.45-.41.68-.27.45-.54.91-.81,1.36-.27.46-.53.91-.79,1.37-.26.46-.52.91-.77,1.37-.13.23-.25.46-.38.69-.25.46-.5.92-.74,1.38-.12.23-.24.46-.36.69-.12.23-.24.46-.36.69-.48-.57-.96-1.15-1.42-1.74-.09-.11-.18-.23-.27-.34-.09-.11-.18-.23-.27-.34.52-1.13,1.07-2.25,1.63-3.38,0,0,0-.01,0-.02.07-.16.15-.31.23-.47,7.55-14.82,18.83-28.98,31.92-41.37,13.23,12.52,24.6,26.84,32.14,41.83.57,1.13,1.12,2.27,1.64,3.41Z"/>
    <path class="cls-2" d="M66.96,94.97c-.09-.11-.18-.22-.27-.34,0,0,0,0,0,0,.09.11.18.23.27.34Z"/>
    <path class="cls-2" d="M69.1,97.59c-.64-.75-1.26-1.51-1.87-2.28.61.77,1.24,1.52,1.87,2.28Z"/>
    <path class="cls-2" d="M121.72,108.23c.29-.26.57-.53.86-.8-.28.27-.57.54-.86.8h0Z"/>
    <path class="cls-2" d="M134.27,94.63c-.13.16-.26.32-.39.49.13-.16.26-.32.38-.49h0Z"/>
    <path class="cls-2" d="M100.48,44.27v5.13c-13.09,12.39-24.37,26.55-31.92,41.37-.65,1.28-1.28,2.57-1.87,3.86,0,0,0,0,0,0-6.61,14.32-7.29,25.36,12.56,13.6.01.01.03.02.04.04.13.12.25.23.38.35.3.28.61.56.92.84-25.51,15.47-26.3,2.44-16.06-17.65.65-1.27,1.32-2.54,2-3.79.21-.39.42-.77.64-1.16.35-.63.7-1.26,1.06-1.89.26-.45.52-.91.79-1.36.32-.55.64-1.1.97-1.64.29-.49.59-.97.89-1.46.26-.43.53-.86.79-1.28.08-.14.17-.27.25-.41.24-.38.49-.77.73-1.15.03-.05.07-.11.1-.16.3-.46.6-.93.91-1.39.27-.41.54-.81.81-1.22.08-.13.17-.25.25-.38.26-.39.53-.78.8-1.17.36-.53.73-1.06,1.1-1.59.32-.46.65-.92.97-1.37.34-.47.68-.94,1.02-1.41.32-.43.63-.86.95-1.29.11-.14.21-.28.32-.42.23-.31.47-.62.7-.93.35-.46.7-.91,1.05-1.36.2-.26.4-.51.6-.77.2-.25.39-.5.6-.75.72-.91,1.45-1.81,2.19-2.7.37-.44.74-.89,1.11-1.32,0,0,0,0,0,0,.29-.34.57-.67.86-1.01.11-.13.23-.26.34-.4.27-.32.55-.64.82-.95.11-.13.22-.25.33-.38.28-.32.55-.63.84-.94.13-.14.25-.29.39-.43.21-.23.41-.46.62-.69.21-.24.43-.48.65-.71.26-.29.53-.58.79-.86.08-.09.16-.17.24-.26.27-.29.54-.58.82-.87.24-.26.48-.51.73-.77.14-.15.29-.3.43-.45.26-.28.53-.56.81-.83.17-.18.34-.36.52-.53.18-.18.36-.36.54-.54.29-.29.58-.58.87-.87l.05-.05c.4-.39.79-.79,1.2-1.18.83-.81,1.67-1.61,2.51-2.41Z"/>
    <path class="cls-2" d="M120.38,109.45c.34-.31.68-.61,1.01-.92.06-.05.11-.11.17-.16.05-.05.11-.1.16-.14,19.84,11.76,19.16.72,12.56-13.6h0c-.12-.26-.24-.51-.36-.76-.17-.37-.35-.74-.53-1.11-.19-.39-.38-.78-.57-1.17-.17-.34-.34-.67-.51-1.01-.09-.17-.17-.34-.26-.5-.12-.23-.23-.45-.35-.68-.06-.11-.11-.22-.17-.32-.22-.42-.45-.84-.68-1.25-.5-.92-1.01-1.83-1.54-2.74-.13-.23-.26-.46-.4-.68-.13-.23-.27-.46-.4-.68-.4-.68-.82-1.36-1.24-2.04-.14-.22-.28-.45-.42-.68-.28-.45-.57-.9-.86-1.35-.58-.9-1.17-1.79-1.78-2.68-.15-.22-.3-.44-.46-.67-.15-.22-.3-.44-.46-.67-.15-.22-.31-.44-.47-.66-.18-.25-.35-.5-.53-.75-.32-.45-.65-.91-.98-1.36-.17-.23-.34-.46-.51-.7-.17-.23-.35-.46-.52-.7-.66-.88-1.33-1.76-2.01-2.63-.17-.22-.34-.44-.52-.66-.2-.25-.39-.5-.6-.75-.25-.31-.5-.62-.75-.93-.73-.89-1.46-1.79-2.22-2.67-.19-.23-.38-.45-.58-.68-.32-.38-.65-.76-.98-1.13-.12-.14-.24-.28-.36-.41-.51-.59-1.03-1.17-1.56-1.75-.27-.3-.54-.6-.82-.9-1.33-1.46-2.69-2.9-4.08-4.32-.18-.18-.35-.36-.53-.54-.39-.4-.79-.8-1.18-1.19-.44-.44-.89-.88-1.33-1.32-.16-.16-.32-.31-.48-.47-.2-.19-.39-.38-.59-.57-.4-.39-.81-.78-1.22-1.16v-5.13c9.1,8.57,17.34,18.06,24.44,28.3.36.51.71,1.03,1.06,1.54,1.05,1.55,2.07,3.11,3.07,4.69.33.53.66,1.06.99,1.59s.65,1.06.97,1.6c.64,1.07,1.27,2.14,1.89,3.23,1.23,2.17,2.42,4.36,3.55,6.58,10.24,20.09,9.45,33.12-16.06,17.65Z"/>
    <path class="cls-2" d="M114.88,37.18s-.06-.06-.09-.09c.08.08.17.16.25.25-.05-.05-.1-.11-.16-.15Z"/>
    <path class="cls-2" d="M147.77,53.29c.58-.46,1.16-.91,1.72-1.36-.57.45-1.14.9-1.72,1.36Z"/>
    <path class="cls-2" d="M149.49,51.93c.85-.67,1.68-1.34,2.5-1.99-.81.66-1.64,1.32-2.5,1.99Z"/>
    <path class="cls-2" d="M153,49.11c1.79-1.45,3.5-2.86,5.12-4.23-2.9,11.68-7.19,22.97-13.04,33.5-.71-1.37-1.44-2.73-2.18-4.06,4.2-7.93,7.55-16.37,10.1-25.21Z"/>
    <path class="cls-2" d="M148.41,11.37c1.56.83,3.13,1.66,4.72,2.46,0,0-.01,0-.02,0,0,0-.02,0-.03.01-1.46.64-2.92,1.32-4.39,2.02-8.14,3.9-16.38,8.71-24.41,14.25-.28.19-.55.38-.83.58-.23.16-.47.32-.7.49-.32.23-.64.45-.95.68-.39.28-.79.56-1.18.85-.39.28-.78.57-1.18.86-.39.29-.78.58-1.17.87-.34.26-.69.52-1.03.77-.43.33-.87.66-1.3.99-.39.3-.77.6-1.16.9-.04-.03-.07-.07-.1-.1-.07-.07-.14-.13-.21-.2-.07-.07-.15-.14-.22-.21-.04-.04-.07-.07-.11-.11-.26-.25-.52-.51-.79-.76-.07-.07-.15-.15-.23-.22-.12-.12-.25-.23-.37-.35-.28-.27-.56-.54-.85-.8.94-.75,1.89-1.5,2.85-2.23.32-.25.64-.49.96-.73.3-.23.6-.45.89-.68.23-.18.47-.35.71-.53.35-.26.69-.51,1.04-.77,1.85-1.36,3.72-2.68,5.62-3.96.34-.23.68-.46,1.03-.69.34-.23.68-.46,1.02-.68.06-.04.12-.08.18-.12.35-.23.7-.46,1.06-.69.38-.25.76-.49,1.14-.73.38-.24.76-.48,1.14-.72.01,0,.03-.02.04-.03.37-.23.74-.46,1.1-.69.38-.24.77-.47,1.15-.71.38-.23.77-.47,1.15-.7.43-.26.87-.52,1.3-.77.25-.15.51-.3.76-.45.64-.37,1.28-.74,1.92-1.11.29-.17.58-.33.87-.49.72-.4,1.44-.8,2.17-1.2.39-.21.79-.43,1.19-.64.39-.21.79-.42,1.19-.63.4-.21.8-.42,1.19-.62.2-.11.41-.21.61-.31,1.39-.71,2.79-1.41,4.2-2.09Z"/>
    <path class="cls-2" d="M116.63,38.92c.12.13.25.25.37.38-.16-.16-.31-.32-.47-.48l.1.1Z"/>
    <path class="cls-2" d="M148.69,15.86c-8.98,4.3-18.09,9.72-26.89,15.99-.39.28-.79.56-1.18.85-.39.28-.78.57-1.18.86-.39.29-.78.58-1.17.87-.34.26-.69.52-1.03.77-.43.33-.87.66-1.3.99-.39.3-.77.6-1.16.9.08.08.17.16.25.25-.05-.05-.1-.11-.16-.15-.13-.14-.27-.27-.4-.39-.07-.07-.15-.14-.22-.22-.04-.04-.07-.07-.11-.11-.26-.25-.52-.51-.79-.76-.07-.07-.15-.15-.23-.22-.12-.12-.25-.24-.37-.35-.28-.27-.56-.54-.85-.8.94-.75,1.89-1.5,2.85-2.23.32-.25.64-.49.96-.73.3-.23.6-.45.89-.68.23-.18.47-.35.71-.53.35-.26.69-.51,1.04-.77,1.85-1.36,3.72-2.68,5.62-3.96.34-.23.68-.46,1.03-.69.34-.23.68-.46,1.02-.68.06-.04.12-.08.18-.12.35-.23.7-.46,1.06-.69.38-.25.76-.49,1.14-.73.38-.24.76-.48,1.14-.72.01,0,.03-.02.04-.03.37-.23.74-.46,1.1-.69.38-.24.77-.47,1.15-.71.38-.23.77-.47,1.15-.7.43-.26.87-.52,1.3-.77.25-.15.51-.3.76-.45.64-.37,1.28-.74,1.92-1.11.29-.17.58-.33.87-.49.72-.4,1.44-.8,2.17-1.2.39-.21.79-.43,1.19-.64.39-.21.79-.42,1.19-.63.4-.21.8-.42,1.19-.62.2-.11.41-.21.61-.32,0,0,0,0,0,0,1.48.82,2.97,1.62,4.47,2.4,0,0,.01,0,.02,0Z"/>
    <path class="cls-2" d="M158.35,20.67c-.35,3.53-.8,7.03-1.36,10.47-.8,4.99-1.83,9.87-3.08,14.65h0c-.67.75-1.35,1.51-2.06,2.29-.53.58-1.06,1.17-1.61,1.76-.54.59-1.1,1.19-1.66,1.8-.32.34-.63.68-.96,1.03-.83.89-1.67,1.78-2.54,2.7.91-.7,1.8-1.39,2.67-2.08.58-.46,1.16-.91,1.72-1.36.21-.17.43-.33.64-.5.42-.33.84-.66,1.25-1,.21-.16.41-.33.61-.49.34-.28.68-.55,1.02-.82-2.55,8.84-5.9,17.27-10.1,25.21-.01-.02-.02-.04-.04-.06-.24-.43-.48-.86-.72-1.28-.04-.08-.09-.16-.13-.24-.25-.45-.51-.89-.76-1.33-.26-.45-.52-.89-.78-1.33-.09-.15-.18-.31-.27-.46-.21-.36-.42-.71-.64-1.06-.25-.41-.5-.83-.75-1.24-.07-.11-.14-.22-.21-.33-.25-.41-.51-.82-.76-1.22-.29-.45-.57-.91-.86-1.36-.02-.03-.04-.06-.05-.08-.28-.43-.56-.86-.84-1.29-.2-.3-.4-.61-.6-.91-.65-.97-1.3-1.93-1.97-2.88-.17-.24-.33-.47-.5-.71-.32-.46-.65-.91-.98-1.36-.03-.04-.06-.09-.09-.13-.14-.2-.29-.41-.44-.61-.2-.27-.39-.54-.6-.81-.29-.39-.57-.77-.86-1.15-.04-.05-.08-.1-.12-.15-.27-.36-.54-.72-.82-1.07-.08-.11-.17-.22-.26-.33-.32-.42-.65-.84-.98-1.25-.35-.45-.71-.89-1.06-1.33-.36-.44-.71-.88-1.07-1.31,0,0-.01-.02-.02-.02-.35-.43-.71-.85-1.07-1.28-.36-.42-.72-.84-1.08-1.26-.03-.04-.07-.07-.1-.11-.33-.39-.66-.77-1-1.14-.28-.32-.56-.64-.85-.95-.25-.27-.49-.55-.74-.82-.15-.17-.31-.35-.47-.52-.18-.2-.36-.39-.54-.58-.25-.27-.5-.54-.76-.81-.04-.05-.08-.09-.13-.14-.32-.34-.64-.68-.97-1.02-.09-.09-.18-.19-.27-.28-.24-.26-.49-.51-.74-.76-.12-.13-.25-.25-.37-.38l-.1-.1c-.12-.12-.24-.24-.36-.36-.08-.08-.16-.17-.25-.25-.14-.15-.29-.29-.44-.44-.04-.04-.07-.07-.1-.1-.06-.06-.12-.13-.19-.18-.05-.05-.1-.1-.15-.15-.04-.04-.08-.08-.12-.11l-.13-.13c.39-.3.77-.6,1.16-.9.43-.33.86-.66,1.3-.99.34-.26.69-.52,1.03-.77.39-.29.78-.58,1.17-.87.39-.29.78-.57,1.18-.86.39-.29.79-.57,1.18-.85.32-.23.64-.45.95-.68.23-.16.47-.33.7-.49.28-.19.55-.39.83-.58,8.02-5.54,16.26-10.35,24.41-14.25,3.18,1.67,6.4,3.27,9.66,4.81Z"/>
    <path class="cls-2" d="M162.43,18.32c-.05.59-.1,1.18-.16,1.76-.03.3-.06.6-.08.9,0,.03,0,.07,0,.1-.04.43-.09.87-.13,1.3-.05.45-.1.9-.15,1.34-.05.45-.1.89-.16,1.34-.12.99-.25,1.97-.38,2.94-.04.29-.08.58-.12.87-.01.1-.03.21-.04.31-.11.75-.22,1.49-.34,2.23-.09.58-.19,1.16-.29,1.74-.07.39-.14.79-.21,1.18-.11.64-.23,1.27-.35,1.9h0c-.04.24-.09.47-.14.71,0,.04-.01.08-.02.12-.08.39-.15.78-.23,1.18-.09.43-.18.86-.27,1.29-1.68,1.99-3.49,4.08-5.44,6.26,1.25-4.78,2.28-9.66,3.08-14.65.56-3.45,1.01-6.94,1.36-10.47-3.26-1.54-6.48-3.14-9.66-4.81,1.47-.7,2.93-1.38,4.39-2.02,0,0,.02,0,.03-.01,0,0,.01,0,.02,0,.25.12.49.25.73.37.31.16.62.31.93.47.21.11.42.21.63.31,1.25.62,2.5,1.23,3.77,1.83.46.22.93.44,1.39.66.03.02.07.03.1.05.58.27,1.16.54,1.74.81Z"/>
    <path class="cls-2" d="M148.67,15.86c1.47-.7,2.94-1.37,4.41-2.01-1.46.64-2.92,1.32-4.39,2.02-8.14,3.9-16.38,8.71-24.41,14.25,7.74-5.35,16-10.27,24.38-14.26Z"/>
    <path class="cls-2" d="M160.01,36.23c11.58-14.8,22.22-35.03-6.89-22.41,0,0-.01,0-.02,0,0,0-.02,0-.03.01-1.46.64-2.92,1.32-4.39,2.02-8.14,3.9-16.38,8.71-24.41,14.25-.28.19-.55.38-.83.58-.23.16-.47.32-.7.49-.32.23-.64.45-.95.68-.39.28-.79.56-1.18.85-.39.28-.78.57-1.18.86-.39.29-.78.58-1.17.87-.34.26-.69.52-1.03.77-.43.33-.87.66-1.3.99-.39.3-.77.6-1.16.9-.04-.03-.07-.07-.1-.1-.07-.07-.14-.13-.21-.2-.07-.07-.15-.14-.22-.21-.04-.04-.07-.07-.11-.11-.26-.25-.52-.51-.79-.76-.07-.07-.15-.15-.23-.22-.12-.12-.25-.23-.37-.35-.28-.27-.56-.54-.85-.8.94-.75,1.89-1.5,2.85-2.23.32-.25.64-.49.96-.73.3-.23.6-.45.89-.68.23-.18.47-.35.71-.53.35-.26.69-.51,1.04-.77,1.85-1.36,3.72-2.68,5.62-3.96.34-.23.68-.46,1.03-.69.34-.23.68-.46,1.02-.68.06-.04.12-.08.18-.12.35-.23.7-.46,1.06-.69.38-.25.76-.49,1.14-.73.38-.24.76-.48,1.14-.72.01,0,.03-.02.04-.03.37-.23.74-.46,1.1-.69.38-.24.77-.47,1.15-.71.38-.23.77-.47,1.15-.7.43-.26.87-.52,1.3-.77.25-.15.51-.3.76-.45.64-.37,1.28-.74,1.92-1.11.29-.17.58-.33.87-.49.72-.4,1.44-.8,2.17-1.2.39-.21.79-.43,1.19-.64.39-.21.79-.42,1.19-.63.4-.21.8-.42,1.19-.62.2-.11.41-.21.61-.31,1.39-.71,2.79-1.41,4.2-2.09,26.93-12.95,42.79-9.63,10.94,28.17.09-.43.18-.86.27-1.29.08-.39.16-.78.23-1.18,0-.04.02-.08.02-.12.05-.23.09-.47.14-.7h0Z"/>
    <path class="cls-2" d="M49.84,50.63c.54.43,1.08.86,1.63,1.3-.55-.43-1.1-.87-1.63-1.3Z"/>
    <path class="cls-2" d="M51.47,51.93c.57.45,1.14.9,1.72,1.36-.58-.46-1.16-.91-1.72-1.36Z"/>
    <path class="cls-2" d="M47.96,49.12c2.54,8.84,5.9,17.27,10.1,25.21-.74,1.33-1.46,2.69-2.18,4.06-5.85-10.52-10.13-21.82-13.04-33.5,1.62,1.37,3.32,2.78,5.12,4.23h0Z"/>
    <path class="cls-2" d="M89.04,34.34c-.41.38-.81.76-1.22,1.15-.03.03-.06.06-.09.09-.17.16-.35.33-.52.5-.12.11-.25.23-.37.36-.01.01-.03.03-.04.04-.06.06-.13.12-.19.19-.02.02-.04.04-.06.06-.08.07-.16.15-.23.23-.05.05-.11.11-.16.16-.39-.3-.77-.6-1.16-.9-.43-.33-.86-.66-1.3-.99-.34-.26-.69-.52-1.03-.77-.39-.29-.78-.58-1.17-.87-.39-.29-.78-.57-1.18-.86-.39-.29-.79-.57-1.18-.85-.37-.26-.74-.53-1.12-.79-.45-.32-.9-.63-1.36-.94,0,0,0,0-.01-.01-8.02-5.53-16.26-10.34-24.4-14.24-1.48-.71-2.95-1.39-4.41-2.03h-.01c1.59-.81,3.16-1.64,4.71-2.47,1.41.68,2.81,1.37,4.2,2.09.2.1.41.21.61.31.4.21.8.41,1.19.62.4.21.79.42,1.19.63.4.21.79.43,1.19.64.72.39,1.45.79,2.17,1.2.29.16.58.33.87.49.64.36,1.29.73,1.92,1.11.25.15.51.3.76.45.43.25.87.51,1.3.77.39.23.77.46,1.15.7.39.23.77.47,1.15.71.37.23.74.46,1.1.69.01,0,.03.02.04.03.38.24.76.48,1.14.72.38.24.76.49,1.14.73.35.23.7.46,1.06.69.06.04.12.08.18.12.34.23.68.45,1.02.68.34.23.69.46,1.03.69,1.9,1.29,3.77,2.61,5.62,3.96.35.25.7.51,1.04.77.24.18.47.35.71.53.3.22.6.45.89.68.32.24.64.49.96.73.96.74,1.9,1.48,2.85,2.23Z"/>
    <path class="cls-2" d="M47.96,49.11c.3.25.61.49.91.74-.31-.25-.61-.49-.91-.74h0Z"/>
    <path class="cls-2" d="M84.33,38.92c.07-.07.14-.14.21-.22-.22.23-.45.46-.67.69.15-.16.3-.31.46-.47Z"/>
    <path class="cls-2" d="M85.25,38c.15-.15.31-.31.46-.46-.05.05-.11.1-.16.16-.25.25-.51.51-.76.76.15-.15.3-.31.46-.46Z"/>
    <path class="cls-2" d="M89.04,34.34c-.41.38-.81.76-1.22,1.15-.03.03-.06.06-.09.09-.17.16-.35.33-.52.5-.12.11-.25.23-.37.36-.01.01-.03.02-.04.04-.08.08-.17.16-.25.24-.22.22-.45.44-.67.66.09-.09.18-.18.28-.28-.39-.3-.77-.6-1.16-.9-.43-.33-.86-.66-1.3-.99-.34-.26-.69-.52-1.03-.77-.39-.29-.78-.58-1.17-.87-.39-.29-.78-.57-1.18-.86-.39-.29-.79-.57-1.18-.85-8.8-6.27-17.9-11.69-26.89-15.99,0,0,.01,0,.02,0,1.5-.79,2.99-1.59,4.47-2.4,0,0,0,0,0,0,.2.11.41.21.61.32.4.21.8.41,1.19.62.4.21.79.42,1.19.63.4.21.79.43,1.19.64.72.39,1.45.79,2.17,1.2.29.16.58.33.87.49.64.36,1.29.73,1.92,1.11.25.15.51.3.76.45.43.25.87.51,1.3.77.39.23.77.47,1.15.7.39.23.77.47,1.15.71.37.23.74.46,1.1.69.01,0,.03.02.04.03.38.24.76.48,1.14.72.38.24.76.49,1.14.73.35.23.7.46,1.06.69.06.04.12.08.18.12.34.23.68.45,1.02.68.34.23.69.46,1.03.69,1.9,1.29,3.77,2.61,5.62,3.96.35.25.7.51,1.04.77.24.18.47.35.71.53.3.22.6.45.89.68.32.24.64.49.96.73.96.74,1.9,1.48,2.85,2.23Z"/>
    <path class="cls-2" d="M86.17,37.09c-.09.09-.19.18-.28.28-.06.06-.12.12-.18.18-.04.04-.09.09-.13.13,0,0-.02.02-.02.02,0,0-.02.02-.03.03-.09.09-.18.18-.28.27-.15.15-.31.31-.46.46-.08.08-.16.16-.24.24-.07.07-.14.14-.21.22-.15.16-.31.31-.46.47-.2.21-.4.41-.6.62-.16.16-.32.33-.47.49-.2.21-.4.42-.6.63-.23.24-.46.48-.68.72-.07.07-.13.14-.2.21-.32.34-.63.68-.94,1.02-.03.03-.05.05-.07.08-.33.36-.65.72-.97,1.07-.04.04-.08.09-.12.13-.28.31-.56.63-.84.95-.14.15-.27.31-.4.46-.24.27-.47.54-.7.81-.69.8-1.37,1.6-2.04,2.41-.36.43-.72.87-1.07,1.31-.36.44-.71.88-1.06,1.33-.33.41-.66.83-.98,1.25-.09.11-.17.22-.26.33-.28.36-.55.71-.82,1.07-.04.05-.08.1-.12.15-.29.38-.58.77-.86,1.15-.2.27-.4.54-.6.81-.15.2-.3.41-.44.61-.03.04-.07.09-.09.13-.33.45-.65.91-.98,1.36-.17.24-.33.47-.5.71-.66.95-1.32,1.91-1.97,2.88-.2.3-.4.61-.6.91-.28.43-.56.86-.84,1.29-.02.03-.04.06-.05.08-.29.45-.58.9-.86,1.36-.26.41-.51.82-.76,1.22-.07.11-.14.22-.21.33-.25.41-.5.82-.75,1.24-.21.35-.43.71-.64,1.06-.09.15-.18.31-.27.46-.26.44-.52.89-.78,1.33-.25.44-.51.89-.76,1.33-.04.08-.09.16-.13.24-.24.43-.48.85-.72,1.28-.01.02-.02.04-.04.06-4.2-7.93-7.55-16.37-10.1-25.21.3.24.61.49.91.74.32.26.64.52.97.78.54.43,1.08.86,1.63,1.3.57.45,1.14.9,1.72,1.36.87.68,1.76,1.38,2.67,2.08-.87-.91-1.71-1.81-2.54-2.7-.32-.34-.64-.69-.96-1.03-.57-.61-1.12-1.21-1.66-1.8-.54-.59-1.08-1.18-1.61-1.76-.7-.77-1.39-1.54-2.06-2.29h0c-1.25-4.78-2.28-9.67-3.08-14.65-.56-3.45-1.01-6.94-1.36-10.47,3.26-1.54,6.48-3.14,9.66-4.81,8.14,3.9,16.38,8.71,24.4,14.24,0,0,0,0,.01.01.45.31.9.63,1.36.94.37.26.75.53,1.12.79.39.28.79.56,1.18.85.39.28.78.57,1.18.86.39.29.78.58,1.17.87.34.26.69.52,1.03.77.43.33.87.66,1.3.99.39.3.77.6,1.16.9Z"/>
    <path class="cls-2" d="M43.96,31.14c.8,4.99,1.83,9.87,3.08,14.65-1.95-2.19-3.76-4.27-5.44-6.26-.06-.28-.12-.55-.17-.82-.05-.24-.1-.47-.14-.71-.07-.36-.14-.71-.21-1.06-.05-.23-.09-.47-.14-.7h0c-.39-2.04-.74-4.09-1.05-6.15-.04-.28-.08-.56-.12-.83-.02-.12-.04-.24-.05-.37-.04-.29-.08-.58-.12-.87-.14-.98-.26-1.96-.38-2.94-.05-.45-.11-.89-.16-1.34-.05-.45-.1-.89-.15-1.34-.05-.43-.09-.86-.13-1.3,0-.03,0-.07,0-.1-.03-.3-.06-.6-.08-.9-.06-.59-.11-1.17-.16-1.76.58-.27,1.16-.54,1.74-.81.04-.02.07-.03.1-.05.47-.22.93-.44,1.39-.66,1.38-.66,2.75-1.32,4.11-2,.48-.24.96-.48,1.45-.73.17-.08.34-.17.5-.26h.02c1.47.65,2.94,1.33,4.41,2.04-3.18,1.67-6.4,3.27-9.66,4.81.35,3.53.8,7.03,1.36,10.47Z"/>
    <path class="cls-2" d="M52.29,15.86c8.38,3.99,16.64,8.9,24.38,14.25-8.02-5.53-16.26-10.34-24.4-14.24-1.48-.71-2.95-1.39-4.41-2.03,1.48.64,2.96,1.32,4.43,2.02Z"/>
    <path class="cls-2" d="M85.25,38c.15-.15.31-.31.46-.46-.05.05-.11.1-.16.16-.1.1-.21.2-.31.3Z"/>
    <path class="cls-2" d="M89.04,34.34c-.41.38-.81.76-1.22,1.15-.03.03-.06.06-.09.09-.17.16-.35.33-.52.5-.12.11-.25.23-.37.36-.01.01-.03.03-.04.04-.06.06-.13.12-.19.19-.02.02-.04.04-.06.06-.08.07-.16.15-.23.23-.05.05-.11.11-.16.16-.39-.3-.77-.6-1.16-.9-.43-.33-.86-.66-1.3-.99-.34-.26-.69-.52-1.03-.77-.39-.29-.78-.58-1.17-.87-.39-.29-.78-.57-1.18-.86-.39-.29-.79-.57-1.18-.85-.37-.26-.74-.53-1.12-.79-.45-.32-.9-.63-1.36-.94,0,0,0,0-.01-.01-8.02-5.53-16.26-10.34-24.4-14.24-1.48-.71-2.95-1.39-4.41-2.03h-.01s0,0,0,0c-29.11-12.62-18.47,7.61-6.89,22.41h0c.04.24.09.47.14.71.07.35.14.71.21,1.06.05.23.09.47.14.71.05.28.11.55.17.82C9.76,1.73,25.62-1.58,52.55,11.37c1.41.68,2.81,1.37,4.2,2.09.2.1.41.21.61.31.4.21.8.41,1.19.62.4.21.79.42,1.19.63.4.21.79.43,1.19.64.72.39,1.45.79,2.17,1.2.29.16.58.33.87.49.64.36,1.29.73,1.92,1.11.25.15.51.3.76.45.43.25.87.51,1.3.77.39.23.77.46,1.15.7.39.23.77.47,1.15.71.37.23.74.46,1.1.69.01,0,.03.02.04.03.38.24.76.48,1.14.72.38.24.76.49,1.14.73.35.23.7.46,1.06.69.06.04.12.08.18.12.34.23.68.45,1.02.68.34.23.69.46,1.03.69,1.9,1.29,3.77,2.61,5.62,3.96.35.25.7.51,1.04.77.24.18.47.35.71.53.3.22.6.45.89.68.32.24.64.49.96.73.96.74,1.9,1.48,2.85,2.23Z"/>
    <path class="cls-2" d="M131.55,4.54c-1.69.91-3.36,1.83-5,2.77-19.74-4.91-37.62-3.48-52.03.06-1.29-.73-2.59-1.46-3.91-2.18-.37-.2-.74-.4-1.12-.61,16.32-4.79,37.95-7.27,62.06-.04Z"/>
    <path class="cls-2" d="M126.55,7.3c-9.37,5.31-18.05,11-26.07,17.27-.29-.22-.57-.44-.86-.66-.2-.15-.39-.3-.59-.45-.99-.76-1.99-1.51-3-2.25-.25-.19-.51-.37-.76-.56-.54-.39-1.08-.78-1.62-1.17-.33-.24-.67-.47-1-.71-.33-.24-.67-.47-1.01-.7-.34-.23-.67-.47-1.01-.7-.34-.23-.68-.46-1.02-.69-.31-.21-.62-.42-.93-.62-.4-.27-.81-.54-1.21-.8-.62-.41-1.24-.81-1.86-1.21-.39-.25-.79-.5-1.18-.75-.66-.42-1.33-.84-2-1.25-.04-.03-.08-.05-.12-.07-.36-.22-.71-.44-1.07-.66-1.79-1.09-3.61-2.17-5.45-3.23-.22-.13-.45-.26-.68-.39-.16-.09-.32-.18-.48-.27-.04-.02-.07-.04-.11-.06,14.41-3.54,32.3-4.97,52.03-.06Z"/>
    <path class="cls-2" d="M117.49,105.51l-.03.02-1.41,1.18c-2.21-1.46-4.58-3.1-7.11-4.93,1.8.87,8.55,3.73,8.55,3.73Z"/>
    <path class="cls-2" d="M83.47,105.51l.03.02,1.41,1.18c2.21-1.46,4.58-3.1,7.11-4.93-1.8.87-8.55,3.73-8.55,3.73Z"/>
  </g>
  <g>
    <path class="cls-1" d="M17.6,152.14c-2.71,0-4.89.8-6.53,2.39-1.64,1.59-2.46,3.72-2.46,6.38v20.96H0v-20.96c0-2.5.44-4.82,1.33-6.96.89-2.14,2.11-3.98,3.68-5.51,1.56-1.54,3.42-2.74,5.55-3.6,2.14-.86,4.48-1.29,7.04-1.29s4.9.43,7.04,1.29c2.14.86,3.99,2.06,5.55,3.6,1.56,1.54,2.78,3.38,3.64,5.51.86,2.14,1.29,4.46,1.29,6.96v20.96h-8.6v-20.96c0-2.66-.81-4.78-2.42-6.38-1.62-1.59-3.78-2.39-6.49-2.39Z"/>
    <path class="cls-1" d="M41.38,163.09c0-2.82.48-5.42,1.45-7.82.96-2.4,2.31-4.47,4.03-6.22,1.72-1.75,3.77-3.1,6.14-4.07,2.37-.96,4.97-1.45,7.78-1.45s5.41.48,7.78,1.45c2.37.97,4.42,2.32,6.14,4.07,1.72,1.75,3.06,3.82,4.03,6.22.96,2.4,1.45,5.01,1.45,7.82,0,.37-.01.72-.04,1.06-.03.34-.09.77-.2,1.29h-29.8c.47,2.66,1.63,4.76,3.48,6.3,1.85,1.54,4.24,2.31,7.16,2.31,1.98,0,3.74-.36,5.28-1.1,1.54-.73,2.78-1.8,3.72-3.21h9.39c-.63,1.98-1.51,3.77-2.66,5.36-1.15,1.59-2.52,2.95-4.11,4.07-1.59,1.12-3.36,1.98-5.32,2.58-1.96.6-4.06.9-6.3.9-2.82,0-5.41-.48-7.78-1.45-2.37-.96-4.42-2.31-6.14-4.03-1.72-1.72-3.06-3.78-4.03-6.18-.97-2.4-1.45-5.03-1.45-7.9ZM71.03,159.18c-.73-2.19-1.98-3.91-3.75-5.16-1.77-1.25-3.94-1.88-6.49-1.88s-4.8.63-6.57,1.88c-1.77,1.25-3,2.97-3.68,5.16h20.5Z"/>
    <path class="cls-1" d="M108.97,144.32h10.48l-13.22,18.15,14,19.4h-10.48l-9.15-13.85-9.15,13.85h-10.48l14-19.4-13.22-18.15h10.48l8.37,12.75,8.37-12.75Z"/>
    <path class="cls-1" d="M142.92,174.43c2.66,0,4.81-.81,6.45-2.43,1.64-1.62,2.46-3.75,2.46-6.41v-21.28h8.6v20.96c0,2.66-.42,5.06-1.25,7.2-.83,2.14-2.01,3.96-3.52,5.48-1.51,1.51-3.35,2.67-5.51,3.48-2.16.81-4.58,1.21-7.24,1.21s-5.07-.4-7.24-1.21c-2.16-.81-4.02-1.97-5.55-3.48-1.54-1.51-2.73-3.34-3.56-5.48-.83-2.14-1.25-4.54-1.25-7.2v-20.96h8.6v21.28c0,2.66.83,4.8,2.5,6.41,1.67,1.62,3.83,2.43,6.49,2.43Z"/>
    <path class="cls-1" d="M200.96,171.03c0,1.78-.4,3.38-1.19,4.82-.79,1.44-1.93,2.66-3.4,3.66-1.48,1-3.25,1.78-5.31,2.32-2.07.55-4.38.82-6.93.82-2.82,0-5.36-.3-7.63-.91-2.27-.6-4.19-1.46-5.78-2.58-1.58-1.11-2.8-2.47-3.63-4.08-.84-1.61-1.25-3.39-1.25-5.36h9.24c0,1.74.8,3.1,2.41,4.08,1.61.98,3.82,1.47,6.64,1.47,2.29,0,4.12-.36,5.48-1.08,1.36-.72,2.05-1.68,2.05-2.89s-.64-2.13-1.91-2.86c-1.28-.74-3.43-1.37-6.47-1.9-5.46-.98-9.45-2.43-11.98-4.34-2.53-1.91-3.8-4.34-3.8-7.28,0-1.7.38-3.25,1.16-4.65.77-1.4,1.85-2.6,3.24-3.6,1.39-1,3.06-1.78,5.02-2.32,1.96-.55,4.1-.82,6.44-.82s4.48.28,6.44.85c1.96.57,3.64,1.37,5.05,2.41,1.41,1.04,2.51,2.27,3.3,3.68.79,1.42,1.19,2.98,1.19,4.68h-9.24c0-1.21-.64-2.21-1.91-3-1.28-.79-2.9-1.19-4.89-1.19s-3.61.3-4.75.91c-1.15.6-1.72,1.44-1.72,2.49s.68,1.99,2.05,2.69c1.36.7,3.67,1.37,6.93,2.01,5.28,1.02,9.13,2.49,11.55,4.39,2.42,1.91,3.63,4.43,3.63,7.57Z"/>
  </g>
</svg>