<?xml version="1.0" encoding="UTF-8"?>
<svg id="Freelancer" xmlns="http://www.w3.org/2000/svg" viewBox="0 0 1437.71 1358">
  <defs>
    <style>
      .cls-1 {
        fill: #342021;
      }

      .cls-2 {
        fill: #f1a422;
      }

      .cls-3 {
        fill: #fff;
      }

      .cls-4 {
        fill: #f0a79e;
      }

      .cls-5 {
        fill: #4f4a44;
      }

      .cls-6 {
        fill: #36312c;
      }

      .cls-7 {
        fill: #362d26;
      }

      .cls-8 {
        fill: #f7d6c3;
      }

      .cls-9 {
        fill: #f1b33b;
      }

      .cls-10 {
        fill: #facd71;
      }

      .cls-11 {
        fill: #fabb54;
      }

      .cls-12 {
        fill: #fac96e;
      }

      .cls-13 {
        fill: #0f0400;
      }
    </style>
  </defs>
  <path class="cls-12" d="M1335.87,259.65c13.94,16.19,13.82,40.54-.25,56.61-7.48,8.53-17.44,13.36-27.73,14.52-8.61.97-16.59,5.01-22.71,11.13l-5.2,5.2,157.73,157.73-157.72,157.72-5.5-5.5c-6.12-6.12-10.18-14.08-11.14-22.68-1.05-9.41-5.18-18.55-12.4-25.77-17.66-17.66-46.81-16.86-63.43,2.43-13.94,16.19-13.83,40.53.25,56.61,7.48,8.53,17.44,13.37,27.73,14.52,8.61.96,16.59,5.01,22.72,11.14l5.5,5.5-157.73,157.73-157.73-157.73-5.5,5.5c-6.12,6.12-10.16,14.11-11.13,22.71-1.16,10.3-6,20.25-14.52,27.73-16.08,14.09-40.43,14.21-56.61.25-19.29-16.62-20.1-45.76-2.43-63.43,7.22-7.22,16.36-11.35,25.77-12.4,8.6-.95,16.56-5.01,22.68-11.12l5.5-5.5-157.73-157.73,157.73-157.73,5.5,5.5c6.12,6.12,10.17,14.09,11.12,22.68,1.05,9.42,5.19,18.55,12.4,25.77,17.66,17.66,46.82,16.86,63.43-2.43,13.94-16.19,13.82-40.55-.26-56.6-7.47-8.53-17.44-13.38-27.73-14.53-8.61-.98-16.58-5.01-22.71-11.14l-5.5-5.5,157.72-157.72,157.73,157.73,5.19-5.19c6.12-6.12,10.18-14.08,11.13-22.68,1.05-9.41,5.18-18.55,12.4-25.77,17.66-17.66,46.81-16.86,63.43,2.43Z"/>
  <path class="cls-3" d="M1106.68,173.81l4.38,4.38c-2.27,15.45-4.49,30.91-6.66,46.37-7.42,52.76-14.27,105.6-20.57,158.5-6.32,53.12-12.08,106.3-17.3,159.54-5.18,53.04-9.81,106.13-13.88,159.26-2.9,37.82-5.51,75.64-7.83,113.5l-4.72-4.72c2.67-42.96,5.7-85.89,9.11-128.79,4.23-53.32,9.02-106.6,14.37-159.82,5.35-53.23,11.26-106.39,17.72-159.49,6.45-52.91,13.44-105.75,20.99-158.51,1.44-10.08,2.9-20.15,4.39-30.21Z"/>
  <path class="cls-3" d="M1174.87,242.01l4.47,4.47c-2.69,22.43-5.37,44.84-8.05,67.27-5.57,46.46-11.13,92.91-16.69,139.36-5.56,46.46-11.12,92.91-16.68,139.36-5.59,46.64-11.17,93.28-16.76,139.92-4.03,33.7-8.07,67.41-12.11,101.12l-5.69,5.69c4.96-41.41,9.91-82.82,14.88-124.22,5.57-46.45,11.12-92.91,16.69-139.36,5.56-46.46,11.12-92.91,16.69-139.37,5.58-46.63,11.17-93.27,16.75-139.92,2.17-18.11,4.33-36.21,6.51-54.32Z"/>
  <path class="cls-10" d="M658.12,728.76c11.17,19.07,6.51,43.81-10.82,57.53-9.2,7.29-20.23,10.35-30.91,9.62-8.95-.63-17.81,2-25.19,7.09l-6.61,4.57,18.28,26.48,3.11,4.52,51.22,74.22,3.11,4.5,55.32,80.16-423.39,292.23-131.05-189.87-6.62,4.58c-7.37,5.09-12.97,12.45-15.57,21.03-3.09,10.26-9.88,19.48-19.95,25.5-18.98,11.34-43.76,6.91-57.64-10.3-16.53-20.49-11.92-50.3,9.35-64.98,8.69-5.99,18.75-8.49,28.53-7.81,8.93.63,17.78-2,25.15-7.09l6.62-4.56L0,866.27l5.63-3.88,4.42-3.06,54.49-37.61,4.19-2.88,121.14-83.61,4.58,6.62c5.08,7.37,7.72,16.22,7.09,25.15-.7,9.78,1.8,19.84,7.8,28.53,14.68,21.27,44.49,25.88,64.99,9.36,17.21-13.88,21.62-38.67,10.3-57.64-6.01-10.08-15.24-16.86-25.5-19.95-8.58-2.59-15.93-8.19-21.03-15.57l-4.56-6.62,189.86-131.05,131.05,189.87,6.63-4.57c7.36-5.08,12.97-12.43,15.55-20.99,2.83-9.38,8.73-17.91,17.42-23.9,21.26-14.68,50.76-8.42,64.07,14.3Z"/>
  <path class="cls-9" d="M779.35,946.76l1.72,5.21c-8.22-.99-16.47-1.63-24.74-1.94-46.49-1.75-93.54,6.97-135.78,26.64-21.72,10.11-41.9,23.44-64.38,31.95-11,4.17-22.59,7.02-34.4,7.29-12.59.28-24.87-2.67-36.42-7.55-11.96-5.06-22.97-12.1-33.53-19.6-11.63-8.27-22.95-17.02-33.98-26.09-23.03-18.93-44.75-39.45-64.98-61.35-33.14-35.87-62.26-75.44-86.64-117.74l4.83-1.59c27.98,48.4,62.24,93.11,101.63,132.79,20.73,20.88,42.86,40.37,66.22,58.24,20.73,15.85,43.37,32.9,69.81,37.05,24.44,3.83,47.98-5.88,69.26-16.85,21.04-10.85,41.35-22.54,63.69-30.64,43.37-15.7,90.47-20.93,136.28-15.99.47.05.94.11,1.41.16Z"/>
  <path class="cls-9" d="M809.36,1037.6l1.72,5.2c-17.39-1.8-34.98-1.85-52.38-.1-27.92,2.82-54.57,11.07-80.65,21.21-27.06,10.53-53.61,22.67-81.64,30.52-24.52,6.87-50.35,10.61-75.74,7.11-27.32-3.78-51.21-17.21-72.37-34.39-23.77-19.29-45.18-41.73-66.84-63.31-23.04-22.97-45.74-46.27-68.11-69.88-39.44-41.65-77.82-84.31-115.1-127.9l5.11-1.7c41.8,48.82,84.99,96.44,129.49,142.8,22.36,23.29,45.05,46.27,68.07,68.9,21.24,20.9,42.28,43.09,67.25,59.6,23.23,15.35,49.14,22.97,76.99,22.16,26.46-.76,52.28-7.99,76.99-17.08,27.97-10.3,55.05-22.99,83.52-31.97,24.77-7.81,50.46-12.11,76.45-12.35,9.1-.08,18.19.32,27.24,1.18Z"/>
  <rect class="cls-3" x="203.29" y="246.51" width="370.36" height="259.22" transform="translate(-131.06 226.23) rotate(-27.98)"/>
  <circle class="cls-5" cx="387.45" cy="255.48" r="29.64"/>
  <rect class="cls-12" x="221.62" y="342.31" width="163.96" height="78.46" transform="translate(-143.51 187.04) rotate(-27.98)"/>
  <rect class="cls-9" x="287.48" y="346.45" width="159.73" height="48.07" transform="translate(-154.38 368.26) rotate(-45)"/>
  <rect class="cls-6" x="278.22" y="461.83" width="141.5" height="8.69" transform="translate(-227.43 383.3) rotate(-45)"/>
  <rect class="cls-5" x="293.45" y="477.06" width="141.5" height="8.69" transform="translate(-233.73 398.53) rotate(-45)"/>
  <rect class="cls-5" x="308.68" y="492.29" width="141.5" height="8.69" transform="translate(-240.04 413.76) rotate(-45)"/>
  <path class="cls-5" d="M526.48,296.23l-42.54,42.54-56.86-56.86,42.54-42.54,56.86,56.86ZM483.94,335.93l39.71-39.71-54.03-54.03-39.71,39.71,54.03,54.03Z"/>
  <path class="cls-9" d="M692.2,1227.09l-16.6-14.45-10.59,12.16c-2.64-1.11-5.36-1.92-8.12-2.43l-1.14-16.39-21.95,1.52,1.18,16.99c-2.42.96-4.76,2.16-6.99,3.6l-12.94-11.26-14.45,16.6,12.94,11.26c-1.12,2.4-1.98,4.88-2.6,7.41l-16.99,1.17,1.52,21.95,16.39-1.13c.89,2.67,2.06,5.25,3.53,7.71l-10.59,12.16,16.6,14.45,10.03-11.52c2.82,1.45,5.77,2.54,8.79,3.27l1.03,14.9,21.95-1.52-.99-14.3c3.15-1.05,6.18-2.5,9.03-4.34l10.7,9.32,14.45-16.6-10.7-9.32c1.43-3.07,2.45-6.28,3.05-9.54l14.3-.99-1.52-21.95-14.9,1.03c-1.14-2.89-2.63-5.66-4.45-8.25l10.03-11.52ZM666.61,1276.29c-8.7,10-23.86,11.05-33.86,2.35-9.99-8.7-11.05-23.86-2.34-33.86,8.7-9.99,23.86-11.05,33.85-2.35,10,8.7,11.05,23.86,2.35,33.86Z"/>
  <path class="cls-9" d="M554.35,1203.1l-16.6-14.45-10.59,12.16c-2.64-1.11-5.36-1.92-8.12-2.43l-1.14-16.39-21.95,1.52,1.18,16.99c-2.42.96-4.76,2.16-6.99,3.6l-12.94-11.26-14.45,16.6,12.94,11.26c-1.12,2.4-1.98,4.88-2.6,7.41l-16.99,1.17,1.52,21.95,16.39-1.13c.89,2.67,2.06,5.25,3.53,7.71l-10.59,12.16,16.6,14.45,10.03-11.52c2.82,1.45,5.77,2.54,8.79,3.27l1.03,14.9,21.95-1.52-.99-14.3c3.15-1.05,6.18-2.5,9.03-4.34l10.7,9.32,14.45-16.6-10.7-9.32c1.43-3.07,2.45-6.28,3.05-9.54l14.3-.99-1.52-21.95-14.9,1.03c-1.14-2.89-2.63-5.66-4.45-8.25l10.03-11.52ZM528.76,1252.29c-8.7,10-23.86,11.05-33.86,2.35-9.99-8.7-11.05-23.86-2.34-33.86,8.7-9.99,23.86-11.05,33.85-2.35,10,8.7,11.05,23.86,2.35,33.86Z"/>
  <path class="cls-6" d="M403.07,1213.74l-22.51-36.61-26.83,16.5c-4.28-3.6-8.88-6.7-13.74-9.26l7.44-31.22-41.8-9.96-7.71,32.36c-5.07.37-10.12,1.24-15.11,2.62l-17.55-28.53-36.62,22.52,17.55,28.53c-3.48,3.83-6.54,7.94-9.16,12.3l-32.36-7.71-9.96,41.8,31.22,7.44c.1,5.49.78,11,2.07,16.44l-26.83,16.5,22.51,36.61,25.41-15.63c4.4,4.35,9.28,8.1,14.48,11.22l-6.77,28.39,41.8,9.96,6.49-27.24c6.48-.12,12.98-1.06,19.36-2.82l14.52,23.61,36.62-22.52-14.52-23.61c4.45-4.89,8.22-10.27,11.25-16l27.24,6.49,9.96-41.8-28.39-6.76c-.44-6.05-1.58-12.09-3.48-17.98l25.41-15.63ZM308.85,1261.55c-6.05,3.72-13.97,1.83-17.69-4.22-3.72-6.05-1.83-13.97,4.22-17.69,6.05-3.72,13.97-1.83,17.69,4.22s1.83,13.97-4.22,17.69Z"/>
  <path class="cls-7" d="M783.66,455l44.92,58.07-102.22,91.81s-165.5,168.54-189.57,214.1c-24.07,45.58-85.78,134.43-85.78,134.43l-33.26-21.56-1.68-1.08-131.12-84.99c49.48-68.19,162.22-334.09,162.22-334.09,0,0,332.7-57.45,336.48-56.7Z"/>
  <path class="cls-3" d="M532.47,735.03c-16.59,46.49-98.19,171.69-114.72,196.83l-1.68-1.08c16.48-25.08,98-150.14,114.52-196.43.19-.52.76-.78,1.28-.6s.79.76.6,1.28Z"/>
  <path class="cls-4" d="M648.06,394.26c-4.79-3.52-14.79-7.13-14.79-7.13,0,0-97.29-3.87-136.61-20.67,0,0-40.84-53.27-55.44-31.93,0,0-14.2-1.43-13.95,10.08,0,0-9.5,1.61-8.24,9.58l-41.82.25c-4.8.02-6.12,6.62-1.69,8.48,16.96,7.13,39.75,16.29,45.57,16.6,0,0-6.17,17.77-3.27,22.18,2.05,3.13,9.6,10.98,13.82,15.31,2.01,2.05,4.7,3.27,7.57,3.39,7.67.3,23.67-.74,39.08-12.14l67.93,27.6s69.69-9.45,70.31-10.08,36.3-27.98,31.51-31.51ZM461.47,391.75c-.46,3.57-23.11,4.62-23.11,4.62l.59-9.92s22.98,1.73,22.52,5.3Z"/>
  <path class="cls-8" d="M652.6,485.25c75.36-28.98,67.55-54.44,67.55-54.44l-89.98-39.07s-28.98,23.44-65.03,29.24c-36.04,5.8-77.12,43.35-77.63,59.48-.5,16.13,55.7,19.91,84.18,19.66,28.48-.25,80.9-14.87,80.9-14.87Z"/>
  <path d="M962.72,457.41s8.36,23.82,11.75,57.49c.1.99.19,1.99.28,3,3.21,35.68.61,81.63-22.9,122.04-.51.89-1.03,1.78-1.57,2.66-6.65,10.94-14.88,21.44-24.99,31.18-84.68,81.66-248,50.41-248,50.41,0,0,53.94,93.25,68.56,134.08,0,0-29.09,18.51-65.99,38.23-.88.47-1.77.95-2.67,1.42-43.2,22.92-96.21,46.91-125.91,45.04,0,0-204.66-377.05-123.5-442.08,81.15-65.02,310-8.56,355.37-15.62l19.73-3.05,3.08-.48,156.77-24.31Z"/>
  <path class="cls-3" d="M909.08,480.33c-.03.21-2.38,21.33-11.43,46.88-8.37,23.65-24.36,56.05-52.98,76.23-27.38,19.3-61.4,24.28-101.11,14.76-66.28-15.88-104.27-41.11-132.01-59.53-18.01-11.96-30.67-20.36-43.02-20.96-10.24-.49-20.25,4.37-32.92,17.03-.06.06-.12.13-.18.2-24.53,24.61-6.62,92.52,51.78,196.34,36.56,65,78.67,125.53,92.65,145.23-.88.47-1.77.95-2.67,1.42-14.23-20.06-56.15-80.39-92.57-145.15-26.13-46.46-44.39-86.09-54.24-117.78-12.45-40.07-11.47-67.71,2.93-82.17.06-.06.11-.13.17-.18,13.46-13.46,24.47-18.39,35.49-17.77,13.3.76,26.61,9.6,44.24,21.31,27.55,18.3,65.28,43.36,131.06,59.11,38.83,9.3,72.02,4.49,98.67-14.28,18.98-13.38,32.41-32.36,41.87-51.32-10.25-3.28-61.38-21.62-81.94-67.47-.03-.07-.06-.13-.09-.21l2.74-1.22c.14.31.28.64.43.94,20.6,44.91,71.52,62.52,80.19,65.22,16.11-33.64,19.89-66.42,19.95-66.94l2.98.33Z"/>
  <path class="cls-2" d="M679.56,196.17l-.26-3.28,47.76-46,13.49,1.89s204.64,84.2,222.16,308.63c0,0-89.34,58.09-179.57,27.84l-34.53-114.17-69.06-174.91Z"/>
  <path d="M570.33,87.44s-32.95,4.42-27.64-37.69c5.31-42.11,78.4-71.34,136.12-29.25,57.72,42.09,55.45,81.66,35.03,105.1,0,0-4.68,24.34-5.87,24.01s-35.34.41-39.06,1.18c-3.72.77-28.26,9.57-39.68-8.94-11.42-18.52-58.9-54.4-58.9-54.4Z"/>
  <path class="cls-4" d="M608.68,57.23c.38.64-1.13,5.8-1.32,7.12-.19,1.32-9.64,8.76-9.64,8.76l-8.38-.95-14.31-15.26c3.19-1.99,6.11-5.06,6.7-9.77l20.22,3.7s6.36,5.77,6.74,6.4Z"/>
  <path class="cls-2" d="M684.77,94.54c.04,1.4,0,2.72-.12,3.97-.03.35-.07.71-.12,1.04-.56,4.24-2,7.59-3.8,10.23-.2.28-.39.56-.59.82-2.15,2.87-4.7,4.82-6.84,6.1l-40.52-20.42-43.44-24.12s2.76-.95,5.71-4.02c.23-.23.47-.49.71-.76,1.9-2.19,3.79-5.29,5-9.62.09-.32.18-.64.26-.98.43-1.77.76-3.75.93-5.93l82.83,43.71Z"/>
  <path class="cls-13" d="M701.24,118.03c-7.06,11.09-23.07,1.13-23.07,1.13l-1.32-.66c3.92-2.65,11.62-9.35,12.59-21.48l1.84.98s18.15,7.16,9.96,20.04Z"/>
  <path class="cls-3" d="M689.45,97.02c-.96,12.13-8.66,18.83-12.59,21.48l-3.57-1.8c4.89-2.91,11.89-9.33,11.48-22.15l4.68,2.47Z"/>
  <path class="cls-1" d="M684.65,98.51c-.03.35-.07.71-.12,1.04l-83.78-41.8c.09-.32.18-.64.26-.98l83.64,41.75Z"/>
  <path class="cls-1" d="M680.73,109.78c-.2.28-.39.56-.59.82l-85.09-42.47c.23-.23.47-.49.71-.76l84.98,42.41Z"/>
  <path class="cls-13" d="M581.72,47.13c-.59,4.7-3.51,7.78-6.7,9.77l-8.51-9.06c-1.26-1.34-.08-3.51,1.73-3.17l13.47,2.47Z"/>
  <path class="cls-8" d="M713.84,125.6l26.71,23.18c-13.36,22.95-61.25,44.11-61.25,44.11l-9.54-9.23-10.95-10.6c-63.52,34.61-83.85-31.42-83.85-31.42l-22.85-10.08s11.68-9.4,11.92-20c.59-25.46,11.26-36.13,11.26-36.13,20.33-4.53,57.47,20.84,57.47,20.84,0,0,12.51-40.24,38.47-19.83,25.97,20.41-9.57,43.85-9.57,43.85l2.78,13.36c36.04,13.87,49.4-8.06,49.4-8.06Z"/>
  <ellipse class="cls-13" cx="591.62" cy="104.22" rx="3.74" ry="6.42" transform="translate(-7.58 61.38) rotate(-5.9)"/>
  <path class="cls-4" d="M612.35,126.24c-1.08-.61-2.87-.3-3.41.94-2.99,6.84-8.8,12.14-16,14.24-3.09.9-1.83,5.74,1.27,4.84,8.39-2.44,15.57-8.57,19.08-16.6.54-1.24.32-2.69-.94-3.41Z"/>
  <path d="M604.38,87.28c-6.16-4.29-14.4-5.47-21.53-3.15-1.24.4-2.2,1.71-1.78,3.05.38,1.23,1.73,2.22,3.05,1.78.8-.26,1.61-.48,2.43-.65.39-.08.78-.15,1.18-.21.05,0,.07-.01.07-.01.03,0,.07,0,.12-.01.24-.02.48-.05.72-.07.8-.06,1.6-.08,2.39-.05.4.01.8.04,1.2.07.2.02.41.04.61.06.06,0,.22.03.3.04,1.62.25,3.2.68,4.74,1.26.05.02.08.03.11.04,0,0,.02,0,.07.03.18.08.37.16.55.24.36.17.72.35,1.07.53.78.41,1.52.88,2.24,1.38,1.08.75,2.83.19,3.41-.94.66-1.3.21-2.61-.94-3.41Z"/>
  <path class="cls-4" d="M659,87.49c-6.44,4.74-11.21,11.19-13.77,18.77-.43,1.28.54,2.73,1.78,3.05,1.38.36,2.62-.5,3.05-1.78,2.09-6.2,6.13-11.81,11.4-15.69,1.09-.8,1.66-2.14.94-3.41-.61-1.07-2.32-1.75-3.41-.94Z"/>
  <path class="cls-4" d="M699.4,141.04s-.16,27.13-29.63,42.62l-10.95-10.6s23.88-10.27,40.59-32.02Z"/>
  <path class="cls-11" d="M679.56,196.17l-53.79,187.41c-.87,3.03.09,6.29,2.46,8.36,15.29,13.37,72.31,60,105.26,42.65,0,0,60.4-147.6,44.86-183.14-15.54-35.54-98.8-55.28-98.8-55.28Z"/>
  <path class="cls-3" d="M592.3,604.73c-1.01,1.01-.89,2.52,0,3.54,12.32,14.04,24,28.63,34.97,43.76,11,15.17,21.3,30.86,30.85,46.98,5.37,9.06,10.49,18.26,15.38,27.58,1.5,2.86,5.84.38,4.35-2.47-8.74-16.67-18.25-32.93-28.5-48.72-10.33-15.91-21.4-31.33-33.15-46.21-6.57-8.33-13.37-16.48-20.36-24.45-.89-1.02-2.62-.91-3.54,0Z"/>
  <path class="cls-3" d="M974.48,514.9c.1.99.19,1.99.28,3-5.64.47-16.96.67-29.24-3.16-1.06,10.62-6.43,61.82-13.76,82.92-5.86,16.85,11.59,34.8,20.1,42.28-.51.89-1.03,1.78-1.57,2.66-8.83-7.62-27.99-26.88-21.36-45.93,7.92-22.75,13.73-83.47,13.78-84.08l.18-1.9,1.8.62c12.29,4.21,24.09,4.04,29.78,3.59Z"/>
  <path class="cls-8" d="M746.1,938.67l-7.73-17.47s-121.4,30.16-122.07,31.84c-.67,1.68,25.29,70.15,25.29,70.15,0,0,67.38-27.72,68.22-28.4s15.88-17.05,15.88-17.05c0,0,18.4-26.8,18.65-27.72s1.76-11.34,1.76-11.34Z"/>
  <path class="cls-3" d="M559.25,982.98c-4.93-7.02-12.53-18.63-16.24-28.38-2.14-5.62.66-11.98,6.26-14.15,33.32-12.95,149.54-58.67,201.81-86.7,5.16-2.77,11.59-1.01,14.59,4.03,6.1,10.23,13.76,27.32,6.64,40.06-10.52,18.85-111.6,95.92-200.53,92.05-5.02-.22-9.64-2.8-12.53-6.91Z"/>
  <path class="cls-2" d="M745.68,934.72c11.72,21.84,20.91,44.26,27.87,64.13-55.08,16.55-66.99,60.54-68.64,88.98l-194.26,74.78-6.6-13.82,126.02-133.4c71.57-23.19,115.6-80.66,115.6-80.66Z"/>
  <path d="M773.56,998.85c12.82,36.58,18.16,64.57,18.16,64.57-27.32,13.86-57.16,27.14-86.82,39.34-1.38-24.5,2.46-84.03,68.66-103.92Z"/>
  <path class="cls-3" d="M704.92,1087.83c-.34,5.73-.25,10.83-.02,14.94-96.19,39.59-190.42,67.86-190.42,67.86l-3.83-8.03,194.26-74.78Z"/>
  <path class="cls-3" d="M541.72,1100.11c-1.09-.8-2.8-.14-3.41.94-.73,1.28-.16,2.61.94,3.41,5.73,4.17,11,8.96,15.78,14.18.91,1,2.61.92,3.54,0,.99-.99.92-2.54,0-3.54-5.09-5.57-10.75-10.55-16.85-15Z"/>
  <path class="cls-3" d="M559.11,1082.72c-1.09-.8-2.8-.14-3.41.94-.73,1.28-.16,2.61.94,3.41,5.73,4.17,11,8.96,15.78,14.18.91,1,2.61.92,3.54,0,.99-.99.92-2.54,0-3.54-5.09-5.57-10.75-10.55-16.85-15Z"/>
  <path class="cls-3" d="M576.5,1065.33c-1.09-.8-2.8-.14-3.41.94-.73,1.28-.16,2.61.94,3.41,5.73,4.17,11,8.96,15.78,14.18.91,1,2.61.92,3.54,0,.99-.99.92-2.54,0-3.54-5.09-5.57-10.75-10.55-16.85-15Z"/>
  <path class="cls-3" d="M593.89,1047.95c-1.09-.8-2.8-.14-3.41.94-.73,1.28-.16,2.61.94,3.41,5.73,4.17,11,8.96,15.78,14.18.91,1,2.61.92,3.54,0,.99-.99.92-2.54,0-3.54-5.09-5.57-10.75-10.55-16.85-15Z"/>
  <path d="M610.93,1040.24l-18.99-42.51s12.33-18.43,25.15-12.07c12.82,6.36,28.75,28.75,28.75,28.75,0,0-24.32,24.66-34.91,25.84Z"/>
  <path class="cls-8" d="M390.6,993.77l10.57-15.92s-90.73-86.11-92.51-85.78c-1.78.34-45.53,59.05-45.53,59.05,0,0,59.62,41.89,60.63,42.23s22.92,4.21,22.92,4.21c0,0,32.49,1.09,33.4.81.91-.28,10.51-4.61,10.51-4.61Z"/>
  <path class="cls-3" d="M252.74,860.09c3.27-7.94,8.97-20.59,15.19-28.95,3.59-4.82,10.45-5.89,15.3-2.33,28.84,21.13,129.9,94.5,181.64,123.49,5.11,2.86,7.08,9.23,4.45,14.46-5.35,10.65-15.63,26.29-30.2,27.15-21.55,1.27-140.9-42.48-185.47-119.53-2.52-4.35-2.83-9.63-.91-14.28Z"/>
  <path class="cls-2" d="M393.71,991.29c-12.1,21.63-26.06,41.43-39.07,58-43.58-37.53-87.07-23.91-111.93-10l-167.53-123.54,8.1-13,180.25,34.47c58.05,47.86,130.18,54.07,130.18,54.07Z"/>
  <path d="M354.64,1049.29c-23.94,30.48-44.67,50.04-44.67,50.04-26.38-15.58-53.63-33.59-79.87-52.02,19.91-14.34,72.16-43.13,124.53,1.98Z"/>
  <path class="cls-3" d="M242.71,1039.29c-5.01,2.79-9.27,5.61-12.61,8.02-85.12-59.79-159.64-124.02-159.64-124.02l4.71-7.54,167.53,123.54Z"/>
  <path class="cls-3" d="M144.57,908.32c.08-1.35-1.39-2.43-2.63-2.37-1.47.07-2.28,1.27-2.37,2.63-.44,7.07-1.63,14.09-3.47,20.93-.35,1.31.62,2.7,1.9,2.98,1.37.3,2.63-.59,2.98-1.9,1.95-7.29,3.11-14.74,3.58-22.27Z"/>
  <path class="cls-3" d="M168.58,913.63c.08-1.35-1.39-2.43-2.63-2.37-1.47.07-2.28,1.27-2.37,2.63-.44,7.07-1.63,14.09-3.47,20.93-.35,1.31.62,2.7,1.9,2.98,1.37.3,2.63-.59,2.98-1.9,1.95-7.29,3.11-14.74,3.58-22.27Z"/>
  <path class="cls-3" d="M192.6,918.93c.08-1.35-1.39-2.43-2.63-2.37-1.47.07-2.28,1.27-2.37,2.63-.44,7.07-1.63,14.09-3.47,20.93-.35,1.31.62,2.7,1.9,2.98,1.37.3,2.63-.59,2.98-1.9,1.95-7.29,3.11-14.74,3.58-22.27Z"/>
  <path class="cls-3" d="M216.61,924.24c.08-1.35-1.39-2.43-2.63-2.37-1.47.07-2.28,1.27-2.37,2.63-.44,7.07-1.63,14.09-3.47,20.93-.35,1.31.62,2.7,1.9,2.98,1.37.3,2.63-.59,2.98-1.9,1.95-7.29,3.11-14.74,3.58-22.27Z"/>
  <path d="M232.27,934.45l25.62-38.87s22.17.48,23.7,14.71-8.77,39.7-8.77,39.7c0,0-33.87-7.24-40.56-15.53Z"/>
  <path class="cls-13" d="M441.92,387.35c-.26.26-.65.36-1.02.25l-28.48-9.22c-.53-.17-.81-.73-.64-1.26.17-.53.73-.81,1.26-.64l28.48,9.22c.53.17.81.73.64,1.26-.05.16-.14.29-.24.4Z"/>
  <path class="cls-13" d="M442.01,358.51c-.25.25-.62.36-.98.26-8.88-2.47-21.95-3.57-22.08-3.58-.55-.05-.96-.53-.91-1.08.05-.55.53-.96,1.08-.91.13.01,13.39,1.13,22.45,3.65.53.15.84.7.7,1.23-.05.17-.14.32-.26.44Z"/>
  <path class="cls-13" d="M447.05,349.61c-.29.29-.75.38-1.15.19-11.64-5.7-18.33-4.23-18.4-4.21-.54.13-1.07-.21-1.2-.74-.13-.54.2-1.07.73-1.2.3-.07,7.38-1.69,19.75,4.36.5.24.7.84.46,1.34-.05.1-.11.19-.19.27Z"/>
  <path class="cls-13" d="M453.18,340.28c-.33.33-.85.39-1.25.13-7.59-4.93-10.62-4.88-10.65-4.88-.54.02-1.01-.4-1.04-.94-.03-.54.36-1.01.91-1.05.35-.03,3.68-.13,11.88,5.2.46.3.59.92.29,1.38-.04.06-.08.11-.13.16Z"/>
</svg>