<?xml version="1.0" encoding="UTF-8"?>
<svg xmlns="http://www.w3.org/2000/svg" version="1.1" viewBox="0 0 2340 1560">
  <!-- Generator: Adobe Illustrator 29.7.1, SVG Export Plug-In . SVG Version: 2.1.1 Build 8)  -->
  <defs>
    <style>
      .st0 {
        fill: #342021;
      }

      .st1 {
        fill: #f1a422;
      }

      .st2 {
        fill: #fff;
      }

      .st3 {
        fill: #fae7c2;
      }

      .st4 {
        mix-blend-mode: multiply;
        opacity: .23;
      }

      .st4, .st5 {
        fill: #4f4a44;
      }

      .st6 {
        fill: #f0a79e;
      }

      .st7 {
        isolation: isolate;
      }

      .st8 {
        fill: #36312c;
      }

      .st9 {
        fill: #362d26;
      }

      .st10 {
        fill: #f7d6c3;
      }

      .st11 {
        fill: #f1b33b;
      }

      .st12 {
        fill: #facd71;
      }

      .st13 {
        fill: #fabb54;
      }

      .st14 {
        fill: #4f453c;
      }

      .st15 {
        fill: #fac96e;
      }

      .st16 {
        fill: #0f0400;
      }
    </style>
  </defs>
  <g class="st7">
    <g id="Freelancer">
      <path class="st3" d="M371.33,1059.49c5.47,128.18,72.83,257.28,186.58,316.62,68.24,35.6,147.32,44.48,224.29,44.31,107.15-.24,213.53-16.75,319.41-33.22,124.47-19.36,248.94-38.73,373.41-58.09,134.07-20.86,274.39-44.3,381.95-127,71.54-55,125.83-151.06,91.23-234.4-39.6-95.38-168.25-119.8-227.2-204.6-40.3-57.97-41.11-135.05-26.89-204.21s41.71-135.23,53.31-204.88,4.65-147.48-41.95-200.53c-58.81-66.95-158.83-73.9-247.92-76.01-88.01-2.08-177.26-4.03-262.72,17.08-85.47,21.11-168.18,68.43-212.79,144.33-33.85,57.58-43.64,127.18-79.7,183.39-72.76,113.4-220.56,143.4-334.51,197.17-88.59,41.8-109.88,113.49-146.29,198.6-32.88,76.87-53.45,157.29-50.22,241.44Z"/>
      <path class="st15" d="M1954.46,1141.64c-1.59,21.31-18.89,38.44-40.21,39.85-11.32.74-21.78-2.88-29.88-9.34-6.77-5.4-15.27-8.19-23.93-8.19h-7.35v223.07h-223.05v-7.78c0-8.66,2.76-17.15,8.16-23.91,5.91-7.4,9.45-16.78,9.45-26.99,0-24.98-21.18-45.02-46.57-43.13-21.3,1.59-38.44,18.88-39.85,40.21-.74,11.32,2.88,21.79,9.34,29.88,5.41,6.77,8.19,15.27,8.19,23.94v7.78h-223.06v-223.07h-7.78c-8.66,0-17.16,2.79-23.93,8.19-8.1,6.46-18.56,10.08-29.88,9.34-21.33-1.41-38.63-18.54-40.21-39.85-1.89-25.39,18.14-46.57,43.13-46.57,10.21,0,19.59,3.54,26.99,9.45,6.75,5.41,15.25,8.17,23.9,8.17h7.78v-223.06h223.06v7.78c0,8.65-2.77,17.15-8.17,23.9-5.92,7.4-9.45,16.79-9.45,26.99,0,24.98,21.18,45.03,46.57,43.14,21.31-1.59,38.44-18.9,39.84-40.21.75-11.32-2.87-21.79-9.33-29.88-5.4-6.78-8.18-15.27-8.18-23.94v-7.78h223.05v223.06h7.34c8.66,0,17.15-2.76,23.91-8.17,7.4-5.91,16.78-9.45,26.99-9.45,24.98,0,45.02,21.18,43.13,46.57Z"/>
      <path class="st2" d="M1853.09,918.88v6.19c-12.53,9.32-25.03,18.68-37.5,28.08-42.55,32.06-84.76,64.58-126.62,97.53-42.03,33.09-83.71,66.62-125.04,100.58-41.17,33.84-81.98,68.11-122.43,102.8-28.79,24.69-57.38,49.59-85.8,74.72v-6.67c32.26-28.49,64.76-56.7,97.51-84.63,40.69-34.71,81.75-69,123.17-102.85,41.42-33.86,83.19-67.27,125.31-100.25,41.97-32.85,84.28-65.27,126.93-97.24,8.14-6.11,16.3-12.2,24.47-18.26Z"/>
      <path class="st2" d="M1853.09,1015.32v6.32c-17.76,13.96-35.51,27.91-53.26,41.87-36.79,28.92-73.57,57.83-110.35,86.74-36.78,28.92-73.56,57.83-110.34,86.75-36.93,29.03-73.86,58.06-110.79,87.09-26.68,20.98-53.37,41.96-80.06,62.94h-8.04c32.79-25.77,65.57-51.55,98.36-77.32,36.78-28.91,73.56-57.83,110.34-86.74,36.78-28.92,73.56-57.83,110.35-86.75,36.92-29.03,73.85-58.06,110.78-87.09,14.34-11.27,28.67-22.54,43.01-33.81Z"/>
      <path class="st12" d="M1605.1,726.29c-1.5,8.83-.14,17.98,4.2,25.82,5.19,9.38,7.07,20.67,4.35,32.09-5.13,21.49-25.59,36.17-47.6,34.1-26.21-2.47-44.34-26.57-40.02-52.05,1.77-10.41,7-19.36,14.32-25.88,6.68-5.95,10.96-14.14,12.46-22.96l1.35-7.93-227.45-38.63,25.86-152.29.83-4.9,11.93-70.26,7.93,1.34c8.83,1.5,17.01,5.79,22.97,12.47,6.52,7.32,15.47,12.55,25.88,14.32,25.47,4.32,49.58-13.81,52.05-40.03,1.94-20.57-10.77-39.8-29.99-46.39-1.34-.47-2.71-.87-4.11-1.2-1.31-.31-2.61-.56-3.91-.75-10.07-1.5-19.88.5-28.18,5.1-7.84,4.33-16.98,5.7-25.83,4.19l-7.93-1.34,38.63-227.45,202.96,34.47,5.03.85,19.46,3.31,1.34-7.93c1.5-8.83.16-17.97-4.18-25.79-1.71-3.09-3.07-6.38-4.01-9.83h0c-1.57-5.71-2.03-11.8-1.16-18,.01-.01.01-.03.01-.05.05-.42.11-.86.19-1.28.16-.94.35-1.86.56-2.78.01-.01.02-.03.01-.04,1.43-6.05,4.05-11.57,7.57-16.31,10.35-13.96,28.46-21.33,46.82-16.79,21.45,5.31,35.93,25.92,33.67,47.9-1.2,11.68-6.7,21.72-14.69,28.86-6.69,5.97-11,14.15-12.5,22.99l-1.34,7.93,49.51,8.41,4.98.84,172.96,29.37-86.13,507.19-227.45-38.62-1.35,7.93Z"/>
      <path class="st11" d="M1620.83,198.98c-6.75,17.65-14.97,34.74-24.58,51-15.19,25.72-33.94,49.32-55.48,70.01-21.08,20.23-44.8,37.75-70.32,51.95-8.57,4.77-17.33,9.16-26.28,13.17-1.34-.47-2.71-.87-4.11-1.2-1.31-.31-2.61-.56-3.91-.75,14.1-5.98,27.78-12.95,40.93-20.82,24.65-14.74,47.38-32.61,67.47-53.13,20.8-21.24,38.59-45.28,52.84-71.36,7.01-12.82,13.15-26.1,18.41-39.72l5.03.85Z"/>
      <path class="st11" d="M1747.07,220.42c-3.91,12.39-8.19,24.68-12.88,36.81-16.68,43.16-38.6,84.42-66.94,121.09-27.08,35.03-59.95,65.15-97.83,88.16-36.65,22.26-77.34,37.95-119.4,46.25-32.07,6.32-64.91,8.36-97.45,5.83l.83-4.9c37.3,2.84,75.02-.42,111.36-9.3,41.26-10.08,80.74-27.34,115.99-51.06,36.61-24.64,67.85-56.44,93.23-92.47,26.78-38.01,47.15-80.22,62.41-124.06,1.98-5.71,3.88-11.44,5.7-17.19l4.98.84Z"/>
      <path class="st11" d="M890.6,755.02l-184.74,23.95-5.62.73-72.04,9.34-5.66.73-234.83,30.44-29.23-225.52-7.86,1.02c-8.76,1.14-16.99,5.06-23.13,11.42-7.34,7.59-17.44,12.62-28.99,13.35-21.74,1.38-41.47-13.68-45.87-35.02-5.24-25.42,12.24-49.46,37.51-52.74,10.32-1.33,20.26,1.01,28.52,6.03,7.54,4.57,16.49,6.25,25.24,5.12l7.86-1.02-29.23-225.52,225.52-29.23,1.02,7.86c1.13,8.75-.55,17.7-5.12,25.24-5.02,8.26-7.36,18.21-6.03,28.52,3.28,25.26,27.32,42.75,52.74,37.51,21.34-4.4,36.39-24.14,35.02-45.87-.73-11.55-5.76-21.66-13.36-28.99-6.35-6.14-10.27-14.36-11.41-23.13l-1.02-7.86,75.03-9.73,4.96-.64,105.7-13.71,4.97-.64,34.86-4.52,65.19,502.88Z"/>
      <path class="st2" d="M684.17,506.13c-2.03,41.88-6.13,83.69-13.04,125.06-6.76,40.45-16.21,80.49-29.04,119.46-4.25,12.93-8.88,25.74-13.89,38.39l-5.66.73c7.41-18.49,13.98-37.33,19.77-56.39,11.82-38.91,20.41-78.75,26.44-118.95,6.3-41.96,9.71-84.31,11.19-126.7,1.55-44.65.94-89.35-.79-133.99-1.07-27.38-2.55-54.74-4.23-82.09l4.96-.64c2.05,33.49,3.83,66.99,4.9,100.52,1.42,44.85,1.57,89.77-.61,134.6Z"/>
      <path class="st2" d="M785.38,444.44c-4.94,48.99-12.64,97.71-23.1,145.83-10.45,48.12-23.65,95.63-39.54,142.23-5.33,15.6-10.95,31.09-16.88,46.47l-5.62.73c8.6-22.18,16.56-44.6,23.89-67.22,14.97-46.21,27.31-93.27,36.98-140.88,9.74-48.04,16.76-96.63,20.98-145.46,4.21-48.62,5.66-97.47,4.32-146.25-.21-7.53-.48-15.06-.83-22.59l4.97-.64c.62,13.42,1.02,26.85,1.21,40.29.7,49.23-1.44,98.5-6.38,147.49Z"/>
      <path class="st12" d="M1121.55,1304.37c-11.37,18.95-35.32,26.73-55.67,18.11-10.81-4.57-18.79-12.78-23.27-22.51-3.74-8.15-10.3-14.67-18.31-18.7l-7.18-3.61-14.46,28.74-2.47,4.9-40.54,80.55-2.46,4.89-43.79,86.99-459.53-231.28,103.72-206.08-7.19-3.61c-8-4.03-17.15-5.41-25.92-3.57-10.48,2.21-21.83.68-31.94-5.27-19.05-11.21-27.06-35.08-18.62-55.51,10.05-24.33,38.42-34.59,61.5-22.97,9.43,4.75,16.45,12.38,20.54,21.28,3.73,8.14,10.29,14.64,18.29,18.66l7.18,3.62,103.72-206.08,6.11,3.08,4.81,2.41,59.14,29.77,4.54,2.29,131.48,66.17-3.61,7.19c-4.03,7.99-10.53,14.56-18.66,18.29-8.91,4.08-16.54,11.1-21.29,20.53-11.62,23.08-1.36,51.45,22.97,61.51,20.43,8.44,44.3.42,55.51-18.62,5.96-10.11,7.48-21.46,5.27-31.95-1.84-8.77-.46-17.91,3.57-25.92l3.62-7.18,206.07,103.71-103.72,206.08,7.19,3.62c7.99,4.02,17.13,5.42,25.88,3.57,9.59-2.02,19.9-.93,29.33,3.82,23.08,11.61,31.74,40.5,18.19,63.08Z"/>
      <path class="st11" d="M1002.66,1306.4l-2.47,4.9c-5.11-6.51-10.49-12.8-16.12-18.87-31.63-34.11-71.07-61.21-114.85-77.17-22.51-8.21-46.2-13.05-68.11-22.93-10.73-4.83-20.94-11.01-29.48-19.17-9.1-8.7-15.7-19.47-20.41-31.09-4.88-12.04-7.69-24.8-9.85-37.57-2.38-14.07-4.19-28.26-5.58-42.47-2.9-29.67-3.75-59.54-2.57-89.33,1.93-48.8,9.32-97.37,21.99-144.52l4.54,2.29c-14.44,54.01-21.83,109.85-22.04,165.76-.11,29.42,1.76,58.85,5.64,88.01,3.45,25.86,7.4,53.93,23.17,75.56,14.57,19.99,38.09,29.77,60.89,37.06,22.55,7.21,45.18,13.3,66.7,23.37,41.77,19.56,78.77,49.17,107.67,85.06.3.37.59.74.88,1.11Z"/>
      <path class="st11" d="M959.65,1391.85l-2.46,4.89c-11.03-13.57-23.43-26.04-36.97-37.11-21.74-17.75-46.42-30.76-72.02-42.03-26.58-11.69-53.94-21.88-79.31-36.15-22.19-12.48-43.1-28.1-58.58-48.53-16.64-21.99-24.04-48.38-26.86-75.49-3.17-30.45-2.44-61.46-2.49-92.03-.05-32.53.37-65.06,1.25-97.57,1.56-57.34,4.59-114.64,9.05-171.83l4.81,2.41c-4.96,64.08-8.1,128.29-9.41,192.54-.66,32.28-.86,64.57-.59,96.85.24,29.8-.57,60.37,5.41,89.7,5.57,27.28,18.51,50.99,38.77,70.11,19.25,18.17,42.62,31.32,66.52,42.36,27.06,12.5,55.18,22.67,81.66,36.45,23.04,11.99,44.24,27.12,62.79,45.33,6.49,6.38,12.64,13.09,18.43,20.1Z"/>
      <rect class="st2" x="929.57" y="475.17" width="370.36" height="259.22"/>
      <circle class="st5" cx="1214.36" cy="540.47" r="29.64"/>
      <rect class="st15" x="955.28" y="530.52" width="163.96" height="78.46"/>
      <rect class="st11" x="1038.95" y="583.54" width="159.73" height="48.07"/>
      <rect class="st8" x="967.4" y="657.9" width="141.5" height="8.69"/>
      <rect class="st5" x="967.4" y="679.44" width="141.5" height="8.69"/>
      <rect class="st5" x="967.4" y="700.98" width="141.5" height="8.69"/>
      <path class="st5" d="M1283.85,667.59h-60.16v-80.42h60.16v80.42ZM1225.69,665.59h56.16v-76.42h-56.16v76.42Z"/>
      <path class="st4" d="M1606.42,600.04c-11.05-70.57-83.41-101.58-116.94-75.56-28.54,22.15-13.65,40.06-8.58,44.9-5.6,2.52-12.54,6.76-20.03,13.91-7.66,7.32-22.57,5.71-22.57,5.71l9.03,23.28s-32.32,61.07,37.07,81.51l.25,15.24.22,13.27-2.14,2.5-170.56,94.48c-.95.53-1.76,1.24-2.42,2.06-15.91-17.77-63.57-72.56-76.77-105.46,0,0,8.52-64.46-15.46-61.95-.27-.36-.46-.54-.53-.59-.39-.33-.93-.29-1.3.04-2.13-2.23-9.11-8.52-15.6-2.73-.11-.08-.19-.13-.22-.14-.47-.29-1.08-.14-1.37.33-2.04-1.15-7.34-3.48-11.13.72-.37-.3-.89-.32-1.27,0-.02.02-.03.05-.06.07l-29.05-28.7c-3.41-3.38-9.01.35-7.19,4.8,4.85,11.88,11,26.46,15.6,35.66,0,0,0,0,0,0-.49.25-.69.85-.44,1.35l3.91,7.66c-4.09,2.1-15.7,8.4-16.58,12.66-.76,3.66-.98,14.55-1.05,20.6-.03,2.87,1.01,5.64,2.96,7.75,5.21,5.63,17.26,16.21,36.22,19.05l24.11,57.1c-24.6-7.38-52.1-7.66-64.37-2.23-20.52-13.68-41.08-22.92-60.96-25.11-24.87-2.74-50.82,18.99-75.88,53.58-79.77,30.71-197.36,74.12-256.52,86.94-.66-4.19-1.23-7.84-1.69-10.85-.92-5.94-6.52-10.04-12.47-9.17-10.32,1.52-23.29,6.43-31.21,9.73-4.64,1.93-8.16,5.89-9.45,10.75-2.47,9.24-4.05,18.82-4.89,28.58-2.71-5.99-7.11-10.59-7.11-10.59l-42.27,8.68-10.21-15.04c1.02-.84,2.03-1.69,3.02-2.57,1.01-.89.74-2.7-.18-3.53-1.1-.99-2.52-.72-3.53.18-.69.61-1.41,1.18-2.12,1.78l-10.96-16.14c1.2-.98,2.39-1.99,3.56-3.02,1.01-.89.74-2.7-.18-3.53-1.1-.99-2.52-.72-3.53.18-.87.77-1.77,1.49-2.66,2.23l-10.96-16.15c1.39-1.12,2.76-2.28,4.1-3.46,1.01-.89.74-2.7-.18-3.53-1.1-.99-2.52-.72-3.53.18-1.04.92-2.12,1.8-3.2,2.68l-10.97-16.16c1.58-1.26,3.13-2.56,4.65-3.9,1.01-.89.74-2.7-.18-3.53-1.1-.99-2.52-.72-3.53.18-1.22,1.08-2.47,2.11-3.74,3.13l-31.95-47.06-14.92,3.46-8.66,2s7.28,98.11,25.19,200.57c5.52,31.59,12.05,63.59,19.69,93.26,0,0,28.49.83,66.97-3.8,20.91-2.51,44.79-6.65,68.64-13.38,0,0-.31-.36-.87-1.07l9.49-1.91c8.53,19.11,16.79,32.61,21.65,36.94,10.9,9.7,29.24,5.9,40.55,2.16,5.56-1.84,8.67-7.73,7.08-13.37-.92-3.27-1.86-6.77-2.8-10.44,17.18-3.19,59.83-11.31,98.41-20.16-14.48,41.3-24.16,72.7-27.03,82.15-.17-.08-.36-.16-.53-.23-5.5-2.42-11.97.09-14.44,5.58-4.27,9.51-7.11,23.09-8.59,31.55-.87,4.95.58,10.04,3.97,13.75,6.46,7.05,13.69,13.54,21.46,19.49-6.5-.94-12.75.3-12.75.3l-15.42,40.3-18.17.52c-.16-1.31-.34-2.62-.54-3.93-.21-1.33-1.88-2.07-3.08-1.75-1.42.39-1.96,1.74-1.75,3.08.14.91.27,1.83.39,2.74l-19.53.56c-.18-1.54-.39-3.09-.63-4.63-.21-1.33-1.88-2.07-3.08-1.75-1.42.39-1.96,1.74-1.75,3.08.18,1.14.33,2.29.47,3.44l-19.53.56c-.2-1.78-.43-3.55-.71-5.32-.21-1.33-1.88-2.07-3.08-1.75-1.42.39-1.96,1.74-1.75,3.08.22,1.37.39,2.75.55,4.14l-19.54.56c-.21-2.01-.47-4.02-.79-6.02-.21-1.33-1.88-2.07-3.08-1.75-1.42.39-1.96,1.74-1.75,3.08.25,1.61.46,3.22.63,4.83l-56.86,1.62-5.11,14.44-2.97,8.38s86.62,46.64,182.63,86.66c29.6,12.34,60.09,24.05,89.21,33.57,0,0,16.02-23.57,32.82-58.5-.88-.47-1.76-.93-2.63-1.37.87.44,1.75.9,2.63,1.37,9.13-18.98,18.49-41.33,25.64-65.06,0,0-.47.06-1.36.16l3.49-9.03c20.69,3.09,36.52,3.39,42.78,1.62,14.04-3.98,20.71-21.47,23.63-33.02,1.44-5.68-1.86-11.47-7.47-13.16-2-.6-4.09-1.25-6.23-1.94,17.15-37.27,41.7-127.16,45.23-140.25.34-.25.61-.61.8-1.08,6.32,9.11,97.21,137.14,210.65,139.19,14.04.26,27.28-1.35,39.72-4.38,1-.24,2-.5,2.99-.77,45.2-11.95,79.53-42.6,102.49-70.1.65-.78,1.29-1.55,1.92-2.32,21.41-26.21,32.34-48.96,32.34-48.96h0c146.31-171.09,61.14-375.33,61.14-375.33l-2.5-35.28s0,0,0,0c0,0,0,0,0,0,31.01-2.14,60.59-28.51,49.54-99.09ZM605.79,1024.02c-.08-.05-.16-.09-.23-.14.08.05.16.09.23.14ZM619.8,1034.22c-.1-.08-.19-.17-.29-.25.1.08.19.17.29.25ZM643.84,1069.69h0s0,0,0,0ZM642.4,1065.98c-.09-.21-.17-.42-.26-.63.09.21.17.42.26.63ZM640.62,1061.92c-.09-.19-.18-.38-.27-.56.09.19.18.37.27.56ZM636.82,1054.74c-.1-.18-.21-.35-.31-.53.1.17.21.35.31.53ZM634.63,1051.23c-.1-.15-.2-.3-.31-.46.1.15.21.3.31.46ZM630.12,1045.04c-.11-.14-.22-.28-.34-.42.11.14.23.28.34.42ZM627.61,1042.03c-.11-.12-.21-.24-.32-.36.11.12.21.24.32.36ZM622.56,1036.76c-.11-.11-.23-.22-.34-.33.11.11.23.22.34.33ZM614.37,1029.79c-.1-.08-.2-.16-.31-.23.1.08.2.15.31.23ZM611.46,1027.68c-.08-.05-.15-.1-.23-.16.08.05.15.1.23.16ZM602.82,1022.31s-.08-.05-.12-.07c.04.02.08.05.12.07ZM597.05,1019.34s-.07-.04-.11-.05c.04.02.07.04.11.05ZM565.06,1009.16c-.22-.04-.44-.08-.66-.12.22.04.44.08.66.12ZM575.61,1011.5h0s0,0,0,0ZM571.89,1010.57c-.22-.05-.43-.1-.64-.15.21.05.43.1.64.15ZM570.26,1010.2c-.26-.06-.52-.11-.77-.17.25.05.51.11.77.17ZM568.65,1009.86c-.44-.09-.88-.18-1.31-.27.43.08.87.17,1.31.27ZM566.57,1009.44c-.26-.05-.52-.1-.78-.15.26.05.51.09.78.15ZM649.18,1092.67c.03.28.06.57.1.86-.03-.29-.06-.57-.1-.86ZM645.13,1073.55c.07.23.14.45.21.68-.07-.23-.14-.45-.21-.68ZM646.45,1078.13c.06.24.12.49.19.74-.06-.25-.12-.49-.19-.74ZM648.43,1087.47c.04.27.09.53.13.8-.04-.27-.09-.54-.13-.8ZM681.29,960.34c5.86-3.56,11.66-7.74,15.08-12,0,0,0,0,0,0-.02,3.29.03,6.6.15,9.9-5.08.69-10.29,1.41-15.24,2.1ZM1401.53,909.16l-35.66,66.58c-12.87-9.45-41.16-29.67-74.81-53.59,27.67,8.24,41.79,5.52,48.62,2.07,3.75,3.33,7.92,5.86,12.59,7.31,0,0,21.72-9.11,49.26-22.36ZM1190.22,708.87c-2.85,2.2-19.61-13.07-19.61-13.07l7.05-6.26.95,1.85c.18.35.53.54.89.54.15,0,.31-.04.45-.11.07-.03.11-.09.17-.13,4.02,4.91,12.28,15.5,10.1,17.18ZM933.97,1346.26c-.44,0-.88.02-1.32.03.44-.01.88-.02,1.32-.03ZM931.78,1346.32c-.64.03-1.27.06-1.91.1.63-.04,1.27-.07,1.91-.1ZM929,1346.48c-.47.03-.95.07-1.42.11.47-.04.94-.08,1.42-.11ZM926.64,1346.68c-.39.04-.78.08-1.17.13.39-.04.78-.09,1.17-.13ZM924.5,1346.93c-.37.05-.75.1-1.12.15.37-.05.74-.1,1.12-.15ZM922.41,1347.21c-.38.06-.76.12-1.14.18.38-.06.76-.13,1.14-.18ZM920.36,1347.55c-.51.09-1.02.19-1.52.29.5-.1,1.01-.2,1.52-.29ZM917.61,1348.09c-.38.08-.75.16-1.13.24.37-.08.75-.16,1.13-.24ZM915.52,1348.56c-.33.08-.66.16-.99.24.33-.08.66-.16.99-.24ZM913.54,1349.05c-.31.08-.63.17-.94.25.31-.09.62-.17.94-.25ZM911.61,1349.58c-.31.09-.61.18-.92.27.31-.09.61-.18.92-.27ZM909.71,1350.15c-.31.1-.61.2-.92.3.31-.1.61-.2.92-.3ZM906.97,1351.05c-.26.09-.53.18-.79.27.26-.09.53-.18.79-.27ZM905.14,1351.7c-.26.09-.51.19-.77.29.25-.1.51-.19.77-.29ZM903.35,1352.39c-.24.1-.49.19-.73.29.24-.1.48-.19.73-.29ZM901.57,1353.1c-.21.09-.43.18-.64.27.21-.09.42-.18.64-.27ZM897.09,1355.1c-.14.07-.28.13-.41.2.14-.07.28-.13.41-.2ZM895.55,1355.85c-.17.08-.33.17-.5.25.17-.08.33-.17.5-.25ZM893.95,1356.66c-.16.08-.31.16-.47.24.16-.08.31-.16.47-.24ZM892.36,1357.51c-.1.06-.2.11-.31.17.1-.06.2-.11.31-.17ZM886.81,1360.73c-.07.05-.15.09-.22.14.07-.05.15-.09.22-.14ZM885.4,1361.62c-.06.04-.12.08-.18.11.06-.04.12-.08.18-.11ZM936.2,1346.26c-.43,0-.85,0-1.28,0,.43,0,.85,0,1.28,0ZM938.51,1346.33c-.45-.02-.9-.03-1.34-.05.45.01.89.03,1.34.05ZM941.13,1346.47c-.58-.04-1.15-.08-1.72-.11.57.03,1.15.07,1.72.11ZM964.28,1351.24c-.54-.18-1.09-.37-1.63-.54.54.17,1.08.35,1.63.54ZM961.67,1350.39c-.51-.16-1.02-.31-1.53-.46.51.15,1.02.3,1.53.46ZM959.17,1349.65c-.54-.15-1.07-.29-1.6-.43.53.14,1.07.28,1.6.43ZM956.72,1349c-.8-.2-1.59-.39-2.38-.57.79.18,1.58.37,2.38.57ZM953.95,1348.35c-.67-.15-1.34-.29-2-.42.67.13,1.33.27,2,.42ZM951.06,1347.76c-.5-.09-.99-.18-1.49-.27.49.08.99.17,1.49.27ZM948.6,1347.33c-.47-.07-.94-.15-1.41-.21.47.07.94.14,1.41.21ZM946.23,1346.99c-.49-.06-.98-.12-1.47-.18.49.06.98.11,1.47.18ZM943.9,1346.71c-.74-.08-1.47-.14-2.2-.2.73.06,1.46.13,2.2.2ZM868.59,1374.64s0,0,0,0c0,0,0,0,0,0ZM865.8,1377.28c-.16.16-.32.31-.48.47.16-.16.31-.31.48-.47ZM864.62,1378.45c-.19.19-.38.38-.56.56.18-.19.37-.38.56-.56ZM860.94,1382.28c-.15.17-.31.33-.46.5.15-.16.3-.33.46-.5ZM863.46,1379.62c-.33.33-.64.66-.96.99.31-.33.63-.66.96-.99ZM861.99,1381.15c-.18.19-.36.39-.54.58.18-.19.36-.38.54-.58ZM976.36,1356.18c.59.28,1.18.57,1.78.87-.59-.3-1.19-.59-1.78-.87ZM965.15,1351.54c.76.27,1.53.54,2.3.83-.77-.29-1.53-.57-2.3-.83ZM967.67,1352.45c.83.32,1.67.65,2.52.99-.84-.34-1.68-.68-2.52-.99ZM971.03,1353.8c.57.24,1.15.48,1.73.73-.58-.25-1.15-.49-1.73-.73ZM973.73,1354.96c.55.25,1.1.5,1.65.76-.55-.26-1.1-.51-1.65-.76ZM882.3,1258.04c.16-6.85-.26-13.99-2-19.17,0,0,0,0,0-.01,2.77,1.79,5.58,3.52,8.43,5.2-2.15,4.65-4.35,9.43-6.42,13.98Z"/>
      <rect class="st2" x="1205.5" y="240.65" width="242.4" height="169.66"/>
      <rect class="st15" x="1249.36" y="279.26" width="154.69" height="8.91"/>
      <rect class="st15" x="1249.36" y="323.1" width="154.69" height="8.91"/>
      <rect class="st15" x="1249.36" y="366.95" width="154.69" height="8.91"/>
      <polygon class="st4" points="1643.54 329.39 1643.54 615.67 1702 615.67 1702 660.4 1749.95 615.67 2102.63 615.67 2102.63 329.39 1643.54 329.39"/>
      <path class="st11" d="M626.64,1360.77l-1.52-21.95-16.09,1.11c-1.08-2.65-2.43-5.15-4.03-7.46l10.78-12.4-16.6-14.45-11.18,12.85c-2.39-1.04-4.89-1.84-7.48-2.4l-1.19-17.11-21.95,1.52,1.19,17.11c-2.49.91-4.85,2.05-7.08,3.41l-12.84-11.18-14.45,16.6,12.39,10.79c-1.26,2.51-2.26,5.18-2.96,7.95l-16.09,1.11,1.52,21.95,15.23-1.06c.97,3.02,2.29,5.88,3.9,8.53l-9.81,11.27,16.6,14.45,9.41-10.82c2.97,1.48,6.14,2.6,9.45,3.31l.98,14.16,21.95-1.52-.98-14.16c3.19-1.16,6.17-2.71,8.9-4.59l10.82,9.41,14.45-16.6-11.27-9.81c1.24-2.85,2.15-5.86,2.69-8.98l15.23-1.06ZM573.77,1377.46c-13.22.92-24.69-9.06-25.6-22.28s9.06-24.68,22.28-25.6c13.22-.92,24.68,9.06,25.6,22.28.92,13.22-9.06,24.69-22.28,25.6Z"/>
      <path class="st11" d="M2088.3,988.46l-1.52-21.95-16.09,1.11c-1.08-2.65-2.43-5.15-4.03-7.46l10.78-12.4-16.6-14.45-11.18,12.85c-2.39-1.04-4.89-1.84-7.48-2.4l-1.19-17.11-21.95,1.52,1.19,17.11c-2.49.91-4.85,2.05-7.08,3.41l-12.84-11.18-14.45,16.6,12.39,10.79c-1.26,2.51-2.26,5.18-2.96,7.95l-16.09,1.11,1.52,21.95,15.23-1.06c.97,3.02,2.29,5.88,3.9,8.53l-9.81,11.27,16.6,14.45,9.41-10.82c2.97,1.48,6.14,2.6,9.45,3.31l.98,14.16,21.95-1.52-.98-14.16c3.19-1.16,6.17-2.71,8.9-4.59l10.82,9.41,14.45-16.6-11.27-9.81c1.24-2.85,2.15-5.86,2.69-8.98l15.23-1.06ZM2035.42,1005.15c-13.22.92-24.69-9.06-25.6-22.28-.92-13.22,9.06-24.68,22.28-25.6s24.68,9.06,25.6,22.28c.92,13.22-9.06,24.69-22.28,25.6Z"/>
      <polygon class="st5" points="852.07 460.38 428.62 460.38 428.62 701.35 753.93 701.35 798.15 739 798.15 701.35 852.07 701.35 852.07 460.38"/>
      <path class="st11" d="M533.78,590.72c.78,4.51,2.1,8.86,3.88,12.97l-16.27,14.16,20.86,23.97,15.62-13.59c3.95,2.71,8.26,4.95,12.86,6.62l-1.42,20.44,31.7,2.2,1.42-20.44c4.79-1.03,9.36-2.64,13.65-4.79l13.59,15.62,23.97-20.86-14.16-16.27c2.33-3.83,4.24-7.95,5.64-12.31l22,1.52,2.2-31.7-23.23-1.61c-1.02-4-2.45-7.84-4.27-11.47l17.89-15.58-20.86-23.97-18.55,16.15c-3.21-1.96-6.63-3.6-10.22-4.92l1.71-24.7-31.7-2.2-1.71,24.7c-3.74.81-7.35,1.96-10.8,3.46l-16.14-18.55-23.97,20.86,15.57,17.9c-2.3,3.35-4.26,6.95-5.82,10.78l-23.23-1.61-2.2,31.7,22,1.52ZM555.97,576.33c1.32-19.09,17.87-33.49,36.96-32.17,19.1,1.32,33.5,17.87,32.18,36.96-1.32,19.1-17.87,33.5-36.97,32.18-19.09-1.32-33.49-17.87-32.17-36.97Z"/>
      <path class="st12" d="M694.93,620.68c1.3,2.54,2.9,4.89,4.74,7.01l-7.07,11.48,16.91,10.4,6.78-11.02c2.86.88,5.85,1.41,8.9,1.55l2.97,12.45,19.32-4.6-2.97-12.45c2.66-1.5,5.09-3.32,7.25-5.4l11.02,6.78,10.4-16.91-11.49-7.06c.68-2.72,1.05-5.53,1.06-8.39l13.41-3.2-4.6-19.31-14.15,3.37c-1.36-2.2-2.93-4.22-4.69-6.04l7.77-12.63-16.91-10.4-8.05,13.09c-2.28-.57-4.62-.91-7.01-1.03l-3.59-15.05-19.32,4.6,3.59,15.05c-2.08,1.18-4.02,2.54-5.79,4.08l-13.09-8.05-10.4,16.91,12.63,7.77c-.75,2.42-1.24,4.94-1.46,7.51l-14.15,3.37,4.6,19.31,13.41-3.2ZM720.75,604.32c-.76-3.19,1.21-6.4,4.4-7.16s6.4,1.21,7.16,4.4-1.21,6.4-4.4,7.16-6.4-1.21-7.16-4.4Z"/>
      <path class="st8" d="M547.81,1229.1l9.96-41.8-30.64-7.3c-.48-5.57-1.54-11.01-3.17-16.26l27.34-16.82-22.51-36.61-28.34,17.43c-3.84-3.32-8.03-6.28-12.54-8.83l7.77-32.58-41.81-9.97-7.77,32.58c-5.17.24-10.24.99-15.17,2.22l-17.43-28.34-36.61,22.51,16.82,27.34c-3.82,3.95-7.22,8.33-10.16,13.08l-30.64-7.3-9.96,41.8,29.02,6.92c.04,6.19.83,12.29,2.3,18.17l-24.86,15.28,22.51,36.61,23.85-14.67c4.66,4.5,9.93,8.43,15.68,11.69l-6.43,26.96,41.81,9.97,6.43-26.96c6.61-.31,13.08-1.45,19.27-3.36l14.67,23.85,36.61-22.51-15.3-24.86c3.97-4.59,7.43-9.67,10.25-15.18l29.02,6.92ZM447.38,1196.29c-6.91-1.65-11.18-8.58-9.53-15.49s8.58-11.18,15.49-9.53c6.91,1.65,11.18,8.58,9.53,15.49-1.65,6.91-8.58,11.18-15.49,9.53Z"/>
      <polygon class="st8" points="414.95 670.67 446.53 702.26 394.02 754.76 420.87 781.6 473.37 729.1 504.95 760.68 537.89 637.73 525.38 641.08 414.95 670.67"/>
      <polygon class="st2" points="414.95 670.67 446.53 702.26 394.02 754.76 411.71 772.44 464.21 719.94 495.8 751.52 525.38 641.08 414.95 670.67"/>
      <rect class="st15" x="794.18" y="152.25" width="443.41" height="206.02"/>
      <rect class="st2" x="939.36" y="205.72" width="239.05" height="14.73"/>
      <rect class="st2" x="939.36" y="293.16" width="239.05" height="14.73"/>
      <circle class="st2" cx="867.96" cy="213.08" r="17.82"/>
      <circle class="st2" cx="867.96" cy="300.53" r="17.82"/>
      <path class="st9" d="M1353.43,961.72l-9.3,72.82-137.2-7.36s-236.2,2.15-285.44,17.35c-49.25,15.21-155.71,34.4-155.71,34.4l-8.27-38.76-.42-1.95-32.62-152.81c83.2-13.23,350.94-121.53,350.94-121.53,0,0,275.88,194.63,278.02,197.84Z"/>
      <path class="st2" d="M977.81,982.11c-44.6,21.14-190.83,51.97-220.3,58.06l-.42-1.95c29.39-6.08,175.46-36.87,219.87-57.92.5-.23,1.09-.02,1.33.48s.02,1.1-.48,1.33Z"/>
      <path class="st6" d="M1300.5,822.89c-.9-5.88-5.41-15.5-5.41-15.5,0,0-66.06-71.53-81.98-111.21,0,0,8.79-66.54-16.63-61.78,0,0-9.03-11.05-16.99-2.74,0,0-7.85-5.58-12.6.95l-29.75-29.39c-3.41-3.38-9.01.35-7.19,4.8,6.95,17.04,16.59,39.63,20.49,43.96,0,0-16.93,8.2-18,13.37-.76,3.66-.98,14.55-1.05,20.6-.03,2.87,1.01,5.64,2.96,7.75,5.21,5.63,17.26,16.21,36.22,19.05l28.52,67.55s55.96,42.59,56.85,42.59,45.45,5.88,44.56,0ZM1170.34,689.17c-2.85,2.2-19.61-13.07-19.61-13.07l7.43-6.6s15.03,17.47,12.18,19.67Z"/>
      <path class="st10" d="M1239.36,890.43c73.78,32.79,86.26,9.27,86.26,9.27l-36-91.25s-37.07-3.92-66.65-25.31-85.19-23.88-96.95-12.83c-11.76,11.05,25.31,53.47,45.62,73.43,20.32,19.96,67.72,46.69,67.72,46.69Z"/>
      <path class="st14" d="M1478.35,1090.04s-10.93,22.75-32.34,48.96c-.63.77-1.27,1.54-1.92,2.32-22.96,27.5-57.29,58.15-102.49,70.1-.99.27-1.99.53-2.99.77-12.44,3.03-25.68,4.64-39.72,4.38-117.62-2.13-211.01-139.72-211.01-139.72,0,0-27.8,104.08-46.33,143.29,0,0-33.66-7.48-73.7-19.63-.96-.29-1.92-.58-2.89-.88-46.75-14.34-101.2-34.86-120.88-57.19,0,0,121.9-411.33,225.27-399.93,103.36,11.41,225.26,213.15,262.33,240.24l16.11,11.79,2.52,1.84,128.04,93.66Z"/>
      <path class="st2" d="M1424.21,1068.31c-.17.13-16.76,13.4-41.23,25.07-22.64,10.8-56.86,22.41-91.36,16.44-33.01-5.71-60.58-26.25-81.93-61.06-35.64-58.1-44.66-102.8-51.25-135.44-4.28-21.19-7.29-36.09-15.6-45.24-6.89-7.59-17.41-11.23-35.32-11.23-.09,0-.18.01-.27.01-34.75.06-70.1,60.74-102.22,175.45-20.11,71.81-33.14,144.39-37.18,168.2-.96-.29-1.92-.58-2.89-.88,4.12-24.25,17.14-96.55,37.18-168.1,14.37-51.33,29.49-92.26,44.93-121.64,19.53-37.14,39.77-55.99,60.18-56.03.08,0,.17-.01.25-.01,19.03,0,30.31,4.3,37.66,12.53,8.87,9.94,12.03,25.6,16.22,46.35,6.54,32.42,15.5,76.82,50.87,134.47,20.88,34.03,47.75,54.1,79.87,59.67,22.88,3.96,45.8.04,65.9-6.68-4.93-9.57-28.11-58.69-10.23-105.65.03-.07.05-.14.08-.21l2.8,1.08c-.12.32-.25.65-.36.97-17.19,46.32,6.36,94.78,10.58,102.82,35.18-12.39,61.03-32.9,61.44-33.23l1.88,2.34Z"/>
      <path class="st1" d="M1462.85,705.08l2.14-2.5,66.3,1.25,8.2,10.87s85.17,204.24-61.14,375.33c0,0-104.25-22.1-146.66-107.29l56.32-105.15,74.85-172.51Z"/>
      <path class="st14" d="M1462.49,550.97s-26.43-20.18,7.1-46.2c33.53-26.02,105.89,4.99,116.94,75.56,11.05,70.57-18.53,96.95-49.54,99.09,0,0-20.52,13.9-21.13,12.83s-25.28-24.7-28.45-26.79c-3.17-2.08-26.75-13.21-21.73-34.38s-3.18-80.12-3.18-80.12Z"/>
      <path class="st6" d="M1510.97,556.72c-.18.72-4.9,3.3-5.97,4.1-1.07.8-13.01-.62-13.01-.62l-5.25-6.6.67-20.91c3.66.85,7.9.74,11.64-2.17l11.68,16.91s.42,8.58.24,9.29Z"/>
      <path class="st1" d="M1538.39,636.91c-.96,1.02-1.92,1.92-2.89,2.72-.27.23-.55.45-.82.65-3.39,2.6-6.78,3.95-9.92,4.55-.34.06-.67.12-1,.16-3.55.51-6.73.08-9.15-.53l-14.21-43.09-13.66-47.77s2.62,1.28,6.88,1.19c.33,0,.68-.02,1.04-.04,2.89-.21,6.42-1.06,10.34-3.27.29-.16.58-.33.88-.51,1.56-.95,3.19-2.11,4.85-3.54l27.66,89.48Z"/>
      <path class="st16" d="M1533.43,665.17c-12.84,2.85-17.11-15.51-17.11-15.51l-.46-1.4c4.65.9,14.83,1.61,24.09-6.29l.61,1.99s7.77,17.9-7.13,21.21Z"/>
      <path class="st2" d="M1539.95,641.97c-9.26,7.9-19.44,7.19-24.09,6.29l-1.25-3.8c5.51,1.4,15.01,1.81,23.78-7.55l1.56,5.06Z"/>
      <path class="st0" d="M1535.5,639.63c-.27.23-.55.45-.82.65l-29.68-88.8c.29-.16.58-.33.88-.51l29.62,88.66Z"/>
      <path class="st0" d="M1524.76,644.83c-.34.06-.67.12-1,.16l-30.14-90.2c.33,0,.68-.02,1.04-.04l30.1,90.08Z"/>
      <path class="st16" d="M1499.05,530.52c-3.74,2.91-7.98,3.02-11.64,2.17l.39-12.42c.06-1.84,2.42-2.54,3.47-1.02l7.78,11.27Z"/>
      <path class="st10" d="M1536.99,679.43l2.5,35.28c-25.67,6.78-74.5-12.12-74.5-12.12l-.22-13.27-.25-15.24c-69.39-20.44-37.07-81.51-37.07-81.51l-9.03-23.28s14.91,1.61,22.57-5.71c18.42-17.58,33.51-17.58,33.51-17.58,17.58,11.17,25.9,55.37,25.9,55.37,0,0,37.3-19.61,41.22,13.18,3.93,32.8-37.78,24.24-37.78,24.24l-7.48,11.41c15.68,35.29,40.63,29.23,40.63,29.23Z"/>
      <ellipse class="st16" cx="1465.67" cy="577.88" rx="6.42" ry="3.74" transform="translate(92.87 1350.9) rotate(-50.9)"/>
      <path class="st6" d="M1464.77,608.11c-.33-1.2-1.81-2.24-3.08-1.75-6.95,2.72-14.81,2.36-21.38-1.25-2.82-1.55-5.35,2.77-2.52,4.32,7.66,4.2,17.07,4.95,25.23,1.75,1.26-.49,2.13-1.68,1.75-3.08Z"/>
      <path class="st14" d="M1486.68,574.93c-1.32-7.38-6.32-14.05-13-17.45-1.16-.59-2.76-.34-3.42.9-.6,1.14-.35,2.79.9,3.42.75.38,1.47.8,2.17,1.26.33.22.66.45.98.69.04.03.06.04.06.04.02.02.05.04.1.08.19.15.37.3.55.46.61.52,1.18,1.07,1.73,1.65.27.29.54.59.8.89.13.16.26.32.39.48.03.05.13.17.18.24.97,1.32,1.79,2.74,2.46,4.24.02.05.03.08.05.1,0,0,0,.02.03.07.07.19.15.37.21.56.14.37.26.75.38,1.13.26.84.46,1.7.61,2.56.23,1.29,1.87,2.14,3.08,1.75,1.39-.45,1.99-1.69,1.75-3.08Z"/>
      <path class="st6" d="M1525.16,613.7c-7.9-1.2-15.84-.02-23.01,3.54-1.21.6-1.54,2.31-.9,3.42.72,1.23,2.21,1.5,3.42.9,5.86-2.9,12.68-4.02,19.15-3.03,1.33.2,2.69-.34,3.08-1.75.32-1.18-.4-2.87-1.75-3.08Z"/>
      <path class="st6" d="M1515.86,680.14s-19.3,19.07-51.09,9.18l-.25-15.24s24.15,9.62,51.34,6.06Z"/>
      <path class="st13" d="M1462.85,705.08l-170.56,94.48c-2.76,1.53-4.38,4.51-4.17,7.65,1.36,20.27,8.7,93.56,44.27,104.59,0,0,147.08-61.66,161.22-97.78,14.14-36.12-30.77-108.95-30.77-108.95Z"/>
      <path class="st2" d="M1112.25,932.27c-1.43,0-2.41,1.15-2.5,2.5-1.21,18.64-3.27,37.22-6.21,55.67-2.95,18.51-6.76,36.88-11.41,55.04-2.61,10.2-5.49,20.33-8.62,30.38-.96,3.08,3.86,4.4,4.82,1.33,5.6-17.97,10.38-36.19,14.3-54.6,3.95-18.55,7.02-37.28,9.23-56.12,1.24-10.53,2.2-21.1,2.89-31.69.09-1.35-1.21-2.5-2.5-2.5Z"/>
      <path class="st2" d="M1446.01,1139c-.63.77-1.27,1.54-1.92,2.32-4.32-3.66-12.47-11.52-18.44-22.91-8.26,6.76-48.26,39.17-68.36,48.9-16.06,7.77-16.41,32.8-15.69,44.11-.99.27-1.99.53-2.99.77-.86-11.63-.78-38.8,17.37-47.58,21.69-10.49,68.73-49.32,69.2-49.71l1.47-1.21.84,1.71c5.71,11.67,14.18,19.89,18.52,23.6Z"/>
      <path class="st10" d="M984.87,1277.16l6.89-17.82s-107.17-64.51-108.83-63.8c-1.66.71-31.72,67.49-31.72,67.49,0,0,67.25,28.04,68.32,28.16s23.29-.83,23.29-.83c0,0,31.96-5.94,32.79-6.42s9.27-6.77,9.27-6.77Z"/>
      <path class="st2" d="M821.41,1176.37c1.48-8.45,4.32-22.04,8.59-31.55,2.46-5.48,8.93-8,14.44-5.58,32.72,14.41,147.23,64.26,204,81.4,5.61,1.69,8.9,7.48,7.47,13.16-2.92,11.55-9.59,29.04-23.63,33.02-20.77,5.88-146.74-11.09-206.89-76.7-3.4-3.71-4.84-8.8-3.97-13.75Z"/>
      <path class="st1" d="M987.37,1274.08c-7.15,23.73-16.51,46.08-25.64,65.06-50.65-27.25-90.18-4.56-111.45,14.38l-190.24-84.49,5.11-14.44,183.44-5.22c67.01,34.21,138.78,24.71,138.78,24.71Z"/>
      <path class="st14" d="M961.73,1339.14c-16.8,34.93-32.82,58.5-32.82,58.5-29.12-9.52-59.61-21.23-89.21-33.57,16.35-18.3,61.16-57.68,122.03-24.93Z"/>
      <path class="st2" d="M850.28,1353.52c-4.29,3.81-7.84,7.48-10.58,10.55-96.01-40.02-182.63-86.66-182.63-86.66l2.97-8.38,190.24,84.49Z"/>
      <path class="st2" d="M726.19,1246.81c-.21-1.33-1.88-2.07-3.08-1.75-1.42.39-1.96,1.74-1.75,3.08,1.1,7,1.44,14.11,1.13,21.19-.06,1.35,1.19,2.5,2.5,2.5,1.4,0,2.44-1.15,2.5-2.5.33-7.54-.14-15.06-1.31-22.52Z"/>
      <path class="st2" d="M750.79,1246.81c-.21-1.33-1.88-2.07-3.08-1.75-1.42.39-1.96,1.74-1.75,3.08,1.1,7,1.44,14.11,1.13,21.19-.06,1.35,1.19,2.5,2.5,2.5,1.4,0,2.44-1.15,2.5-2.5.33-7.54-.14-15.06-1.31-22.52Z"/>
      <path class="st2" d="M775.38,1246.81c-.21-1.33-1.88-2.07-3.08-1.75-1.42.39-1.96,1.74-1.75,3.08,1.1,7,1.44,14.11,1.13,21.19-.06,1.35,1.19,2.5,2.5,2.5,1.4,0,2.44-1.15,2.5-2.5.33-7.54-.14-15.06-1.31-22.52Z"/>
      <path class="st2" d="M799.97,1246.81c-.21-1.33-1.88-2.07-3.08-1.75-1.42.39-1.96,1.74-1.75,3.08,1.1,7,1.44,14.11,1.13,21.19-.06,1.35,1.19,2.5,2.5,2.5,1.4,0,2.44-1.15,2.5-2.5.33-7.54-.14-15.06-1.31-22.52Z"/>
      <path class="st14" d="M817.46,1253.4l16.63-43.49s21.75-4.31,26.32,9.25c4.57,13.56,0,40.65,0,40.65,0,0-34.64.24-42.95-6.42Z"/>
      <path class="st10" d="M694.54,1064.75l18.73-3.78s-3.26-125.05-4.76-126.07-73.95,9.56-73.95,9.56c0,0,12.54,71.77,13.01,72.74s13.23,19.18,13.23,19.18c0,0,22.2,23.75,23.05,24.19s10.69,4.17,10.69,4.17Z"/>
      <path class="st2" d="M691.58,872.74c7.92-3.3,20.9-8.21,31.21-9.73,5.95-.87,11.55,3.23,12.47,9.17,5.45,35.33,25.03,158.68,41.12,215.76,1.59,5.64-1.52,11.53-7.08,13.37-11.31,3.75-29.64,7.54-40.55-2.16-16.13-14.34-69.59-129.67-46.63-215.67,1.3-4.86,4.81-8.81,9.45-10.75Z"/>
      <path class="st1" d="M698.48,1065.19c-23.85,6.74-47.73,10.87-68.64,13.38-4.27-57.36-44.67-78.47-72.07-86.22l-31.11-205.82,14.92-3.46,103.08,151.83c7.21,74.89,53.82,130.28,53.82,130.28Z"/>
      <path class="st14" d="M629.84,1078.58c-38.48,4.63-66.97,3.8-66.97,3.8-7.64-29.67-14.17-61.67-19.69-93.26,24.22,3.94,81.52,20.53,86.66,89.46Z"/>
      <path class="st2" d="M557.77,992.36c-5.52-1.57-10.52-2.59-14.58-3.24-17.91-102.46-25.19-200.57-25.19-200.57l8.66-2,31.11,205.82Z"/>
      <path class="st2" d="M580.98,830.36c1.01-.89.74-2.7-.18-3.53-1.1-.99-2.52-.72-3.53.18-5.31,4.69-11.12,8.81-17.25,12.35-1.17.68-1.47,2.35-.76,3.45.76,1.18,2.28,1.44,3.45.76,6.54-3.77,12.62-8.22,18.28-13.22Z"/>
      <path class="st2" d="M594.21,851.09c1.01-.89.74-2.7-.18-3.53-1.1-.99-2.52-.72-3.53.18-5.31,4.69-11.12,8.81-17.25,12.35-1.17.68-1.47,2.35-.76,3.45.76,1.18,2.28,1.44,3.45.76,6.54-3.77,12.62-8.22,18.28-13.22Z"/>
      <path class="st2" d="M607.44,871.82c1.01-.89.74-2.7-.18-3.53-1.1-.99-2.52-.72-3.53.18-5.31,4.69-11.12,8.81-17.25,12.35-1.17.68-1.47,2.35-.76,3.45.76,1.18,2.28,1.44,3.45.76,6.54-3.77,12.62-8.22,18.28-13.22Z"/>
      <path class="st2" d="M620.67,892.55c1.01-.89.74-2.7-.18-3.53-1.1-.99-2.52-.72-3.53.18-5.31,4.69-11.12,8.81-17.25,12.35-1.17.68-1.47,2.35-.76,3.45.76,1.18,2.28,1.44,3.45.76,6.54-3.77,12.62-8.22,18.28-13.22Z"/>
      <path class="st14" d="M624.52,910.84l45.61-9.37s15.34,16.01,6.36,27.16c-8.97,11.15-34.27,21.87-34.27,21.87,0,0-18.83-29.07-17.7-39.66Z"/>
      <path class="st16" d="M1159.62,672.23c-.36,0-.71-.2-.89-.54l-13.62-26.66c-.25-.49-.06-1.09.44-1.35.49-.25,1.09-.06,1.35.44l13.62,26.66c.25.49.06,1.09-.44,1.35-.15.07-.3.11-.45.11Z"/>
      <path class="st16" d="M1180.08,651.91c-.35,0-.69-.18-.87-.51-4.53-8.02-13-18.05-13.08-18.15-.36-.42-.3-1.05.12-1.41.42-.36,1.05-.3,1.41.12.09.1,8.67,10.27,13.3,18.46.27.48.1,1.09-.38,1.36-.16.09-.32.13-.49.13Z"/>
      <path class="st16" d="M1189.94,649.17c-.42,0-.8-.26-.95-.68-4.2-12.26-9.97-15.95-10.03-15.99-.47-.29-.61-.91-.33-1.37.29-.47.9-.62,1.37-.33.26.16,6.42,4.02,10.88,17.05.18.52-.1,1.09-.62,1.27-.11.04-.22.05-.32.05Z"/>
      <path class="st16" d="M1200.87,646.92c-.46,0-.88-.32-.98-.79-1.88-8.85-4.06-10.96-4.08-10.98-.4-.37-.43-1-.07-1.4.36-.41.97-.46,1.39-.1.27.23,2.69,2.51,4.72,12.07.11.54-.23,1.07-.77,1.19-.07.02-.14.02-.21.02Z"/>
      <polygon class="st2" points="1625.86 317.53 2084.94 317.53 2084.94 603.82 1732.26 603.82 1684.31 648.54 1684.31 603.82 1625.86 603.82 1625.86 317.53"/>
      <path class="st12" d="M1784.83,431.59c0-40.35,33.2-72.95,73.77-71.98,37.99.91,69.04,31.75,70.2,69.73.61,20.03-6.97,38.29-19.64,51.69-12.77,13.5-19.53,31.6-19.53,50.18v14.92h-65.58v-15.86c0-18.24-6.85-35.89-19.41-49.11-12.26-12.9-19.79-30.35-19.79-49.56Z"/>
      <rect class="st5" x="1832.23" y="551.36" width="49.19" height="27.33" rx="9.98" ry="9.98" transform="translate(3713.65 1130.04) rotate(180)"/>
      <rect class="st11" x="1814.41" y="542.8" width="84.83" height="19.96" rx="3.21" ry="3.21" transform="translate(3713.65 1105.56) rotate(-180)"/>
      <path class="st5" d="M1822.42,470.81c.29,3.05,2.34,5.65,4.9,7.21,2.93,1.79,6.46,2.3,9.84,1.78.38,2.32.68,4.66.86,7,.44,5.47.4,10.98-.07,16.45-.92,10.76-3.57,21.34-7.41,31.42-.48,1.27.54,2.74,1.75,3.08,1.39.38,2.6-.48,3.08-1.75,1.12-2.93,2.14-5.9,3.04-8.91,3.65-12.19,5.47-25.06,4.79-37.78-.17-3.19-.51-6.37-.99-9.53-.07-.49-.15-.98-.23-1.47.44-.22.88-.44,1.3-.7,2.24-1.35,4.09-3.24,5.53-5.41,4.23,1.09,8.74,1.19,13.08.47,1.5,21.98,9.55,43.21,12.27,65.07.17,1.35,1.01,2.5,2.5,2.5,1.23,0,2.67-1.16,2.5-2.5-.36-2.86-.78-5.71-1.27-8.56-3.36-19.25-9.88-38.16-11.04-57.72,1.23-.4,2.43-.87,3.59-1.41,4.91-2.29,9.54-6.12,12.1-10.96,2.69-5.09,2.81-11.61-1.1-16.14-3.54-4.11-10.22-4.91-14.36-1.26-2.13,1.88-3.21,4.73-3.81,7.44-.71,3.22-1.12,6.54-1.37,9.83-.22,2.93-.29,5.84-.23,8.73-3.48.64-7.1.61-10.55-.15.42-1.18.74-2.4.94-3.62.94-5.7.03-12.93-5.76-15.79-5.29-2.61-10.79.58-12.4,5.98-1.66,5.58,1.69,10.71,6.03,13.92,1.25.93,2.59,1.7,3.99,2.37-.87,1.07-1.88,2.01-3.02,2.75-.24-.85-.52-1.69-.86-2.51-2.22-5.34-8.02-9.74-13.82-6.67-2.48,1.31-4.07,4.01-3.8,6.83ZM1866.66,466.26c-.01-1.48.01-2.95.07-4.44.11-2.71.35-5.43.77-8.11.35-2.26.67-4.76,1.79-6.8,1.84-3.35,6.28-3.31,8.61-.43,2.67,3.3,1.7,8.02-.4,11.31-2.35,3.68-6.13,6.44-10.09,8.17-.24.11-.5.2-.75.3ZM1846.4,466.01c-1.1-.49-2.16-1.06-3.16-1.73-3.11-2.07-5.89-5.7-4.31-9.43.55-1.3,1.55-2.42,2.9-2.66,1.59-.29,3.38.89,4.27,2.31,2.02,3.22,1.64,7.89.31,11.51ZM1827.37,470.02c.14-1.5,1.98-2.22,3.3-2.05,1.97.25,3.45,1.98,4.33,3.62.55,1.04.94,2.16,1.23,3.32-.01,0-.03,0-.04,0-1.91.24-3.96.02-5.68-.85-1.41-.71-3.3-2.24-3.13-4.04Z"/>
      <path class="st11" d="M1956.38,413.64c8.7-4.62,17.4-9.25,26.09-13.87,2.84-1.51,5.37,2.81,2.52,4.32-8.7,4.62-17.4,9.25-26.09,13.87-2.84,1.51-5.37-2.81-2.52-4.32Z"/>
      <path class="st11" d="M1920.52,354.86c2.71-3.79,5.41-7.58,8.12-11.38.76-1.06,2.21-1.67,3.42-.9,1.05.68,1.71,2.28.9,3.42-2.71,3.79-5.41,7.58-8.12,11.38-.76,1.06-2.21,1.67-3.42.9-1.05-.68-1.71-2.28-.9-3.42Z"/>
      <path class="st11" d="M1770.19,354.98c1.06-.62,2.87-.34,3.42.9,2.87,6.49,5.74,12.97,8.61,19.46.55,1.23.36,2.69-.9,3.42-1.06.62-2.87.34-3.42-.9-2.87-6.49-5.74-12.97-8.61-19.46-.55-1.23-.36-2.69.9-3.42Z"/>
      <path class="st11" d="M1730.69,405.97c10.41,5.16,20.82,10.32,31.23,15.48,2.88,1.43.35,5.74-2.52,4.32-10.41-5.16-20.82-10.32-31.23-15.48-2.88-1.43-.35-5.74,2.52-4.32Z"/>
      <polygon class="st15" points="2034.24 522.8 2015.35 541.69 2046.76 573.11 2030.7 589.17 1999.29 557.75 1980.4 576.65 1960.69 503.09 1968.17 505.09 2034.24 522.8"/>
      <polygon class="st11" points="2034.24 522.8 2015.35 541.69 2046.76 573.11 2036.18 583.69 2004.77 552.28 1985.87 571.17 1968.17 505.09 2034.24 522.8"/>
    </g>
  </g>
</svg>