<?xml version="1.0" encoding="UTF-8"?>
<svg id="Layer_1" xmlns="http://www.w3.org/2000/svg" version="1.1" viewBox="0 0 44.49 32">
  <!-- Generator: Adobe Illustrator 29.7.1, SVG Export Plug-In . SVG Version: 2.1.1 Build 8)  -->
  <path d="M3,27.34l-.06-22.58c0-.38.25-.63.63-.63h5.24c.38,0,.64.25.64.63v7.53h9.08l4.95-7.94c.09-.16.35-.29.54-.29l5.52-.03c.29,0,.7.1.7.44,0,.51-4.57,7.56-5.27,8.67,3.4.95,6.03,3.18,6.03,6.92v7.18c0,.38-.25.63-.63.63l-5.21.03c-.38,0-.63-.25-.63-.63v-7.14c0-3.11-4.95-3.24-7.14-3.24h-7.91v10.42c0,.38-.25.63-.64.63l-5.21.03c-.38,0-.63-.25-.63-.64Z"/>
  <path d="M33.87,27.3v-5.08c0-.38.25-.63.63-.63h6.41c.38,0,.64.25.64.63v5.08c0,.38-.25.63-.64.63h-6.41c-.38,0-.63-.25-.63-.63Z"/>
</svg>