<svg xmlns="http://www.w3.org/2000/svg" viewBox="0 0 968.76 906.78"><defs><style>.cls-1{fill:#e1e1e5;}.cls-2{fill:#fff;}.cls-3{fill:#f95454;}</style></defs><g id="Layer_2" data-name="Layer 2"><g id="Layer_1-2" data-name="Layer 1"><path class="cls-1" d="M514.21,5.81c-241,5.88-364.8,174.54-392.32,308.42S-6.62,553.88.34,665.28C9.52,812,140,854.51,529.65,848.41s507.24-171.82,403-228.34C756.31,524.45,817.33,384.86,820.09,259.63,822.45,152.41,752.13,0,514.21,5.81Z"/><path class="cls-2" d="M609,45c-7.26,3.87-32,35.7-32.72,89.88-.61,47.27,18.2,77,25.75,80.78s29.29-2.88,59.47-11.76,43.5-18.2,41.5-22.41-25.52-33.74-17.53-71.24S719,38.09,716.79,34.1,624.88,36.54,609,45Z"/><path d="M608.12,218.21a15.35,15.35,0,0,1-6.74-1.23c-7.81-3.91-27.19-34.09-26.57-82.15.39-29.48,7.85-51.31,14.05-64.43,7.58-16.06,15.79-24.8,19.46-26.75h0c10.54-5.61,48.26-9.28,59.57-10.27,12.36-1.08,24.2-1.78,33.33-2,15.64-.3,16.36,1,16.88,1.94,1.17,2.11-.85,6.14-6.86,17.49-7.7,14.53-19.34,36.5-24.27,59.67-6.84,32.09,10,58.58,15.61,67.28.91,1.43,1.51,2.38,1.81,3a4,4,0,0,1-.1,3.41c-2.75,6.14-19,14.22-42.34,21.09l-3.62,1.07C635.16,213.2,618.15,218.21,608.12,218.21ZM609.73,46.3c-6.56,3.49-31.21,34.51-31.92,88.57-.6,46.07,17.82,75.87,24.92,79.42,6.7,3.36,27.91-2.89,54.75-10.79l3.63-1.07c28.85-8.49,39-16.21,40.44-19.43a1.22,1.22,0,0,0,.13-.9c-.22-.46-.84-1.44-1.63-2.67-5.72-9-23.11-36.23-16-69.52,5-23.59,16.78-45.77,24.56-60.45,3.27-6.17,6.64-12.53,6.83-14.46-7.88-2.75-90.69,3.32-105.69,11.3Z"/><path class="cls-3" d="M608.86,73.84a1.5,1.5,0,0,1-.18-3c.39,0,39.51-4.78,76.69-8a1.5,1.5,0,0,1,.26,3c-37.12,3.21-76.2,7.94-76.59,8Z"/><path class="cls-3" d="M595.25,108.17a1.5,1.5,0,0,1-.21-3c.45-.06,45.75-6.54,82.67-8.89a1.5,1.5,0,0,1,.19,3c-36.79,2.33-82,8.8-82.44,8.86Z"/><path class="cls-3" d="M590.22,144a1.5,1.5,0,0,1-.34-3c.44-.1,44.37-10.11,82.53-11.87a1.5,1.5,0,1,1,.14,3c-37.89,1.75-81.56,11.7-82,11.8A1.37,1.37,0,0,1,590.22,144Z"/><path class="cls-3" d="M596.73,182.74a1.5,1.5,0,0,1-.4-3c.46-.13,46-12.52,81.22-18.67a1.5,1.5,0,1,1,.51,2.95c-35,6.13-80.48,18.49-80.94,18.61A1.32,1.32,0,0,1,596.73,182.74Z"/><polygon class="cls-2" points="141.5 656.04 141.5 864.36 417.39 840.99 417.39 632.67 141.5 656.04"/><path d="M141.5,865.86a1.46,1.46,0,0,1-1-.4,1.48,1.48,0,0,1-.49-1.1V656a1.49,1.49,0,0,1,1.37-1.49l275.89-23.37a1.49,1.49,0,0,1,1.63,1.49V841a1.51,1.51,0,0,1-1.37,1.5L141.63,865.85ZM143,657.42v205.3l272.89-23.11V634.3Z"/><polygon class="cls-2" points="141.5 864.36 109.49 850.23 109.49 641.91 141.5 656.04 141.5 864.36"/><path d="M141.5,865.86a1.58,1.58,0,0,1-.6-.13l-32-14.13a1.5,1.5,0,0,1-.9-1.37V641.92a1.51,1.51,0,0,1,2.11-1.38l32,14.13A1.5,1.5,0,0,1,143,656V864.36a1.5,1.5,0,0,1-.68,1.25A1.52,1.52,0,0,1,141.5,865.86ZM111,849.25l29,12.8V657l-29-12.8Z"/><polygon class="cls-2" points="109.49 641.91 385.38 618.54 417.39 632.67 141.5 656.04 109.49 641.91"/><path d="M141.5,657.54a1.38,1.38,0,0,1-.6-.13l-32-14.12a1.5,1.5,0,0,1,.48-2.87l275.89-23.37a1.52,1.52,0,0,1,.73.12l32,14.13a1.5,1.5,0,0,1-.48,2.87L141.63,657.54Zm-26-14.63,26.29,11.61,269.65-22.85-26.28-11.6Z"/><path class="cls-3" d="M299.8,589.26a26.47,26.47,0,0,0-20.3-6.72l-41.37,4.06A27.76,27.76,0,0,0,213,614.33v23a6.24,6.24,0,0,0,12.48,0v-23A15.35,15.35,0,0,1,239.35,599l41.37-4A13.9,13.9,0,0,1,296,608.8v20.84a6.24,6.24,0,1,0,12.48,0V608.8A26.43,26.43,0,0,0,299.8,589.26Z"/><path class="cls-2" d="M932.85,882.2c-.81,6.5-2.79,11.42-6.13,14.19C916.28,905,848.3,908.75,832,901.05c-8.92-4.19-11.43-12.31-11.49-21.75,0-6.54,1.12-13.72,2.17-20.64,2.66-17.6-1.12-54.59,10-62.14s71.68-20,71.68-20,10.43,15.1,20.19,48.38C931.13,847.54,934.59,868.43,932.85,882.2Z"/><path d="M867.19,906.78c-15.46,0-29.46-1.36-35.87-4.38C823,898.48,819,891.14,819,879.31c0-6.24,1-13,2-19.55l.2-1.32c.81-5.34,1-12.55,1.24-20.19.53-18.35,1.08-37.32,9.38-43,11.22-7.62,69.75-19.69,72.23-20.2a1.5,1.5,0,0,1,1.54.62c.43.62,10.67,15.67,20.39,48.8,7.09,24.15,10.07,44.7,8.41,57.88-.9,7.14-3.14,12.24-6.67,15.16C920.77,903.27,892.08,906.78,867.19,906.78ZM903.6,778.23c-7.92,1.65-60.19,12.77-70.14,19.53-7,4.79-7.61,24.63-8.07,40.58-.23,7.73-.44,15-1.27,20.54l-.2,1.33c-1,6.42-2,13.07-1.95,19.09.06,10.68,3.34,17,10.63,20.39,15.17,7.15,83.08,3.9,93.16-4.46,2.92-2.41,4.81-6.86,5.61-13.22h0c1.61-12.78-1.35-32.9-8.32-56.66C914.73,797,905.84,781.8,903.6,778.23Z"/><path class="cls-2" d="M891.35,825.52A62.38,62.38,0,0,0,871,823.6a61,61,0,0,0-15.07,2.79,260.94,260.94,0,0,0-3.05-30.31l30.77-1.47C888.88,805,890.72,818.46,891.35,825.52Z"/><path d="M855.94,827.89a1.48,1.48,0,0,1-1.5-1.46,262.26,262.26,0,0,0-3-30.1,1.5,1.5,0,0,1,.31-1.19,1.52,1.52,0,0,1,1.1-.56l30.77-1.47a1.5,1.5,0,0,1,1.41.82c5.31,10.53,7.19,24.22,7.84,31.45A1.49,1.49,0,0,1,891,827a61.4,61.4,0,0,0-19.86-1.86,59.38,59.38,0,0,0-14.7,2.72A1.47,1.47,0,0,1,855.94,827.89Zm-1.31-30.39a267.35,267.35,0,0,1,2.74,26.89,63.34,63.34,0,0,1,13.55-2.29,65.35,65.35,0,0,1,18.73,1.44c-.77-7.11-2.6-18.38-6.9-27.39Z"/><path class="cls-2" d="M903.34,778.37s9.47,16.38-2.07,19.63-16.12-3.48-42.68,1.37Z"/><path d="M858.59,800.87A1.5,1.5,0,0,1,858,798l44.75-21a1.51,1.51,0,0,1,1.94.61c.24.41,5.79,10.16,3.12,16.73a8.65,8.65,0,0,1-6.08,5.1c-5.27,1.48-9.11,1-14,.41-6.22-.77-14-1.73-28.85,1Zm18-4.83a88.24,88.24,0,0,1,11.5.84c4.7.58,8.09,1,12.78-.32a5.73,5.73,0,0,0,4.12-3.33c1.53-3.76-.74-9.76-2.29-12.89l-34.38,16.13C871.43,796.16,874.15,796,876.58,796Z"/><path class="cls-3" d="M837.87,892.17c-7.32,0-13.75-4.15-18.68-12.07a1.5,1.5,0,0,1,2.55-1.59c4.67,7.52,10.48,11.1,17.28,10.62,10.28-.72,15.4-6.37,20.35-11.83,4.73-5.22,9.19-10.15,17.41-10.15h.1c9.5.05,14.37,5.24,19.09,10.26,4.35,4.63,8.47,9,16.24,9.72a26,26,0,0,0,19.67-6.08,1.51,1.51,0,0,1,2.12.18,1.49,1.49,0,0,1-.18,2.11,29,29,0,0,1-21.88,6.78c-8.91-.81-13.61-5.82-18.16-10.66s-8.7-9.27-16.91-9.31h-.08c-6.9,0-10.74,4.25-15.2,9.16-5.1,5.63-10.88,12-22.36,12.81C838.77,892.15,838.32,892.17,837.87,892.17Z"/><path d="M823.07,856.63a1.41,1.41,0,0,1-.57-.11,1.49,1.49,0,0,1-.82-2,57.67,57.67,0,0,1,49.24-32.46c36.47-2.25,51.2,23.82,51.34,24.08a1.5,1.5,0,1,1-2.63,1.44c-.13-.24-14-24.65-48.53-22.52s-46.53,30.32-46.65,30.6A1.48,1.48,0,0,1,823.07,856.63Z"/><path d="M854.88,812.83a1.48,1.48,0,0,1-1.16-.56,1.5,1.5,0,0,1,.22-2.11,37.5,37.5,0,0,1,34.65-4.92,1.52,1.52,0,0,1,.94,1.91,1.5,1.5,0,0,1-1.9.93,35.2,35.2,0,0,0-31.8,4.41A1.5,1.5,0,0,1,854.88,812.83Z"/><path d="M855.53,820.08a1.5,1.5,0,0,1-.68-2.83c.7-.36,17.39-8.67,35.82-2.32a1.5,1.5,0,0,1-1,2.84c-17.24-5.94-33.32,2.07-33.48,2.15A1.51,1.51,0,0,1,855.53,820.08Z"/><path d="M837.65,812a1.54,1.54,0,0,1-.84-.26,1.49,1.49,0,0,1-.4-2.08c5.11-7.53,14.48-10.59,14.87-10.72a1.5,1.5,0,0,1,.92,2.86c-.09,0-8.79,2.89-13.31,9.54A1.49,1.49,0,0,1,837.65,812Z"/><path class="cls-2" d="M821.75,788.09A17.49,17.49,0,0,0,835.5,801c11.54,2.22,63.92-7.76,69.91-18s-1.77-27.52-1.77-27.52Z"/><path d="M839.59,802.75a24.57,24.57,0,0,1-4.37-.31,18.87,18.87,0,0,1-14.94-14,1.5,1.5,0,0,1,.91-1.7l81.89-32.62a1.49,1.49,0,0,1,1.92.78c.33.73,8,18.13,1.7,28.89C900.91,793.62,856.56,802.75,839.59,802.75Zm-16-13.77a15.82,15.82,0,0,0,12.23,10.51c12,2.31,63.08-8.33,68.33-17.26,4.61-7.87.29-20.68-1.31-24.82Zm-1.81-.89h0Z"/><path class="cls-2" d="M447.58,744.37l2,22.2S440,794.33,408,787.33,372.57,769,372.57,769l8.66-12.21Z"/><path d="M417.87,790a47.49,47.49,0,0,1-10.22-1.17c-32.56-7.11-36.37-18.86-36.52-19.36a1.48,1.48,0,0,1,.22-1.29l8.65-12.2a1.51,1.51,0,0,1,.95-.61L447.3,742.9a1.49,1.49,0,0,1,1.19.28,1.52,1.52,0,0,1,.59,1.06l2,22.19a1.63,1.63,0,0,1-.08.62C450.91,767.31,442.8,790,417.87,790Zm-43.58-20.79c1.29,2.32,7.73,11,34,16.69,29,6.33,38.62-16.47,39.77-19.49l-1.82-20.22-64.14,12Z"/><path class="cls-2" d="M448.69,734.39s3,13.59-2.08,18.49c-10.57,10.13-59.39,15-69.82,11.24s-10.43-19.52-10.43-19.52Z"/><path d="M389.16,766.85c-5.81,0-10.45-.43-12.88-1.31-11.29-4.09-11.42-20.26-11.42-20.95a1.49,1.49,0,0,1,1.31-1.48l82.34-10.21a1.5,1.5,0,0,1,1.65,1.16c.13.59,3.14,14.48-2.51,19.9C438.9,762.35,407.91,766.85,389.16,766.85Zm-21.24-20.94c.28,3.69,1.73,14,9.38,16.8,9.4,3.4,58-1.09,68.27-10.91,3.3-3.16,2.66-11.48,1.92-15.75Z"/><path class="cls-2" d="M465.17,860.84c-6.29,22-38.79,22.8-92.51,25.95s-107.47-6.3-114.54-15.2c-5.73-7.22-5.43-21,1.28-30.9a26.49,26.49,0,0,1,5.76-6.21c6.56-5.11,23.72-13.32,43.16-26.19a235.28,235.28,0,0,0,33.56-26.47c18.57-17.84,18.2-27.39,27.36-24.51,4.8,1.51,11.67,7.11,20,12.26,7.64,4.69,16.51,9,26.15,9.42,10.21.45,22.4-2.22,29.06-17.48,4.67-10.7,14.12-8.29,18.58,6.91,2.12,7.23,4.13,23.57,5,41.06C468.94,828.69,468.46,849.31,465.17,860.84Z"/><path d="M351.2,888.9c-45.61,0-87.59-8-94.26-16.38-6.21-7.83-5.67-22.49,1.22-32.67a28.2,28.2,0,0,1,6.08-6.56c3.14-2.44,8.56-5.53,15.41-9.44,7.8-4.44,17.5-10,27.84-16.81a231.79,231.79,0,0,0,33.35-26.3,131.3,131.3,0,0,0,14.88-17c4.82-6.37,7.47-9.88,14-7.84,3.32,1,7.43,3.83,12.19,7.06,2.59,1.75,5.27,3.57,8.17,5.36,6.1,3.74,15.37,8.76,25.42,9.19,13.46.59,22.49-4.83,27.62-16.58,2.18-5,5.56-7.7,9.32-7.46,5,.32,9.5,5.76,12.08,14.54,2.17,7.42,4.19,24.06,5,41.42,1.1,22.64,0,41.54-2.9,51.84-6.27,22-36.39,23.72-86.28,26.6l-7.59.44C365.56,888.71,358.33,888.9,351.2,888.9Zm15.13-130.61c-2.62,0-4.29,2.05-8.21,7.24a135.28,135.28,0,0,1-15.2,17.38,235.12,235.12,0,0,1-33.77,26.63c-10.42,6.9-20.18,12.46-28,16.92-6.75,3.85-12.09,6.89-15.06,9.2a25.22,25.22,0,0,0-5.44,5.87c-6.2,9.18-6.81,22.24-1.35,29.13,6.35,8,57.85,17.88,113.28,14.63l7.59-.44c48.56-2.8,77.88-4.49,83.57-24.42,2.85-10,3.87-28.55,2.79-50.88-.83-17.14-2.8-33.5-4.91-40.71-2.6-8.86-6.56-12.21-9.39-12.39-2.42-.14-4.74,1.91-6.38,5.66-5.6,12.84-15.87,19-30.5,18.38-10.75-.46-20.48-5.72-26.86-9.64-3-1.82-5.79-3.74-8.28-5.43-4.56-3.09-8.5-5.76-11.41-6.68A8.48,8.48,0,0,0,366.33,758.29Z"/><path class="cls-3" d="M317.78,866.87c-10.26,0-18.33-.23-22.18-.72-15.75-2-20.45-3.77-26.88-15.42a20.45,20.45,0,0,0-9.94-8.67,1.5,1.5,0,0,1,1.23-2.74,23.41,23.41,0,0,1,11.34,10c5.55,10.07,8.77,11.88,24.62,13.89,15,1.9,94.12-.13,115.81-4.43,8.53-1.69,14.29-10.26,21-20.2,8.23-12.27,17.56-26.19,34.92-30.52a1.5,1.5,0,0,1,.73,2.91c-16.24,4.05-25.23,17.46-33.16,29.28-6.74,10-13.1,19.55-22.86,21.48C396.08,864.91,347.67,866.87,317.78,866.87Z"/><path class="cls-2" d="M389.26,769.57c-12.69,15.72-44.3,47.13-60.85,46.93a30.28,30.28,0,0,1-20.09-8.21,235.28,235.28,0,0,0,33.56-26.47c18.57-17.84,18.2-27.39,27.36-24.51C374,758.82,380.91,764.42,389.26,769.57Z"/><path d="M328.56,818h-.17a31.82,31.82,0,0,1-21.08-8.6,1.49,1.49,0,0,1,.18-2.36,231.79,231.79,0,0,0,33.35-26.3,131.3,131.3,0,0,0,14.88-17c4.82-6.37,7.47-9.88,14-7.84,3.32,1,7.43,3.83,12.19,7.06,2.59,1.75,5.27,3.57,8.17,5.36a1.47,1.47,0,0,1,.69,1,1.52,1.52,0,0,1-.31,1.2C378.39,785.43,346.16,818,328.56,818Zm-17.76-9.56A28.08,28.08,0,0,0,328.43,815h.14c15.2,0,44.82-28.59,58.45-45.06-2.43-1.54-4.74-3.11-6.82-4.52-4.56-3.09-8.5-5.76-11.41-6.68-4.31-1.35-5.66.16-10.67,6.79a135.28,135.28,0,0,1-15.2,17.38A232.42,232.42,0,0,1,310.8,808.44Z"/><path d="M341,814.13a1.51,1.51,0,0,1-1.12-.5,52,52,0,0,0-18.95-13.12,1.5,1.5,0,0,1,1-2.83,54.07,54.07,0,0,1,20.19,14,1.49,1.49,0,0,1-.12,2.11A1.47,1.47,0,0,1,341,814.13Z"/><path d="M354.38,805.29a1.48,1.48,0,0,1-1.11-.49c-10-10.87-20.35-13.62-20.45-13.65a1.5,1.5,0,0,1,.74-2.91c.45.12,11.32,3,21.92,14.54a1.49,1.49,0,0,1-1.1,2.51Z"/><path d="M365.2,796.2a1.48,1.48,0,0,1-1.15-.54c-6.56-7.83-20.74-14.27-20.88-14.33a1.5,1.5,0,0,1,1.23-2.74c.61.28,15,6.79,22,15.15a1.49,1.49,0,0,1-.19,2.11A1.51,1.51,0,0,1,365.2,796.2Z"/><path d="M376.79,785a1.51,1.51,0,0,1-1.11-.48c-9.33-10.18-23-13.1-23.17-13.13a1.5,1.5,0,0,1,.61-2.94c.6.12,14.8,3.15,24.77,14a1.49,1.49,0,0,1-1.1,2.51Z"/><path d="M640.29,394.4s12.72,8,18.05,35.8,19.52,103.27,55.92,148c38.09,46.77,125.85,91,161,122.8,25.93,23.48,29,44.38,29,44.38s17.92,26.64-27.35,40.54-72,9.52-92.49,3c-25.89-8.22-163-45.31-228.73-222.7,0,0-65.69-2.81-84.33,21.15s-.89,54.45,1.18,82.26,6.36,63-28.7,75.24c-37,12.88-82.56,12-95-7.77-15-23.79-34.66-115.85-29.85-158.31,5.33-47,40.54-93.5,167.48-135.22S640.29,394.4,640.29,394.4Z"/><path class="cls-2" d="M748.59,372.66S722.06,300.73,646.7,257s-155-37.75-155-37.75l-48.55,16.89s-8.68,8.87-19.33,32.18c-9.52,20.81-25.75,39-54.6,42.61-30.44,3.74-44.23-22.2-51.71-13.54-6.27,7.27-35.73,70.13-35.73,70.13s19.58,35.34,83.89,41.27c72.13,6.66,99-45.05,99-45.05s3.56,19.16,4,47.27c.29,18.64-.61,20.44,9.16,30.75S535,468,587.84,450.1c47.71-16.2,57.48-49.78,56-57.18s-9.77-25.37-9.77-25.37A262.31,262.31,0,0,1,654.49,391c9.62,12.87,13.61,47.34,41,48.67C721,440.91,748.59,372.66,748.59,372.66Z"/><path d="M538.77,459.79c-31.79,0-55.57-10.16-62-17-9.32-9.84-9.35-12.5-9.51-27.26,0-1.38,0-2.87-.06-4.49a337.55,337.55,0,0,0-3.34-43A92.07,92.07,0,0,1,443.14,390c-12.88,9.91-34.15,20.93-65,20.93q-6,0-12.58-.59c-64.36-5.94-84.24-40.58-85.06-42.05a1.48,1.48,0,0,1,0-1.36c1.2-2.57,29.61-63.13,35.95-70.47,4.08-4.73,9.36-1.44,16.06,2.72,8.39,5.22,19.88,12.36,36.6,10.31,24.14-3,42.11-17,53.41-41.75,10.64-23.27,19.27-32.23,19.63-32.6a1.48,1.48,0,0,1,.58-.37l48.55-16.88a1.61,1.61,0,0,1,.38-.08c.8-.06,80.95-5.49,155.84,37.94S749.73,371.41,750,372.14a1.49,1.49,0,0,1,0,1.08c-1.14,2.82-28.23,69.24-54.58,67.95-20.57-1-28.47-19.69-34.82-34.72-2.41-5.69-4.68-11.06-7.29-14.56-4.64-6.2-10.22-12.53-14.35-17,2.48,5.84,5.51,13.46,6.37,17.77.78,3.91-1.19,14.56-9.81,26.46-7.2,9.93-21.22,23.62-47.18,32.43A154.1,154.1,0,0,1,538.77,459.79Zm-74.1-97.52.22,0a1.49,1.49,0,0,1,1.25,1.21c0,.19,3.6,19.61,4,47.52,0,1.63,0,3.12.06,4.51.16,14.39.18,16.24,8.69,25.23,8.83,9.32,55.54,25.88,108.43,7.92,46.42-15.76,56.46-48.17,55-55.47-1.43-7.14-9.58-24.86-9.66-25a1.5,1.5,0,0,1,2.43-1.68,266,266,0,0,1,20.55,23.61c2.83,3.79,5.17,9.32,7.65,15.19,6.34,15,13.52,32,32.2,32.88l.64,0c22.87,0,48.15-59.2,50.79-65.55-2.63-6.68-30.43-73.38-101-114.31C573.65,216.4,496.41,220.5,492,220.77l-48,16.69c-1.43,1.58-9.38,10.85-18.82,31.51-11.77,25.74-30.53,40.37-55.77,43.47-17.77,2.19-30.28-5.59-38.56-10.73-7.11-4.42-10-5.85-12.2-3.31-5.71,6.61-31.85,62-35.16,69.05,3,4.74,24.38,34.53,82.32,39.88,36.77,3.39,61.35-8.85,75.48-19.72,15.29-11.76,22-24.4,22-24.53A1.51,1.51,0,0,1,464.67,362.27Z"/><path class="cls-2" d="M463.93,247.78s3.7,13.76,8.58,16.87,20.27,2.22,27.82-10.21-1.19-24-1.19-24Z"/><path d="M479.28,267.67a14.42,14.42,0,0,1-7.57-1.76c-5.23-3.32-8.83-16.27-9.23-17.74a1.51,1.51,0,0,1,.79-1.74l35.21-17.31a1.51,1.51,0,0,1,1.86.45c.09.12,9.25,12.5,1.27,25.65A25.88,25.88,0,0,1,485.2,267,26.24,26.24,0,0,1,479.28,267.67Zm-13.56-19.1c1.27,4.3,4.34,12.74,7.6,14.81,1.81,1.16,6.09,1.86,11.2.66A22.94,22.94,0,0,0,499,253.66c5.75-9.47,1.4-18.31-.41-21.26Z"/><path d="M513.49,188s5.55-20.58-11.09-41.22-49-18.42-56.93-9.1c0,0-16.58,1.11-29.65,18.87s0,47.34,0,47.34,79.67,3,86.1-1.41S513.49,188,513.49,188Z"/><path class="cls-2" d="M499.83,199.56s-6.31-9.48-14.45-21.91c0,0,.15,6.22-2.66,11,0,0-6.66-13.77-14.8-16.28s-18.93,1.48-28-7.1c0,0-5.47,12.27-12.43,18.93s-12.13,13.47-11.68,19.68c0,0,7.06,30.27,28.51,42.1s45.36.78,56-14c7.54-10.5,6.72-25.74,6.72-25.74s18.09-11.65,7.11-23.19C506.6,175.08,493.67,186.53,499.83,199.56Z"/><path d="M463.62,252.41a41,41,0,0,1-20-5.15c-21.79-12-29-41.82-29.25-43.08a1.85,1.85,0,0,1,0-.23c-.42-5.9,3.44-12.53,12.15-20.87,6.65-6.37,12-18.35,12.09-18.47a1.5,1.5,0,0,1,2.41-.47c5.51,5.24,11.78,5.44,17.84,5.63a35.93,35.93,0,0,1,9.53,1.12c6.41,2,11.78,10.07,14.25,14.37a24,24,0,0,0,1.26-7.57,1.52,1.52,0,0,1,1.06-1.47,1.5,1.5,0,0,1,1.7.61c3.95,6,7.5,11.42,10.08,15.33a14.38,14.38,0,0,1,5.95-11.38,9.37,9.37,0,0,1,12.58,1.2c3,3.17,4.31,6.65,3.86,10.36-.86,7.23-8.18,13-10.53,14.64.05,3.45-.22,16.36-7,25.85C493.39,244.18,478.87,252.41,463.62,252.41Zm-46.29-48.8c.51,2,7.8,30,27.75,41s43.06,1.71,54-13.55c7.14-9.94,6.45-24.65,6.44-24.79a1.52,1.52,0,0,1,.69-1.34c.09-.06,9.06-5.93,9.9-13,.33-2.82-.67-5.41-3.07-7.93a6.34,6.34,0,0,0-8.7-.8c-4,2.73-6.35,9-3.19,15.67a1.49,1.49,0,0,1-.61,1.94,1.5,1.5,0,0,1-2-.47c-.06-.09-5.19-7.8-12.07-18.28a21.3,21.3,0,0,1-2.5,7.26,1.46,1.46,0,0,1-1.35.73,1.48,1.48,0,0,1-1.29-.84c-.06-.13-6.47-13.21-13.89-15.5a33.65,33.65,0,0,0-8.74-1c-5.8-.19-12.32-.39-18.27-5.11-1.82,3.73-6.36,12.28-11.9,17.59C420.73,192.75,417.06,198.76,417.33,203.61Z"/><path d="M463.34,235.67a1.5,1.5,0,0,1-.45-2.93c.12,0,11.77-3.76,15.42-10.12a1.5,1.5,0,0,1,2.6,1.5c-4.23,7.37-16.6,11.32-17.12,11.48A1.41,1.41,0,0,1,463.34,235.67Z"/><path d="M439.88,227.79a2.73,2.73,0,0,1-2-.7c-1.21-1.2-.64-3.17.4-6.76.45-1.54,1-3.3,1.41-5.29a73.29,73.29,0,0,0,1.6-9,1.5,1.5,0,1,1,3,.26,74.44,74.44,0,0,1-1.66,9.38c-.48,2.07-1,3.94-1.46,5.45-.38,1.32-.8,2.78-.93,3.6a11.34,11.34,0,0,0,6.3-3.41,1.5,1.5,0,1,1,2.27,1.95,14,14,0,0,1-8.71,4.47Zm.31-2.48h0Z"/><path d="M445.47,187.29a1.44,1.44,0,0,1-.6-.13,1.49,1.49,0,0,1-.77-2c.15-.35,3.84-8.53,15.31-8.89a1.5,1.5,0,0,1,.09,3c-9.51.3-12.53,6.82-12.65,7.1A1.52,1.52,0,0,1,445.47,187.29Z"/><path d="M422.5,198.05a1.33,1.33,0,0,1-.28,0,1.51,1.51,0,0,1-1.19-1.75c0-.1,2.07-10.09,14.82-8.87A1.5,1.5,0,0,1,437.2,189a1.49,1.49,0,0,1-1.63,1.35c-10-1-11.53,6.15-11.59,6.45A1.53,1.53,0,0,1,422.5,198.05Z"/><path d="M435.62,199.44c-1.16-2.5-3.41-3.92-5-3.17s-2,3.39-.81,5.89,3.41,3.91,5,3.16S436.79,201.94,435.62,199.44Z"/><path d="M458.23,191.32c-1.16-2.5-3.41-3.92-5-3.17s-2,3.39-.81,5.89,3.42,3.91,5,3.16S459.4,193.82,458.23,191.32Z"/><path class="cls-2" d="M868,469.17a33.23,33.23,0,0,1-3.69,1.27c-1.35.39-4.26,1.15-8.39,2.21C822,481.4,706.27,510.1,706.27,510.1l-40-6.5L698,475.77s105.79-26.85,145.29-36.18c5.68-1.34,10-2.31,12.42-2.8l.86-.17c13.11-2.38,20,1.7,23.4,9.56C883.93,455.4,879.7,464.5,868,469.17Z"/><path d="M706.27,511.6l-.24,0-40-6.5a1.5,1.5,0,0,1-1.2-1.07,1.47,1.47,0,0,1,.45-1.54L697,474.65a1.49,1.49,0,0,1,.62-.33c1.06-.27,106.26-27,145.31-36.19,5.89-1.39,10.09-2.33,12.47-2.81l.87-.17c12.85-2.34,21.05,1.08,25.07,10.44a16.84,16.84,0,0,1,.37,13.35c-2.07,5-6.62,9-13.16,11.62a36,36,0,0,1-3.85,1.32c-1.23.35-3.66,1-8.42,2.23-33.51,8.64-148.49,37.16-149.65,37.44A1.49,1.49,0,0,1,706.27,511.6Zm-36.6-9,36.54,5.94c6.57-1.63,116.66-28.94,149.32-37.37,4.73-1.22,7.15-1.86,8.34-2.2a33.09,33.09,0,0,0,3.54-1.22h0c5.78-2.31,9.76-5.76,11.51-10a14,14,0,0,0-.36-11c-3.43-8-10.35-10.75-21.75-8.68l-.85.17c-2.34.47-6.5,1.41-12.36,2.79-37.9,9-138.17,34.38-144.91,36.09Z"/><path class="cls-2" d="M836.42,479c0,19.83-14.75,18-14.75,18s-7.1,10.66-20.42,5.34c0,0-8.88,12.73-21,1.48,0,0-3,10.05-14.8,8s-9.76-14.21-11.54-29.59A92.24,92.24,0,0,0,737,439.37a132.45,132.45,0,0,1,4.25,25.47l-21.73,5.48c-2.76-6.82-9.38-19-24.09-30.65,0,0-12.19-35.3,8.43-55.92,17.76-17.75,44.69-11.09,44.69-11.09s49.7,20.56,68.65,50.73C834.23,450.48,836.37,459.2,836.42,479Z"/><path d="M768.55,513.65a19.53,19.53,0,0,1-3.36-.31c-10.63-1.85-11.25-10.83-12-22.2-.19-2.78-.39-5.65-.74-8.68a91.51,91.51,0,0,0-12-35.18,131.58,131.58,0,0,1,2.33,17.47,1.48,1.48,0,0,1-1.13,1.54l-21.72,5.48a1.52,1.52,0,0,1-1.76-.89c-2.53-6.23-9-18.42-23.63-30a1.53,1.53,0,0,1-.49-.68c-.51-1.48-12.25-36.43,8.79-57.47,18.15-18.14,45-11.77,46.11-11.49l.21.07c2.05.85,50.37,21.09,69.35,51.32,17.07,27.22,19.36,36,19.41,56.43,0,7.29-1.89,12.68-5.67,16a14.65,14.65,0,0,1-9.87,3.55,18.14,18.14,0,0,1-20.63,5.58c-1.47,1.72-5,5.23-10.11,5.77-3.66.39-7.3-.82-10.84-3.62A13.44,13.44,0,0,1,768.55,513.65ZM737,437.87a1.49,1.49,0,0,1,1.21.62,93.11,93.11,0,0,1,17.15,43.62c.36,3.1.56,6,.75,8.83.81,11.82,1.61,18.06,9.55,19.45,10.34,1.81,13-6.57,13.11-6.93a1.51,1.51,0,0,1,2.46-.67c3.37,3.13,6.75,4.54,10.05,4.19,5.25-.56,8.67-5.38,8.7-5.43a1.52,1.52,0,0,1,1.79-.54c12,4.79,18.35-4.38,18.62-4.77a1.49,1.49,0,0,1,1.42-.65,11.9,11.9,0,0,0,8.44-2.8c3.08-2.76,4.64-7.39,4.63-13.76,0-19.75-2.28-28.27-18.95-54.84-18-28.74-65.22-49-67.84-50.1-1.83-.42-26.78-5.66-43.17,10.72-18.55,18.55-9.44,50-8.2,54,14.07,11.25,20.76,23,23.69,29.77l19.25-4.86a133.22,133.22,0,0,0-4.1-23.9,1.5,1.5,0,0,1,.78-1.76A1.43,1.43,0,0,1,737,437.87Z"/><path d="M821.67,498.58a1.61,1.61,0,0,1-.43-.07,1.49,1.49,0,0,1-1-1.87c.09-.32,9.34-32.07-12.17-64.12a1.5,1.5,0,1,1,2.49-1.67c22.33,33.27,12.65,66.33,12.55,66.66A1.51,1.51,0,0,1,821.67,498.58Z"/><path d="M801.26,503.9a1.41,1.41,0,0,1-.45-.07,1.51,1.51,0,0,1-1-1.88c.1-.32,9.85-32.61-8.69-66.67a1.5,1.5,0,0,1,2.64-1.43c19.17,35.22,9,68.67,8.92,69A1.52,1.52,0,0,1,801.26,503.9Z"/><path d="M780.25,505.39l-.3,0a1.49,1.49,0,0,1-1.17-1.77c.07-.38,7.61-38.9-12-68.19a1.5,1.5,0,0,1,2.5-1.67c20.31,30.35,12.51,70.07,12.43,70.46A1.51,1.51,0,0,1,780.25,505.39Z"/><path d="M706.27,511.6a1.44,1.44,0,0,1-.4-.06,1.48,1.48,0,0,1-1-1.84c5.58-20.26-7.3-32.32-7.85-32.82a1.5,1.5,0,0,1,2-2.22c.61.55,14.82,13.75,8.73,35.83A1.51,1.51,0,0,1,706.27,511.6Z"/><path class="cls-2" d="M868,469.17a33.23,33.23,0,0,1-3.69,1.27c-1.35.39-4.26,1.15-8.39,2.21a46.41,46.41,0,0,0-12.62-33.06c5.68-1.34,10-2.31,12.42-2.8l.86-.17A46.49,46.49,0,0,1,868,469.17Z"/><path d="M855.9,474.15a1.47,1.47,0,0,1-.92-.32,1.52,1.52,0,0,1-.58-1.2,45,45,0,0,0-12.21-32,1.5,1.5,0,0,1,.75-2.49c5.88-1.39,10.08-2.33,12.46-2.81l.87-.17a1.49,1.49,0,0,1,1.42.48,47.72,47.72,0,0,1,11.79,33.59,1.49,1.49,0,0,1-.92,1.34,36.15,36.15,0,0,1-3.86,1.32c-1.23.35-3.66,1-8.42,2.23A1.58,1.58,0,0,1,855.9,474.15Zm-9.82-33.68a48,48,0,0,1,11.32,30.25c3.52-.91,5.45-1.43,6.47-1.72s1.82-.56,2.64-.86A44.69,44.69,0,0,0,856,438.26h0C854,438.66,850.66,439.41,846.08,440.47Zm21.9,28.7h0Z"/><path class="cls-2" d="M317.53,297.42s5.77,42.16-35.73,70.13c0,0-32.62-6.88-64.35-36.4s-43.35-54.81-40.17-61.69c4.07-8.81,14.64,0,14.64,0s-10.43-17.76-5.77-24.86,12.43,2.22,12.43,2.22-6.69-17.89.22-22.64c8.73-6,20.42,12,20.42,12s-9.21-23.45.45-30.18c8.63-6,18.19,9.76,23.08,20.41A74.22,74.22,0,0,0,268.93,257s-9-19.43-3.77-33.07c4.66-12.2,20.34-7.54,24,8.21C292.43,246.51,300.67,278.55,317.53,297.42Z"/><path d="M281.8,369.05a1.15,1.15,0,0,1-.31,0c-.33-.07-33.39-7.3-65.07-36.76-30.16-28.05-44.51-54.76-40.5-63.42a7.58,7.58,0,0,1,5.23-4.6,11.26,11.26,0,0,1,6.9,1.09c-2.92-6.08-6.71-16.12-3.15-21.54a6.62,6.62,0,0,1,5.23-3.34,9.39,9.39,0,0,1,5.43,1.72c-1.57-6-2.95-15.54,2.4-19.21a8.31,8.31,0,0,1,6.56-1.3c4,.79,7.92,4.11,10.88,7.28-2-7.85-3.39-19.43,3.41-24.18a8.2,8.2,0,0,1,7.12-1.28c7.91,2.15,14.78,14.9,18.18,22.31a71.65,71.65,0,0,0,21.54,27c-2.39-6.8-5.69-19.4-1.89-29.36,2-5.28,6.22-8.22,11.23-7.87,5.8.4,13.16,5.67,15.6,16.28,6.82,29.65,16.26,51.38,28.06,64.58a1.49,1.49,0,0,1,.37.79c.06.44,5.41,43.42-36.38,71.58A1.49,1.49,0,0,1,281.8,369.05ZM182.88,267a4.41,4.41,0,0,0-4.24,3c-2.5,5.41,6.85,29.29,39.83,60,28.72,26.71,58.44,34.77,63,35.89,37.4-25.58,35-63.4,34.58-67.88-12-13.61-21.55-35.66-28.42-65.55-2.1-9.12-8.15-13.63-12.89-14-3.69-.26-6.68,1.91-8.22,5.95-4.92,12.88,3.65,31.71,3.73,31.9a1.5,1.5,0,0,1-2.2,1.87A75.36,75.36,0,0,1,241.38,227c-5.32-11.62-11.39-19.35-16.24-20.67a5.26,5.26,0,0,0-4.62.86c-7.11,5-2.34,22.18.1,28.4A1.5,1.5,0,0,1,218,237c-.07-.12-7.26-11.06-14-12.4a5.35,5.35,0,0,0-4.28.83c-4.87,3.34-1.41,16.2.34,20.87a1.5,1.5,0,0,1-2.56,1.49c-1.05-1.26-4.38-4.49-7.13-4.34a3.72,3.72,0,0,0-2.89,2c-3.4,5.19,3,18.56,5.81,23.28a1.5,1.5,0,0,1-2.25,1.91C189.67,269.53,186,267,182.88,267Z"/><path d="M248.74,270.07a1.45,1.45,0,0,1-.92-.32c-22.67-17.55-29.67-32.33-30-32.95a1.5,1.5,0,0,1,2.72-1.26c.07.14,7,14.78,29.08,31.84a1.51,1.51,0,0,1,.26,2.11A1.49,1.49,0,0,1,248.74,270.07Z"/><path d="M235.42,289.6a1.47,1.47,0,0,1-.91-.31c-23-17.73-37.08-41.48-37.22-41.71a1.5,1.5,0,1,1,2.59-1.52c.13.23,13.89,23.49,36.46,40.85a1.5,1.5,0,0,1,.27,2.1A1.48,1.48,0,0,1,235.42,289.6Z"/><path d="M228.1,307.79a1.47,1.47,0,0,1-.83-.25c-25.1-16.65-36.2-36.52-36.66-37.36a1.5,1.5,0,0,1,2.63-1.45c.11.2,11.24,20.09,35.69,36.31a1.5,1.5,0,0,1-.83,2.75Z"/><path d="M272.93,312.46a1.5,1.5,0,0,1-1.48-1.24,128.78,128.78,0,0,1-.1-46.22l-3.75-7.29a1.5,1.5,0,0,1,2.67-1.37l4,7.77a1.5,1.5,0,0,1,.13,1,126.73,126.73,0,0,0,0,45.56,1.5,1.5,0,0,1-1.21,1.74Z"/><path d="M256.51,314.23h-.12a1.5,1.5,0,0,1-1.38-1.61c2.68-36.15,16.35-48.45,16.93-49a1.5,1.5,0,0,1,2,2.26c-.16.14-13.35,12.19-15.92,46.92A1.5,1.5,0,0,1,256.51,314.23Z"/><path d="M464.67,365.27a1.51,1.51,0,0,1-1.5-1.37c0-.11-.94-10.88-6.56-26a1.5,1.5,0,0,1,2.81-1.05c5.77,15.55,6.71,26.36,6.74,26.81a1.49,1.49,0,0,1-1.37,1.62Z"/><path d="M634.07,369.05a1.5,1.5,0,0,1-1.14-.53c-.18-.21-18.51-21.16-57.1-33.95a1.5,1.5,0,1,1,.94-2.85c39.44,13.08,57.68,34,58.44,34.85a1.49,1.49,0,0,1-.16,2.11A1.46,1.46,0,0,1,634.07,369.05Z"/><path d="M507.5,200.83a1.49,1.49,0,0,1-1.19-.6c-4.68-6.15-3.59-11.07-1.23-13.41a4.74,4.74,0,0,1,6.33-.67,1.5,1.5,0,1,1-1.83,2.38,1.83,1.83,0,0,0-2.39.42c-1.61,1.6-1.77,5.16,1.51,9.47a1.5,1.5,0,0,1-.29,2.1A1.47,1.47,0,0,1,507.5,200.83Z"/><path class="cls-3" d="M478.81,279.91c-18.88,0-24.8-13-24.87-13.15a1.5,1.5,0,0,1,2.75-1.2h0c.33.74,8.43,18.11,38.35,8.51s21.58-43.49,21.21-44.92a1.5,1.5,0,0,1,2.9-.76c.1.38,9.47,38.05-23.19,48.54A56.42,56.42,0,0,1,478.81,279.91Z"/><path class="cls-2" d="M120.72,289.93s-8.36,18.31,7.21,29.43,29.89-2.89,29.89-2.89Z"/><path d="M140.58,325.17a22.84,22.84,0,0,1-13.52-4.59c-16.39-11.7-7.8-31.08-7.71-31.27a1.5,1.5,0,0,1,2.24-.6l37.11,26.54a1.52,1.52,0,0,1,.62,1.1,1.54,1.54,0,0,1-.44,1.19C158.77,317.65,151,325.17,140.58,325.17Zm-19.16-32.89c-1.56,4.63-4.45,17.41,7.38,25.86s22.87,1.48,26.62-1.55Z"/><path class="cls-2" d="M142.35,234.33a402.62,402.62,0,0,0,6-72.2c-.5-39.24,2-90,58-108.18,61.51-20,114.34,35.48,110.19,83.4-3.07,35.41-23.53,54.81-63.4,83.4-37.36,26.79-52,51.36-52,51.36Z"/><path d="M201.18,273.61a1.5,1.5,0,0,1-.81-.24L141.54,235.6a1.52,1.52,0,0,1-.66-1.55,405.81,405.81,0,0,0,6-71.9c-.27-21,.5-43.06,7.92-62.54,8.92-23.4,25.63-38.8,51.1-47.08,27.27-8.87,56-3.58,78.72,14.5,22.47,17.86,35.59,45.51,33.43,70.45C315,172.67,295.85,192,254,222c-36.62,26.27-51.42,50.66-51.57,50.9a1.54,1.54,0,0,1-.94.7A2.09,2.09,0,0,1,201.18,273.61Zm-57.17-40L200.73,270c3.62-5.47,19.24-27.31,51.57-50.5,41-29.43,59.83-48.29,62.77-82.31,2.08-24-10.6-50.59-32.3-67.84-22-17.44-49.64-22.55-75.93-14-53.59,17.42-57.5,64.23-57,106.73A410.47,410.47,0,0,1,144,233.61Z"/><path class="cls-3" d="M117.7,293c2.81,4.2,35.22,29.52,39.49,28.47s18.24-11.11,18.24-11.11,7.68,4.53,11.7-.25,0-13.34,0-13.34,4.53,3.53,10.32-1.51,2.26-12.57,2.26-12.57,6.53.6,9.06-5.54c4.78-11.63-61.45-54.28-72.46-48.55-9.8,5.09-1.76,14.59-1.76,14.59s-7-1.76-10.31,3.27,0,11.32,0,11.32S116.69,255,113.92,261s3.78,13.78,3.78,13.78S115.45,289.6,117.7,293Z"/><path d="M168.45,308.29a1.5,1.5,0,0,1-.67-.16c-19.15-9.58-45.82-29.76-46.08-30a1.5,1.5,0,0,1,1.81-2.39c.26.2,26.72,20.22,45.61,29.67a1.5,1.5,0,0,1-.67,2.84Z"/><path d="M182.23,294.89a1.45,1.45,0,0,1-.64-.14c-26.07-12.19-52.28-32.23-52.54-32.43a1.5,1.5,0,1,1,1.83-2.38c.25.2,26.21,20,52,32.09a1.5,1.5,0,0,1-.63,2.86Z"/><path d="M192.79,280.55a1.59,1.59,0,0,1-.59-.12c-20.68-8.84-53.09-33.11-54.46-34.14a1.5,1.5,0,1,1,1.8-2.4c.33.25,33.49,25.09,53.84,33.78a1.5,1.5,0,0,1-.59,2.88Z"/><path class="cls-3" d="M183.21,251a1.57,1.57,0,0,1-.72-.18,1.52,1.52,0,0,1-.6-2c1.36-2.49,28-51.27,53.55-79.24a20.54,20.54,0,0,1-4.39-5.06,14.07,14.07,0,0,1-6.73-2.31,20.12,20.12,0,0,1-7.59-8.64,18.17,18.17,0,0,1-4.44,1.19,17.28,17.28,0,0,1-9.16-1.3c-5.78,22.75-18.68,52.55-37.36,85.14a1.5,1.5,0,1,1-2.61-1.49c20.27-35.35,32-64.17,37.18-85.1a32.33,32.33,0,0,1-8.75-8.34c-11.34-15.13-8.57-24.72-6.85-28.14a10.25,10.25,0,0,1,9.11-6c4.18,0,7.91,2.74,10.23,7.45,3.45,7,3.24,18.64-.22,33.54a14.35,14.35,0,0,0,8,1.3,14.87,14.87,0,0,0,3.75-1,25.84,25.84,0,0,1-.72-11.41c1-6.81,4.34-12.29,8.09-13.33,1.21-.33,3.58-.48,5.78,2.22s2.55,7.25.63,12.11a25,25,0,0,1-10,11.88,16.85,16.85,0,0,0,6.5,7.45,12.76,12.76,0,0,0,3.57,1.59c-.16-.45-.3-.9-.42-1.34-1.93-7.33,1.27-14.49,8.17-18.23,4.73-2.57,7.09-.86,8.07.38,2.87,3.65.9,12.28-4,17.77a13.78,13.78,0,0,1-6.83,4.35,17.82,17.82,0,0,0,3.05,3.18,85.76,85.76,0,0,1,14-12.27c12.36-8.28,18.76-6.06,21.48-4,3.24,2.46,4.35,7.1,2.81,11.83-1.87,5.76-8.21,12.57-19.91,12.79-7.74.14-13.63-1.65-17.94-4.35-25.52,27.95-53,78.28-53.37,78.89A1.5,1.5,0,0,1,183.21,251ZM240,169.11c3.81,2.25,9,3.72,15.79,3.6,10.12-.19,15.55-5.9,17.12-10.72,1.13-3.49.44-6.83-1.77-8.51-1.68-1.26-6.79-3.4-18,4.11A82.66,82.66,0,0,0,240,169.11Zm1.63-25.75a6.89,6.89,0,0,0-3,1c-5.64,3.06-8.27,8.88-6.7,14.83a14.05,14.05,0,0,0,.84,2.31,10.59,10.59,0,0,0,6.23-3.64c4.38-4.86,5.5-11.89,3.91-13.9A1.59,1.59,0,0,0,241.62,143.36Zm-17.28-14.53a1.88,1.88,0,0,0-.52.08c-2.21.6-5,4.84-5.92,10.87a24.24,24.24,0,0,0,.49,9.52,22.2,22.2,0,0,0,8.25-10.07c1.48-3.76,1.42-7.16-.17-9.11A2.81,2.81,0,0,0,224.34,128.83Zm-30.53-16.34a7.29,7.29,0,0,0-6.39,4.38c-3.06,6.08-.6,15.42,6.57,25a30.88,30.88,0,0,0,7.08,7c3.26-14.55,3.12-24.93.31-30.63-1.79-3.65-4.54-5.75-7.54-5.77Z"/><path d="M142.72,90.92a1.5,1.5,0,0,1-.7-.17L114.27,76.08a1.5,1.5,0,0,1,1.4-2.66l27.75,14.67a1.5,1.5,0,0,1-.7,2.83Z"/><path d="M132.91,116.71a1.39,1.39,0,0,1-.4-.06l-19.88-5.53a1.51,1.51,0,0,1-1-1.85,1.49,1.49,0,0,1,1.85-1l19.87,5.53a1.5,1.5,0,0,1-.4,2.95Z"/><path d="M189.65,34.57a1.51,1.51,0,0,1-1.45-1.09L184.43,20a1.5,1.5,0,0,1,2.89-.81l3.77,13.45a1.5,1.5,0,0,1-1,1.85A1.83,1.83,0,0,1,189.65,34.57Z"/><path d="M204,30.61a1.49,1.49,0,0,1-1.48-1.27L198.23,1.73a1.5,1.5,0,0,1,3-.46l4.28,27.61a1.49,1.49,0,0,1-1.25,1.71Z"/><path d="M286.25,40.11a1.55,1.55,0,0,1-.74-.2,1.49,1.49,0,0,1-.56-2L295.09,20a1.5,1.5,0,0,1,2.61,1.48L287.56,39.35A1.53,1.53,0,0,1,286.25,40.11Z"/><path d="M298.14,36.26a1.48,1.48,0,0,1-.87-.28,1.49,1.49,0,0,1-.34-2.1L316.68,6.43a1.5,1.5,0,1,1,2.44,1.76L299.36,35.64A1.51,1.51,0,0,1,298.14,36.26Z"/><path d="M333.55,89.13a1.5,1.5,0,0,1-.79-2.77l28-17.31a1.5,1.5,0,0,1,1.58,2.56l-28,17.3A1.52,1.52,0,0,1,333.55,89.13Z"/><path d="M342.31,93.19a1.5,1.5,0,0,1-.68-2.84l44.86-22.64a1.5,1.5,0,0,1,1.35,2.68L343,93A1.44,1.44,0,0,1,342.31,93.19Z"/><path d="M346.38,187.53a1.51,1.51,0,0,1-.86-.27l-21.13-14.84a1.5,1.5,0,1,1,1.72-2.46l21.13,14.84a1.5,1.5,0,0,1-.86,2.73Z"/><path d="M327,190.05a1.48,1.48,0,0,1-1.05-.43l-10.21-9.94a1.5,1.5,0,0,1,2.09-2.15l10.21,9.94a1.5,1.5,0,0,1-1,2.58Z"/></g></g></svg>