<svg width="22" height="22" viewBox="0 0 22 22" fill="none" xmlns="http://www.w3.org/2000/svg">
<path d="M22 11.0404C22 4.94298 17.0751 0 11 0C4.92488 0 0 4.94298 0 11.0404C0 16.2182 3.55146 20.5627 8.34266 21.7557V14.4142H6.07438V11.0404H8.34266V9.58667C8.34266 5.82886 10.037 4.08712 13.7128 4.08712C14.4096 4.08712 15.6121 4.22425 16.104 4.36141V7.41979C15.8444 7.39236 15.3935 7.37863 14.8332 7.37863C13.0295 7.37863 12.3326 8.06437 12.3326 9.84727V11.0404H15.9256L15.3084 14.4142H12.3326V22C17.7792 21.3397 22 16.6851 22 11.0404Z" fill="#F2F4FF"/>
</svg>
