<svg width="22" height="22" viewBox="0 0 22 22" fill="none" xmlns="http://www.w3.org/2000/svg">
<path d="M11.001 0C8.01364 0 7.6386 0.0130926 6.46528 0.0664695C5.29431 0.120182 4.49502 0.30549 3.79548 0.577522C3.07201 0.858394 2.45835 1.23438 1.84692 1.84592C1.23504 2.45735 0.859107 3.07102 0.577323 3.79435C0.304484 4.49395 0.118864 5.29349 0.0663087 6.46409C0.0137536 7.63748 0 8.01257 0 11C0 13.9874 0.0133063 14.3612 0.0664204 15.5345C0.120317 16.7055 0.305714 17.5049 0.577435 18.2043C0.85866 18.9278 1.23448 19.5415 1.84614 20.153C2.45734 20.7648 3.07112 21.1415 3.79403 21.4225C4.49402 21.6945 5.29353 21.8799 6.46439 21.9335C7.63771 21.9869 8.01241 22 10.9997 22C13.9874 22 14.3611 21.9869 15.5345 21.9335C16.7055 21.8798 17.5059 21.6945 18.2056 21.4225C18.9289 21.1416 19.5417 20.7648 20.1529 20.153C20.7647 19.5415 21.1407 18.9278 21.4225 18.2045C21.6929 17.5049 21.8786 16.7053 21.9335 15.5348C21.9862 14.3614 22 13.9874 22 11C22 8.01257 21.9862 7.6377 21.9336 6.46431C21.8786 5.29326 21.6929 4.49395 21.4226 3.79457C21.1407 3.07102 20.7647 2.45735 20.1529 1.84592C19.541 1.23405 18.9291 0.85817 18.205 0.577522C17.5037 0.30549 16.7039 0.12007 15.5328 0.0664695C14.3595 0.0130926 13.9859 0 10.9977 0H11.001ZM10.0142 1.98233C10.3072 1.98188 10.6339 1.98233 11.001 1.98233C13.9381 1.98233 14.2863 1.99285 15.446 2.04555C16.5185 2.09457 17.1006 2.27383 17.4883 2.42434C18.0017 2.62375 18.3677 2.8621 18.7524 3.24704C19.1374 3.63198 19.3758 3.99868 19.5756 4.51208C19.7262 4.89926 19.9056 5.48148 19.9545 6.55394C20.007 7.71357 20.0186 8.06181 20.0186 10.9975C20.0186 13.933 20.0072 14.2814 19.9545 15.441C19.9053 16.5135 19.7262 17.0956 19.5756 17.4829C19.3763 17.9962 19.1374 18.3618 18.7524 18.7465C18.3674 19.1315 18.0019 19.3698 17.4883 19.5692C17.1011 19.7205 16.5185 19.8993 15.446 19.9483C14.2865 20.0009 13.9381 20.0124 11.001 20.0124C8.06374 20.0124 7.71576 20.001 6.55608 19.9483C5.48351 19.8987 4.90149 19.7196 4.51347 19.5689C4.00022 19.3697 3.63346 19.1313 3.24846 18.7463C2.86347 18.3613 2.62518 17.9955 2.42525 17.482C2.27474 17.0947 2.09538 16.5126 2.04652 15.4401C1.99374 14.2805 1.98323 13.9321 1.98323 10.9947C1.98323 8.05733 1.99374 7.71078 2.04652 6.55114C2.09549 5.47868 2.27463 4.89657 2.42525 4.50895C2.62462 3.99554 2.86347 3.62884 3.24846 3.2439C3.63346 2.85885 4.00011 2.62061 4.51347 2.42065C4.90126 2.26947 5.48351 2.09065 6.55608 2.04141C7.57084 1.99553 7.96411 1.98188 10.0142 1.97953V1.98233ZM16.8729 3.80878C16.144 3.80878 15.5528 4.39928 15.5528 5.12832C15.5528 5.85702 16.144 6.44831 16.8729 6.44831C17.6016 6.44831 18.1928 5.85702 18.1928 5.12832C18.1928 4.39951 17.6016 3.80833 16.8727 3.80833L16.8729 3.80878ZM11.001 5.351C7.88125 5.351 5.35201 7.88031 5.35201 11C5.35201 14.1197 7.88136 16.6478 11.0011 16.6478C14.1209 16.6478 16.6491 14.1197 16.6491 11C16.6491 7.88031 14.1205 5.351 11.0008 5.351H11.001ZM11.001 7.33333C13.0261 7.33333 14.6678 8.97493 14.6678 11C14.6678 13.025 13.0259 14.6667 11.001 14.6667C8.97596 14.6667 7.33434 13.025 7.33434 11C7.33434 8.97481 8.97585 7.33333 11.001 7.33333Z" fill="#F2F4FF"/>
</svg>
