<?xml version="1.0" encoding="UTF-8"?>
<svg id="Layer_1" data-name="Layer 1" xmlns="http://www.w3.org/2000/svg" viewBox="0 0 441.74 123.94">
  <defs>
    <style>
      .cls-1 {
        fill: #c6d2d4;
      }
    </style>
  </defs>
  <path class="cls-1" d="M23.51,25.44v96.67H0V0c12.98,0,23.51,11.4,23.51,25.44ZM85.19,119.26c-4.14,3.05-8.84,4.68-13.35,4.68-7.52,0-14.67-3.87-19.18-10.79l-29.15-45.79,44.76-48.03c1.5,1.83,5.08,4.27,3.57,5.9l-28.77,28.29,42.12,65.74Z"/>
  <path class="cls-1" d="M85.19,94.03c0-13.64,8.46-23.2,22.57-28.49l-14.29-30.73s16.92-15.26,34.41-15.26c15.61,0,29.15,11.4,34.04,26.86l24.45,77.54c-11.66,0-22.19-6.92-28.77-15.87-4.7,6.11-15.42,15.87-37.61,15.87-18.43,0-34.79-7.33-34.79-29.92ZM131.64,32.36c-1.5-4.88-3.57-6.92-5.83-6.92-7.71,0-17.87,23.4-18.05,40.09,9.03-3.46,20.12-5.09,32.91-5.09l-9.03-28.09ZM108.69,93.01c0,15.87,7.33,26.86,20.12,26.86,11.66,0,22.38-12.41,23.32-22.79l-10.53-33.17c-17.86,0-32.91,7.12-32.91,29.1Z"/>
  <path class="cls-1" d="M216.49,122.32h-23.51V19.34c11.28,0,20.69,8.75,22.94,20.15,3.57-9.36,9.63-18.85,19.56-19.74,8.78-.79,17.01,8.32,17.01,8.32l-11.08,16.28c-3.19-5.44-4.99-8.11-12.33-8.11-5.64,0-10.53,4.07-12.6,13.43v72.66Z"/>
  <path class="cls-1" d="M260.39,35.01c0-8.75,6.39-15.67,14.48-15.67s14.29,6.92,14.29,15.67c0,14.04-4.14,25.03-17.3,28.29,8.46,3.66,14.67,12.82,14.67,23.61v37.04c-12.98,0-23.51-2.99-23.51-17.24v-46.87c14.1,0,20.31-6.72,22.38-16.08-2.63,3.05-6.39,6.72-10.53,6.72-8.09,0-14.48-6.92-14.48-15.47Z"/>
  <path class="cls-1" d="M441.74,123.74c-12.98,0-23.51-11.4-23.51-25.44v-58.61c0-10.18-2.26-14.86-11.28-14.86-12.41,0-20.87,13.43-23.69,24.22v73.27h-23.32V39.69c0-10.18-1.5-14.86-10.53-14.86-12.41,0-21.81,13.43-24.64,24.42v73.06h-23.51V19.34c11.28,0,20.69,8.55,22.94,19.95,6.77-12.01,16.74-19.95,29.71-19.95,18.05,0,25.58,9.97,28.21,20.76,6.77-12.41,16.92-20.76,30.28-20.76,23.88,0,29.34,17.71,29.34,30.93v73.47Z"/>
</svg>