<svg width="136" height="23" viewBox="0 0 136 23" fill="none" xmlns="http://www.w3.org/2000/svg">
<path d="M5.61098 22.2866L0 0.707153H4.65485L8.44657 17.1079L12.6391 0.707153H17.7262L21.7956 17.0764L25.72 0.707153H30.2722L24.5381 22.2866H18.9887L15.1354 7.21136L11.1276 22.2866H5.60962H5.61098Z" fill="#F2F4FF"/>
<path d="M34.1884 5.02417C33.3663 5.02417 32.6933 4.78753 32.1695 4.31562C31.6456 3.8437 31.3829 3.24731 31.3829 2.52782C31.3829 1.80832 31.6456 1.18184 32.1695 0.708554C32.6933 0.236641 33.3663 0 34.1884 0C35.0105 0 35.7095 0.236641 36.2224 0.708554C36.7354 1.18184 36.9926 1.7878 36.9926 2.52782C36.9926 3.26783 36.7354 3.8437 36.2224 4.31562C35.7081 4.7889 35.0297 5.02417 34.1884 5.02417ZM31.8453 22.2866V6.84206H36.47V22.2866H31.8453Z" fill="#F2F4FF"/>
<path d="M45.7784 22.6573C44.3394 22.6573 43.0905 22.4262 42.0332 21.9638C40.9745 21.5015 40.1373 20.8695 39.5204 20.068C38.9035 19.2664 38.5438 18.3718 38.4412 17.3856H43.0345C43.1165 17.7152 43.2752 18.0175 43.5118 18.2952C43.7485 18.5729 44.0508 18.789 44.4215 18.9422C44.7908 19.0968 45.2121 19.1734 45.6854 19.1734C46.1983 19.1734 46.6155 19.1064 46.9342 18.9723C47.253 18.8382 47.4896 18.6591 47.6428 18.4334C47.7974 18.2077 47.874 17.971 47.874 17.7248C47.874 17.3555 47.755 17.0723 47.5197 16.8767C47.283 16.6811 46.9383 16.517 46.4869 16.3829C46.0342 16.2489 45.5007 16.1107 44.8838 15.9671C44.1643 15.803 43.4448 15.6183 42.7253 15.4117C42.0058 15.2066 41.3588 14.9398 40.7829 14.6102C40.2071 14.2819 39.7447 13.8606 39.3959 13.3463C39.0458 12.8333 38.872 12.1959 38.872 11.4354C38.872 10.5107 39.1292 9.67355 39.6421 8.92259C40.1551 8.173 40.8951 7.57661 41.8622 7.13479C42.8279 6.69297 43.9988 6.47137 45.3762 6.47137C47.2872 6.47137 48.8027 6.90225 49.923 7.76674C51.0433 8.62987 51.6958 9.79118 51.8804 11.2507H47.5949C47.4718 10.8403 47.2201 10.5257 46.8399 10.311C46.4596 10.0949 45.9617 9.98679 45.3448 9.98679C44.6868 9.98679 44.1835 10.1003 43.8347 10.326C43.4845 10.5531 43.3108 10.8403 43.3108 11.1891C43.3108 11.4354 43.4339 11.657 43.6801 11.8526C43.9263 12.0482 44.2819 12.2178 44.7443 12.3614C45.2066 12.505 45.7456 12.65 46.3625 12.7936C47.5744 13.0604 48.6386 13.349 49.5537 13.6568C50.4674 13.9645 51.1869 14.4077 51.7122 14.9822C52.2361 15.5581 52.4987 16.4007 52.4987 17.5101C52.4987 18.4963 52.2265 19.3799 51.6821 20.161C51.1377 20.942 50.3662 21.5535 49.3704 21.9953C48.3732 22.4371 47.1764 22.6587 45.7784 22.6587V22.6573Z" fill="#F2F4FF"/>
<path d="M62.3322 22.6573C60.7291 22.6573 59.3215 22.3236 58.1082 21.6561C56.895 20.9885 55.9457 20.0584 55.2562 18.8656C54.5668 17.6742 54.2235 16.3063 54.2235 14.7661C54.2235 13.2259 54.5627 11.7404 55.2412 10.497C55.9197 9.25362 56.8649 8.27286 58.0768 7.55337C59.2887 6.83387 60.7072 6.47412 62.3308 6.47412C63.9545 6.47412 65.2335 6.80788 66.4153 7.4754C67.5971 8.14292 68.5218 9.05802 69.1893 10.2193C69.8568 11.3807 70.1906 12.7212 70.1906 14.2422C70.1906 14.4474 70.1851 14.6786 70.1756 14.9357C70.1646 15.1929 70.14 15.4555 70.099 15.7223H57.49V13.0098H65.4742C65.4127 12.1672 65.0939 11.4887 64.5181 10.9758C63.9422 10.4628 63.2227 10.2057 62.3596 10.2057C61.6811 10.2057 61.0697 10.3548 60.5253 10.653C59.9809 10.9511 59.5541 11.408 59.2463 12.0249C58.9385 12.6418 58.784 13.4229 58.784 14.3681V15.2627C58.784 15.9822 58.9221 16.6141 59.1998 17.1585C59.4775 17.7029 59.8824 18.1297 60.4172 18.4375C60.952 18.7452 61.5676 18.8998 62.2666 18.8998C62.9655 18.8998 63.5045 18.7617 63.9463 18.484C64.3881 18.2063 64.7328 17.8425 64.979 17.3897H69.7269C69.4191 18.3759 68.9144 19.2705 68.2168 20.0721C67.5178 20.8736 66.6697 21.5056 65.6739 21.9679C64.6767 22.4303 63.5619 22.6614 62.3295 22.6614L62.3322 22.6573Z" fill="#F2F4FF"/>
<path d="M81.8777 22.6573C79.8217 22.6573 78.0339 22.2004 76.5142 21.2853C74.9932 20.3716 73.8113 19.0913 72.9687 17.4471C72.1261 15.8029 71.7048 13.8811 71.7048 11.6829C71.7048 9.48475 72.1412 7.50134 73.0152 5.79425C73.8879 4.08852 75.1423 2.75348 76.7769 1.7864C78.4101 0.820686 80.3689 0.33783 82.6491 0.33783C85.218 0.33783 87.3505 0.954737 89.0453 2.18718C90.7414 3.41963 91.8357 5.12673 92.3281 7.30437H87.211C86.8827 6.44125 86.3369 5.77373 85.5777 5.30045C84.8172 4.82853 83.831 4.59189 82.6177 4.59189C81.2813 4.59189 80.1459 4.88461 79.2117 5.47006C78.2761 6.05551 77.573 6.8776 77.0997 7.93632C76.6264 8.99505 76.3911 10.2439 76.3911 11.6815C76.3911 13.1192 76.6319 14.4145 77.1161 15.4432C77.599 16.4704 78.287 17.246 79.1816 17.7713C80.0762 18.2952 81.1499 18.5578 82.4029 18.5578C84.1702 18.5578 85.5107 18.0955 86.4258 17.1708C87.3395 16.2461 87.8908 15.0848 88.0755 13.6868H83.0499V10.2343H92.7303V22.288H88.4448L88.1055 19.7916C87.6733 20.4085 87.1658 20.9324 86.579 21.3633C85.9936 21.7955 85.3151 22.1184 84.545 22.3345C83.7749 22.5506 82.8858 22.6587 81.879 22.6587L81.8777 22.6573Z" fill="#F2F4FF"/>
<path d="M102.656 22.6573C101.155 22.6573 99.809 22.3071 98.6176 21.6095C97.4248 20.9105 96.4796 19.9558 95.782 18.7425C95.0831 17.5305 94.7343 16.1422 94.7343 14.5801C94.7343 13.018 95.0831 11.5954 95.782 10.3725C96.481 9.14963 97.4262 8.19486 98.6176 7.50546C99.809 6.81742 101.155 6.47272 102.656 6.47272C104.156 6.47272 105.508 6.81742 106.71 7.50546C107.912 8.19486 108.857 9.14963 109.545 10.3725C110.234 11.5954 110.578 12.9988 110.578 14.5801C110.578 16.1613 110.228 17.5292 109.53 18.7425C108.831 19.9558 107.886 20.9105 106.695 21.6095C105.502 22.3085 104.156 22.6573 102.657 22.6573H102.656ZM102.656 18.6495C103.272 18.6495 103.817 18.5004 104.289 18.2022C104.761 17.904 105.141 17.4471 105.43 16.8302C105.717 16.2133 105.862 15.4637 105.862 14.5801C105.862 13.6964 105.724 12.9208 105.446 12.3149C105.168 11.7089 104.788 11.2507 104.305 10.9429C103.822 10.6351 103.272 10.4806 102.656 10.4806C102.039 10.4806 101.52 10.6351 101.037 10.9429C100.555 11.2507 100.169 11.7089 99.8815 12.3149C99.5929 12.9208 99.4507 13.6759 99.4507 14.5801C99.4507 15.4842 99.5943 16.2133 99.8815 16.8302C100.169 17.4471 100.555 17.904 101.037 18.2022C101.52 18.5004 102.059 18.6495 102.656 18.6495Z" fill="#F2F4FF"/>
<path d="M112.551 22.2866V0.703064H117.176V22.288H112.551V22.2866Z" fill="#F2F4FF"/>
<path d="M126.474 22.6573C125.097 22.6573 123.848 22.3071 122.729 21.6095C121.609 20.9105 120.72 19.9503 120.063 18.7274C119.405 17.5045 119.077 16.123 119.077 14.5814C119.077 13.0398 119.405 11.6268 120.063 10.404C120.721 9.18108 121.62 8.22084 122.76 7.52186C123.901 6.82288 125.169 6.47408 126.567 6.47408C127.656 6.47408 128.601 6.66968 129.403 7.05952C130.204 7.45073 130.862 7.99514 131.375 8.69275V0.707153H136V22.2866H131.901L131.377 20.2827C131.069 20.7149 130.693 21.1102 130.251 21.47C129.809 21.8297 129.28 22.117 128.663 22.3331C128.046 22.5492 127.317 22.6573 126.474 22.6573ZM127.646 18.618C128.428 18.618 129.106 18.4443 129.68 18.0941C130.255 17.7453 130.708 17.2611 131.037 16.6455C131.366 16.0286 131.531 15.331 131.531 14.5486C131.531 13.7662 131.367 13.074 131.037 12.4681C130.708 11.8621 130.251 11.3847 129.665 11.0345C129.08 10.6857 128.407 10.5106 127.646 10.5106C126.927 10.5106 126.269 10.6857 125.674 11.0345C125.078 11.3847 124.615 11.8621 124.287 12.4681C123.957 13.074 123.793 13.7675 123.793 14.5486C123.793 15.3296 123.957 16.0286 124.287 16.6455C124.615 17.2624 125.074 17.7453 125.659 18.0941C126.244 18.4443 126.908 18.618 127.648 18.618H127.646Z" fill="#F2F4FF"/>
</svg>
