<svg width="364" height="56" viewBox="0 0 364 56" fill="none" xmlns="http://www.w3.org/2000/svg">
<path d="M13.8084 54.8473L0 1.74121H11.4553L20.7866 42.1026L31.1041 1.74121H43.6232L53.6378 42.0252L63.2956 1.74121H74.4985L60.3871 54.8473H46.7303L37.2475 17.7478L27.3844 54.8473H13.805H13.8084Z" fill="#F2F4FF"/>
<path d="M84.136 12.3643C82.1129 12.3643 80.4567 11.7819 79.1674 10.6205C77.8782 9.45918 77.2318 7.99149 77.2318 6.22084C77.2318 4.45019 77.8782 2.90844 79.1674 1.74372C80.4567 0.582362 82.1129 0 84.136 0C86.1591 0 87.8793 0.582362 89.1416 1.74372C90.404 2.90844 91.0368 4.39969 91.0368 6.22084C91.0368 8.04198 90.404 9.45918 89.1416 10.6205C87.8759 11.7853 86.2063 12.3643 84.136 12.3643ZM78.3696 54.8464V16.838H89.7509V54.8464H78.3696Z" fill="#F2F4FF"/>
<path d="M112.658 55.7592C109.117 55.7592 106.044 55.1903 103.441 54.0525C100.836 52.9147 98.7759 51.3595 97.2577 49.3868C95.7395 47.4142 94.8542 45.2127 94.6017 42.7856H105.906C106.108 43.5969 106.498 44.3408 107.08 45.0242C107.663 45.7075 108.407 46.2394 109.319 46.6164C110.228 46.9968 111.265 47.1853 112.429 47.1853C113.692 47.1853 114.718 47.0204 115.503 46.6905C116.287 46.3606 116.869 45.9196 117.246 45.3642C117.627 44.8087 117.815 44.2264 117.815 43.6204C117.815 42.7116 117.523 42.0147 116.944 41.5334C116.361 41.052 115.513 40.648 114.402 40.3182C113.288 39.9883 111.975 39.6483 110.457 39.2948C108.686 38.8909 106.915 38.4364 105.145 37.9281C103.374 37.4232 101.782 36.7668 100.365 35.9555C98.9475 35.1476 97.8098 34.1108 96.9514 32.8451C96.0896 31.5827 95.6621 30.014 95.6621 28.1424C95.6621 25.8668 96.2949 23.8067 97.5573 21.9586C98.8196 20.1139 100.641 18.6462 103.021 17.5589C105.397 16.4716 108.279 15.9263 111.669 15.9263C116.371 15.9263 120.101 16.9866 122.858 19.1141C125.615 21.2382 127.221 24.0962 127.675 27.688H117.129C116.826 26.6781 116.206 25.9038 115.27 25.3753C114.335 24.8435 113.109 24.5775 111.591 24.5775C109.972 24.5775 108.733 24.8569 107.875 25.4124C107.013 25.9712 106.586 26.6781 106.586 27.5365C106.586 28.1424 106.889 28.6877 107.494 29.1691C108.1 29.6505 108.976 30.0679 110.113 30.4214C111.251 30.7748 112.577 31.1316 114.096 31.4851C117.078 32.1415 119.697 32.8518 121.949 33.6092C124.198 34.3666 125.968 35.4573 127.261 36.8711C128.55 38.2883 129.197 40.3619 129.197 43.0919C129.197 45.519 128.527 47.6936 127.187 49.6157C125.847 51.5379 123.949 53.0426 121.498 54.1299C119.044 55.2172 116.099 55.7625 112.658 55.7625V55.7592Z" fill="#F2F4FF"/>
<path d="M153.397 55.7588C149.451 55.7588 145.987 54.9374 143.002 53.2947C140.016 51.652 137.68 49.3629 135.983 46.4275C134.286 43.4955 133.441 40.1293 133.441 36.3389C133.441 32.5485 134.276 28.8927 135.946 25.8328C137.616 22.7728 139.942 20.3592 142.924 18.5886C145.907 16.8179 149.397 15.9326 153.393 15.9326C157.389 15.9326 160.536 16.754 163.445 18.3967C166.353 20.0394 168.629 22.2915 170.272 25.1494C171.914 28.0074 172.736 31.3063 172.736 35.0496C172.736 35.5545 172.722 36.1234 172.699 36.7563C172.672 37.3891 172.611 38.0354 172.51 38.6919H141.48V32.0166H161.129C160.977 29.943 160.193 28.2733 158.776 27.011C157.359 25.7486 155.588 25.1158 153.464 25.1158C151.794 25.1158 150.29 25.4827 148.95 26.2165C147.61 26.9504 146.56 28.0747 145.802 29.5929C145.045 31.1111 144.665 33.0332 144.665 35.3593V37.5608C144.665 39.3315 145.005 40.8867 145.688 42.2264C146.371 43.5662 147.368 44.6165 148.684 45.3739C150 46.1313 151.515 46.5117 153.235 46.5117C154.955 46.5117 156.281 46.1717 157.369 45.4883C158.456 44.805 159.304 43.9096 159.91 42.7953H171.595C170.837 45.2224 169.595 47.4239 167.878 49.3966C166.158 51.3692 164.071 52.9244 161.62 54.0622C159.166 55.2 156.423 55.7689 153.39 55.7689L153.397 55.7588Z" fill="#F2F4FF"/>
<path d="M201.497 55.7592C196.437 55.7592 192.038 54.6349 188.298 52.3829C184.555 50.1342 181.646 46.9834 179.573 42.9372C177.499 38.8909 176.462 34.1613 176.462 28.7518C176.462 23.3422 177.536 18.4611 179.687 14.26C181.835 10.0623 184.921 6.77684 188.944 4.3969C192.963 2.02032 197.784 0.832031 203.395 0.832031C209.717 0.832031 214.965 2.35021 219.136 5.38321C223.31 8.4162 226.003 12.6173 227.215 17.9764H214.622C213.814 15.8523 212.471 14.2095 210.603 13.0448C208.731 11.8834 206.304 11.3011 203.318 11.3011C200.029 11.3011 197.235 12.0215 194.936 13.4622C192.634 14.903 190.903 16.9261 189.739 19.5316C188.574 22.1371 187.995 25.2105 187.995 28.7484C187.995 32.2863 188.587 35.4742 189.779 38.0056C190.967 40.5336 192.66 42.4423 194.862 43.735C197.064 45.0242 199.706 45.6706 202.79 45.6706C207.139 45.6706 210.438 44.5328 212.69 42.2572C214.938 39.9816 216.295 37.1236 216.749 33.6833H204.382V25.1869H228.205V54.8503H217.658L216.823 48.7069C215.76 50.2251 214.511 51.5144 213.067 52.5747C211.626 53.6385 209.956 54.4329 208.061 54.9648C206.166 55.4967 203.978 55.7626 201.5 55.7626L201.497 55.7592Z" fill="#F2F4FF"/>
<path d="M252.63 55.7602C248.938 55.7602 245.625 54.8984 242.693 53.1816C239.758 51.4615 237.432 49.1118 235.715 46.126C233.995 43.1435 233.136 39.7267 233.136 35.8825C233.136 32.0382 233.995 28.5373 235.715 25.5279C237.435 22.5184 239.761 20.1688 242.693 18.4722C245.625 16.779 248.938 15.9307 252.63 15.9307C256.323 15.9307 259.649 16.779 262.608 18.4722C265.567 20.1688 267.893 22.5184 269.586 25.5279C271.279 28.5373 272.128 31.9911 272.128 35.8825C272.128 39.7738 271.266 43.1401 269.549 46.126C267.829 49.1118 265.503 51.4615 262.571 53.1816C259.635 54.9018 256.323 55.7602 252.634 55.7602H252.63ZM252.63 45.8971C254.148 45.8971 255.488 45.5301 256.65 44.7963C257.811 44.0625 258.747 42.9381 259.457 41.4199C260.164 39.9018 260.521 38.0571 260.521 35.8825C260.521 33.7079 260.181 31.7992 259.497 30.3079C258.814 28.8167 257.878 27.689 256.69 26.9316C255.502 26.1742 254.148 25.7938 252.63 25.7938C251.112 25.7938 249.836 26.1742 248.648 26.9316C247.46 27.689 246.51 28.8167 245.804 30.3079C245.093 31.7992 244.743 33.6574 244.743 35.8825C244.743 38.1075 245.097 39.9018 245.804 41.4199C246.51 42.9381 247.46 44.0625 248.648 44.7963C249.836 45.5301 251.163 45.8971 252.63 45.8971Z" fill="#F2F4FF"/>
<path d="M277.123 54.8842V1.76807H288.504V54.8876H277.123V54.8842Z" fill="#F2F4FF"/>
<path d="M311.247 55.7595C307.857 55.7595 304.783 54.8978 302.03 53.181C299.273 51.4608 297.085 49.0977 295.469 46.0883C293.85 43.0788 293.042 39.6789 293.042 35.8851C293.042 32.0914 293.85 28.614 295.469 25.6046C297.088 22.5952 299.3 20.232 302.107 18.5119C304.915 16.7917 308.035 15.9333 311.476 15.9333C314.155 15.9333 316.481 16.4147 318.454 17.3741C320.426 18.3368 322.046 19.6766 323.308 21.3934V1.74121H334.689V54.8473H324.601L323.311 49.9157C322.554 50.9794 321.628 51.9523 320.541 52.8376C319.454 53.7229 318.151 54.4298 316.633 54.9617C315.114 55.4936 313.32 55.7595 311.247 55.7595ZM314.132 45.819C316.054 45.819 317.723 45.3914 319.137 44.5297C320.551 43.6713 321.665 42.4796 322.476 40.9648C323.284 39.4466 323.692 37.7298 323.692 35.8043C323.692 33.8788 323.288 32.1755 322.476 30.6843C321.665 29.193 320.541 28.0182 319.1 27.1564C317.659 26.298 316.003 25.8672 314.132 25.8672C312.361 25.8672 310.742 26.298 309.277 27.1564C307.81 28.0182 306.672 29.193 305.864 30.6843C305.053 32.1755 304.649 33.8822 304.649 35.8043C304.649 37.7265 305.053 39.4466 305.864 40.9648C306.672 42.483 307.8 43.6713 309.24 44.5297C310.681 45.3914 312.314 45.819 314.135 45.819H314.132Z" fill="#F2F4FF"/>
<path d="M343.724 15.264V3.10226H339.696V1.76807H349.369V3.09585H345.341V15.2576H343.724V15.264Z" fill="#F2F4FF"/>
<path d="M350.607 15.264V1.76807H352.492L357.29 11.1908L362.088 1.76807H364V15.2576H362.384V4.66097L357.913 13.3525H356.7L352.229 4.69945V15.264H350.613H350.607Z" fill="#F2F4FF"/>
</svg>
