<?xml version="1.0" encoding="UTF-8"?>
<svg id="Layer_1" data-name="Layer 1" xmlns="http://www.w3.org/2000/svg" viewBox="0 0 441.74 85.98">
  <defs>
    <style>
      .cls-1 {
        fill: #c6d2d4;
      }
    </style>
  </defs>
  <path class="cls-1" d="M38.69,18.91c-5.96,0-10.75,1.75-14.36,5.24-3.61,3.5-5.42,8.17-5.42,14.01v46.08H0v-46.08c0-5.5.97-10.6,2.92-15.3,1.95-4.7,4.64-8.74,8.08-12.12,3.44-3.38,7.51-6.02,12.21-7.91,4.7-1.89,9.86-2.84,15.48-2.84s10.77.95,15.48,2.84c4.7,1.89,8.77,4.53,12.21,7.91,3.44,3.38,6.1,7.42,8,12.12,1.89,4.7,2.84,9.8,2.84,15.3v46.08h-18.91v-46.08c0-5.85-1.78-10.52-5.33-14.01-3.55-3.5-8.31-5.24-14.27-5.24Z"/>
  <path class="cls-1" d="M90.96,42.99c0-6.19,1.06-11.92,3.18-17.2,2.12-5.27,5.07-9.83,8.86-13.67,3.78-3.84,8.28-6.82,13.5-8.94,5.22-2.12,10.92-3.18,17.11-3.18s11.89,1.06,17.11,3.18c5.21,2.12,9.72,5.1,13.5,8.94,3.78,3.84,6.73,8.4,8.86,13.67,2.12,5.27,3.18,11.01,3.18,17.2,0,.8-.03,1.58-.09,2.32-.06.75-.2,1.69-.43,2.84h-65.51c1.03,5.85,3.58,10.46,7.65,13.84,4.07,3.38,9.31,5.07,15.73,5.07,4.36,0,8.22-.8,11.61-2.41,3.38-1.6,6.1-3.95,8.17-7.05h20.63c-1.38,4.36-3.33,8.28-5.85,11.78-2.52,3.5-5.53,6.48-9.03,8.94-3.5,2.47-7.39,4.36-11.69,5.67-4.3,1.32-8.91,1.98-13.84,1.98-6.19,0-11.89-1.06-17.11-3.18-5.22-2.12-9.72-5.07-13.5-8.86-3.78-3.78-6.74-8.31-8.86-13.58-2.12-5.27-3.18-11.06-3.18-17.37ZM156.13,34.39c-1.61-4.81-4.36-8.6-8.25-11.35-3.9-2.75-8.66-4.13-14.27-4.13s-10.55,1.38-14.44,4.13c-3.9,2.75-6.59,6.53-8.08,11.35h45.05Z"/>
  <path class="cls-1" d="M239.53,1.72h23.04l-29.06,39.89,30.78,42.64h-23.04l-20.12-30.44-20.12,30.44h-23.04l30.78-42.64L179.69,1.72h23.04l18.4,28.03L239.53,1.72Z"/>
  <path class="cls-1" d="M314.16,67.92c5.85,0,10.58-1.78,14.19-5.33,3.61-3.55,5.42-8.25,5.42-14.1V1.72h18.91v46.08c0,5.85-.92,11.12-2.75,15.82-1.84,4.7-4.41,8.71-7.74,12.04-3.33,3.33-7.37,5.88-12.12,7.65-4.76,1.78-10.06,2.67-15.91,2.67s-11.15-.89-15.91-2.67c-4.76-1.78-8.83-4.33-12.21-7.65-3.38-3.32-5.99-7.33-7.82-12.04-1.84-4.7-2.75-9.97-2.75-15.82V1.72h18.91v46.77c0,5.85,1.83,10.55,5.5,14.1,3.67,3.55,8.43,5.33,14.27,5.33Z"/>
  <path class="cls-1" d="M441.74,60.43c0,3.91-.87,7.44-2.61,10.59-1.74,3.16-4.23,5.84-7.47,8.04-3.24,2.2-7.14,3.91-11.68,5.11-4.55,1.2-9.63,1.81-15.24,1.81-6.19,0-11.78-.67-16.76-1.99-4.98-1.33-9.22-3.22-12.7-5.67-3.48-2.45-6.15-5.44-7.98-8.97-1.84-3.53-2.76-7.45-2.76-11.78h20.32c0,3.82,1.76,6.81,5.3,8.97,3.53,2.16,8.39,3.24,14.59,3.24,5.03,0,9.05-.79,12.05-2.37,3-1.58,4.5-3.7,4.5-6.35s-1.4-4.67-4.21-6.29c-2.81-1.62-7.55-3.01-14.22-4.17-12-2.16-20.78-5.34-26.34-9.53-5.56-4.19-8.34-9.53-8.34-16.01,0-3.74.85-7.14,2.54-10.22,1.69-3.07,4.06-5.71,7.11-7.91,3.05-2.2,6.72-3.9,11.03-5.11,4.3-1.2,9.02-1.81,14.15-1.81s9.84.62,14.15,1.87c4.3,1.25,8,3.01,11.1,5.3,3.1,2.29,5.51,4.98,7.26,8.1,1.74,3.12,2.61,6.54,2.61,10.28h-20.32c0-2.66-1.4-4.86-4.21-6.6-2.81-1.74-6.39-2.62-10.74-2.62s-7.93.67-10.45,1.99c-2.52,1.33-3.77,3.16-3.77,5.48s1.5,4.38,4.5,5.92c3,1.54,8.08,3.01,15.24,4.42,11.61,2.24,20.07,5.46,25.4,9.66,5.32,4.2,7.98,9.74,7.98,16.63Z"/>
</svg>