<svg width="32" height="22" viewBox="0 0 32 22" fill="none" xmlns="http://www.w3.org/2000/svg">
<path fill-rule="evenodd" clip-rule="evenodd" d="M15.6915 0C15.7668 9.88564e-06 25.5107 0.00285064 27.9396 0.665039C28.6054 0.845246 29.2126 1.1968 29.7003 1.68457C30.1881 2.17236 30.5397 2.77944 30.7198 3.44531C31.7573 7.62154 31.518 14.2172 30.7404 18.5547C30.5602 19.2205 30.2085 19.8277 29.7208 20.3154C29.2331 20.8032 28.6259 21.1548 27.9601 21.335C25.5225 21.9998 15.7111 22 15.7111 22C15.6902 22 5.8972 21.9991 3.46203 21.335C2.79616 21.1547 2.18906 20.8032 1.70129 20.3154C1.21358 19.8277 0.861929 19.2205 0.681758 18.5547C-0.361816 14.3965 -0.0760972 7.79616 0.661251 3.46484C0.841444 2.79908 1.1931 2.19183 1.68078 1.7041C2.16851 1.21636 2.77572 0.86479 3.44152 0.68457C5.87927 0.01973 15.6915 0 15.6915 0ZM12.5685 15.7139L20.7071 11L12.5685 6.28613V15.7139Z" fill="#F2F4FF"/>
</svg>
